<?xml version="1.0" encoding="UTF-8"?>
<!DOCTYPE svg PUBLIC "-//W3C//DTD SVG 1.1//EN" "http://www.w3.org/Graphics/SVG/1.1/DTD/svg11.dtd">
<svg version="1.1" xmlns="http://www.w3.org/2000/svg" xmlns:xlink="http://www.w3.org/1999/xlink" x="0" y="0" width="1275.5" height="835.5" viewBox="0, 0, 1275.5, 835.5">
  <g id="workspaces" transform="translate(0, 0)">
    <path d="M509.242,492.031 L509.242,439.383 L386.742,439.383 L386.742,473.226 L397.1,473.226 L397.1,492.031 L386.742,492.031 L386.742,563.129 L522.08,563.129 L522.08,492.031 z" fill="#15F441" id="1-C301C"/>
    <path d="M244.205,379.447 L298.756,379.447 L298.756,425.746 L244.205,425.746 z" fill="#15F441" id="2-C308C"/>
    <path d="M141.432,654.742 L180.557,654.742 L180.557,692.406 L141.432,692.406 z" fill="#15F441" id="3-C201H"/>
    <path d="M141.432,693.199 L180.557,693.199 L180.557,730.863 L141.432,730.863 z" fill="#15F441" id="4-C202H"/>
    <path d="M218.856,645.677 L267.668,645.677 L267.668,683.341 L218.856,683.341 z" fill="#15F441" id="5-C203H"/>
    <path d="M218.856,683.304 L267.668,683.304 L267.668,720.968 L218.856,720.968 z" fill="#15F441" id="6-C204H"/>
    <path d="M218.856,722.357 L267.668,722.357 L267.668,753.351 L218.856,753.351 z" fill="#15F441" id="7-C205H"/>
    <path d="M218.856,754.004 L267.668,754.004 L267.668,785 L218.856,785 z" fill="#15F441" id="8-C206H"/>
    <path d="M432.122,645.513 L473.594,645.513 L473.594,690.523 L432.122,690.523 z" fill="#15F441" id="9-C301H"/>
    <path d="M514.926,683.929 L517.127,683.929 L517.127,645.513 L475.655,645.513 L475.655,690.523 L514.926,690.523 z" fill="#15F441" id="10-C302H"/>
    <path d="M641.098,683.929 L643.299,683.929 L643.299,645.513 L582.643,645.513 L582.643,690.523 L641.098,690.523 z" fill="#15F441" id="11-C303C"/>
    <path d="M522.21,683.929 L518.464,683.929 L518.464,645.513 L581,645.513 L581,690.523 L522.21,690.523 z" fill="#15F441" id="12-C302C"/>
    <path d="M646.882,683.929 L643.136,683.929 L643.136,645.513 L673.843,645.513 L673.843,690.523 L646.882,690.523 z" fill="#15F441" id="13-C303H"/>
    <path d="M675.486,645.513 L706.898,645.513 L706.898,690.523 L675.486,690.523 z" fill="#15F441" id="14-C304H"/>
    <path d="M708.983,645.513 L738.067,645.513 L738.067,690.523 L708.983,690.523 z" fill="#15F441" id="15-C305H"/>
    <path d="M767.894,682.658 L771.513,682.658 L771.513,645.513 L740.101,645.513 L740.101,690.523 L767.894,690.523 z" fill="#15F441" id="16-C306H"/>
    <path d="M929.093,645.513 L960.031,645.513 L960.031,690.296 L929.093,690.296 z" fill="#15F441" id="17-C402H"/>
    <path d="M962.318,645.513 L991.673,645.513 L991.673,690.296 L962.318,690.296 z" fill="#15F441" id="18-C403H"/>
    <path d="M1020.818,684.853 L1022.656,684.853 L1022.656,645.513 L993.3,645.513 L993.3,690.296 L1020.818,690.296 z" fill="#15F441" id="19-C404H"/>
    <path d="M897.725,645.513 L897.725,682.888 L901.94,682.888 L901.94,690.296 L927.827,690.296 L927.827,645.513 z" fill="#15F441" id="20-C401H"/>
    <path d="M896.081,645.513 L896.081,682.888 L894.112,682.888 L894.112,690.296 L869.684,690.296 L869.684,645.513 z" fill="#15F441" id="21-C400H"/>
    <path d="M1027.645,414.442 L1065.541,414.442 L1065.541,442.54 L1027.645,442.54 z" fill="#15F441" id="22-C501H"/>
    <path d="M1066.787,414.442 L1105.27,414.442 L1105.27,442.54 L1066.787,442.54 z" fill="#15F441" id="23-C502H"/>
    <path d="M1106.728,414.442 L1145.902,414.442 L1145.902,442.54 L1106.728,442.54 z" fill="#15F441" id="24-C503H"/>
    <path d="M1113.629,443.993 L1146,443.993 L1146,490.656 L1113.629,490.656 z" fill="#15F441" id="25-C504H"/>
    <path d="M1028.17,443.998 L1028.17,473.181 L1036.464,473.181 L1036.464,490.656 L1111.951,490.656 L1111.951,443.998 z" fill="#15F441" id="26-C501C"/>
    <path d="M776.305,444.55 L809.276,444.55 L809.276,490.414 L776.305,490.414 z" fill="#15F441" id="27-C408H"/>
    <path d="M888.046,472.623 L896.914,472.623 L896.914,444.55 L810.305,444.55 L810.305,490.414 L888.046,490.414 z" fill="#15F441" id="28-C405C"/>
    <path d="M776.305,414.733 L815.437,414.733 L815.437,443.144 L776.305,443.144 z" fill="#15F441" id="29-C405H"/>
    <path d="M816.452,414.733 L855.584,414.733 L855.584,443.144 L816.452,443.144 z" fill="#15F441" id="30-C406H"/>
    <path d="M856.869,414.733 L896.001,414.733 L896.001,443.144 L856.869,443.144 z" fill="#15F441" id="31-C407H"/>
    <path d="M885.842,254.372 L885.842,241.878 L804.045,241.878 L804.045,379.617 L891.137,379.617 L891.137,254.372 z" fill="#15F441" id="32-C401C"/>
    <path d="M1019.092,241.878 L1019.092,366.618 L1069.721,366.618 L1069.721,380.122 L1119.839,380.122 L1119.839,241.878 z" fill="#15F441" id="33-C403C"/>
    <path d="M907.999,241.431 L907.999,254.372 L892.369,254.372 L892.369,366.618 L919.225,366.618 L919.225,372.983 L996.613,372.983 L996.613,379.817 L1017.98,379.817 L1017.98,241.431 z" fill="#15F441" id="34-C402C"/>
    <path d="M244.205,427.114 L286.093,427.114 L286.093,472.441 L244.205,472.441 z" fill="#15F441" id="35-C307H"/>
    <path d="M372.674,357.149 L372.674,343.184 L323.069,343.184 L323.069,379.506 L385.999,379.506 L385.999,357.149 z" fill="#15F441" id="36-C308H"/>
    <path d="M334.46,404.963 L385.366,404.963 L385.366,443.166 L334.46,443.166 z" fill="#15F441" id="37-C309H"/>
    <path d="M387.161,404.963 L423.856,404.963 L423.856,437.481 L387.161,437.481 z" fill="#15F441" id="38-C310H"/>
    <path d="M799.229,645.712 L846.91,645.712 L846.91,670.901 L799.229,670.901 z" fill="#15F441" id="39-C311H"/>
  </g>
</svg>
