<?xml version="1.0" encoding="UTF-8"?>
<!DOCTYPE svg PUBLIC "-//W3C//DTD SVG 1.1//EN" "http://www.w3.org/Graphics/SVG/1.1/DTD/svg11.dtd">
<svg version="1.1" xmlns="http://www.w3.org/2000/svg" xmlns:xlink="http://www.w3.org/1999/xlink" x="0" y="0" width="1200" height="1014" viewBox="0, 0, 1200, 1014">
  <defs>
    <clipPath id="Clip_1">
      <path d="M581.197,272.18 L820.159,272.18 L820.159,485.385 L581.197,485.385 z M785.173,328.567 L785.358,328.787 C782.214,331.85 778.982,335.298 775.903,338.757 C775.133,337.032 774.316,335.327 773.449,333.652 C777.571,331.924 781.447,330.242 785.173,328.567 z M778.004,354.878 C778.359,356.245 778.681,357.622 778.974,359.012 C775.811,360.462 772.748,361.955 769.766,363.545 L769.664,363.29 C772.419,360.708 775.263,357.834 778.004,354.878 z M685.798,283.538 C717.961,283.538 746.447,299.563 763.701,324.045 L738.949,333.848 L743.608,345.613 L760.668,338.858 C764.057,337.514 767.268,336.215 770.339,334.949 C771.459,337.102 772.502,339.299 773.459,341.545 C771.992,343.244 770.576,344.927 769.249,346.54 L752.197,367.295 L757.519,380.737 L780.768,371.528 C780.952,373.923 781.044,376.343 781.044,378.782 C781.044,431.302 738.317,474.028 685.798,474.028 C633.281,474.028 590.553,431.302 590.553,378.782 C590.553,326.264 633.281,283.538 685.798,283.538 z M685.798,280.18 C631.431,280.18 587.197,324.414 587.197,378.782 C587.197,433.152 631.431,477.385 685.798,477.385 C740.168,477.385 784.399,433.152 784.399,378.782 C784.399,375.903 784.269,373.057 784.026,370.239 L814.159,358.305 L809.499,346.543 L792.944,353.1 C789.157,354.599 785.566,356.084 782.104,357.608 C781.682,355.69 781.213,353.794 780.681,351.922 C782.338,350.058 783.936,348.185 785.414,346.36 L801.513,326.374 L795.591,311.415 L766.903,322.778 C749.092,297.06 719.382,280.18 685.798,280.18 z"/>
    </clipPath>
    <filter id="Shadow_2">
      <feGaussianBlur in="SourceAlpha" stdDeviation="2.5"/>
      <feOffset dx="0" dy="2" result="offsetblur"/>
      <feFlood flood-color="#000000"/>
      <feComposite in2="offsetblur" operator="in"/>
    </filter>
    <clipPath id="Clip_3">
      <path d="M581.197,272.18 L820.159,272.18 L820.159,485.385 L581.197,485.385 z M785.173,328.567 L785.358,328.787 C782.214,331.85 778.982,335.298 775.903,338.757 C775.133,337.032 774.316,335.327 773.449,333.652 C777.571,331.924 781.447,330.242 785.173,328.567 z M778.004,354.878 C778.359,356.245 778.681,357.622 778.974,359.012 C775.811,360.462 772.748,361.955 769.766,363.545 L769.664,363.29 C772.419,360.708 775.263,357.834 778.004,354.878 z M685.798,283.538 C717.961,283.538 746.447,299.563 763.701,324.045 L738.949,333.848 L743.608,345.613 L760.668,338.858 C764.057,337.514 767.268,336.215 770.339,334.949 C771.459,337.102 772.502,339.299 773.459,341.545 C771.992,343.244 770.576,344.927 769.249,346.54 L752.197,367.295 L757.519,380.737 L780.768,371.528 C780.952,373.923 781.044,376.343 781.044,378.782 C781.044,431.302 738.317,474.028 685.798,474.028 C633.281,474.028 590.553,431.302 590.553,378.782 C590.553,326.264 633.281,283.538 685.798,283.538 z M685.798,280.18 C631.431,280.18 587.197,324.414 587.197,378.782 C587.197,433.152 631.431,477.385 685.798,477.385 C740.168,477.385 784.399,433.152 784.399,378.782 C784.399,375.903 784.269,373.057 784.026,370.239 L814.159,358.305 L809.499,346.543 L792.944,353.1 C789.157,354.599 785.566,356.084 782.104,357.608 C781.682,355.69 781.213,353.794 780.681,351.922 C782.338,350.058 783.936,348.185 785.414,346.36 L801.513,326.374 L795.591,311.415 L766.903,322.778 C749.092,297.06 719.382,280.18 685.798,280.18 z"/>
    </clipPath>
    <filter id="Shadow_4">
      <feGaussianBlur in="SourceAlpha" stdDeviation="2.5"/>
      <feOffset dx="0" dy="2" result="offsetblur"/>
      <feFlood flood-color="#000000"/>
      <feComposite in2="offsetblur" operator="in"/>
    </filter>
    <clipPath id="Clip_5">
      <path d="M793.609,296.883 L878.949,296.883 L878.949,368.315 L793.609,368.315 z M872.949,304.883 L799.609,304.883 L821.564,360.315 L872.949,304.883 z"/>
    </clipPath>
    <filter id="Shadow_6">
      <feGaussianBlur in="SourceAlpha" stdDeviation="2.5"/>
      <feOffset dx="0" dy="2" result="offsetblur"/>
      <feFlood flood-color="#000000"/>
      <feComposite in2="offsetblur" operator="in"/>
    </filter>
    <clipPath id="Clip_7">
      <path d="M793.609,296.883 L878.949,296.883 L878.949,368.315 L793.609,368.315 z M872.949,304.883 L799.609,304.883 L821.564,360.315 L872.949,304.883 z"/>
    </clipPath>
    <filter id="Shadow_8">
      <feGaussianBlur in="SourceAlpha" stdDeviation="2.5"/>
      <feOffset dx="0" dy="2" result="offsetblur"/>
      <feFlood flood-color="#000000"/>
      <feComposite in2="offsetblur" operator="in"/>
    </filter>
    <clipPath id="Clip_9">
      <path d="M644.191,19.223 L744.279,19.223 L744.279,123.311 L644.191,123.311 z M694.235,27.223 C669.911,27.223 650.191,46.943 650.191,71.267 C650.191,95.592 669.911,115.311 694.235,115.311 C718.56,115.311 738.279,95.592 738.279,71.267 C738.279,46.943 718.56,27.223 694.235,27.223 z"/>
    </clipPath>
    <filter id="Shadow_10">
      <feGaussianBlur in="SourceAlpha" stdDeviation="2.5"/>
      <feOffset dx="0" dy="2" result="offsetblur"/>
      <feFlood flood-color="#000000"/>
      <feComposite in2="offsetblur" operator="in"/>
    </filter>
    <clipPath id="Clip_11">
      <path d="M741.671,19.222 L841.761,19.222 L841.761,123.312 L741.671,123.312 z M791.716,27.222 C767.391,27.222 747.671,46.942 747.671,71.267 C747.671,95.593 767.391,115.312 791.716,115.312 C816.042,115.312 835.761,95.593 835.761,71.267 C835.761,46.942 816.042,27.222 791.716,27.222 z"/>
    </clipPath>
    <filter id="Shadow_12">
      <feGaussianBlur in="SourceAlpha" stdDeviation="2.5"/>
      <feOffset dx="0" dy="2" result="offsetblur"/>
      <feFlood flood-color="#000000"/>
      <feComposite in2="offsetblur" operator="in"/>
    </filter>
    <clipPath id="Clip_13">
      <path d="M838.795,19.222 L938.885,19.222 L938.885,123.312 L838.795,123.312 z M888.841,27.222 C864.515,27.222 844.796,46.942 844.795,71.267 C844.796,95.593 864.515,115.312 888.841,115.312 C913.166,115.312 932.885,95.593 932.885,71.267 C932.885,46.942 913.166,27.222 888.841,27.222 z"/>
    </clipPath>
    <filter id="Shadow_14">
      <feGaussianBlur in="SourceAlpha" stdDeviation="2.5"/>
      <feOffset dx="0" dy="2" result="offsetblur"/>
      <feFlood flood-color="#000000"/>
      <feComposite in2="offsetblur" operator="in"/>
    </filter>
    <clipPath id="Clip_15">
      <path d="M935.87,19.222 L1035.959,19.222 L1035.959,123.312 L935.87,123.312 z M985.914,27.222 C961.589,27.222 941.87,46.942 941.87,71.267 C941.87,95.593 961.589,115.312 985.914,115.312 C1010.24,115.312 1029.959,95.593 1029.959,71.267 C1029.959,46.942 1010.24,27.222 985.914,27.222 z"/>
    </clipPath>
    <filter id="Shadow_16">
      <feGaussianBlur in="SourceAlpha" stdDeviation="2.5"/>
      <feOffset dx="0" dy="2" result="offsetblur"/>
      <feFlood flood-color="#000000"/>
      <feComposite in2="offsetblur" operator="in"/>
    </filter>
  </defs>
  <g id="text_names" transform="translate(0, 0)">
    <g id="wayfinder">
      <text transform="matrix(1.25, 0, 0, 1.25, 1133.129, 759)" id="ID-1">
        <tspan x="-21.94" y="-4.948" font-family="MyriadPro-Bold" font-size="11" fill="#231F20">PROJECT</tspan>
        <tspan x="-23.661" y="8.052" font-family="MyriadPro-Bold" font-size="11" fill="#231F20">MNGMNT</tspan>
      </text>
      <text transform="matrix(1.25, 0, 0, 1.25, 1135.215, 861.719)" id="ID-2">
        <tspan x="-21.94" y="-4.5" font-family="MyriadPro-Bold" font-size="11" fill="#231F20">PROJECT</tspan>
        <tspan x="-23.661" y="8.5" font-family="MyriadPro-Bold" font-size="11" fill="#231F20">MNGMNT</tspan>
      </text>
      <text transform="matrix(1.25, 0, 0, 1.25, 908.219, 678.815)" id="ID-3">
        <tspan x="-9.158" y="-7" font-family="MyriadPro-Bold" font-size="11" fill="#231F20">102</tspan>
        <tspan x="-32.884" y="6" font-family="MyriadPro-Bold" font-size="11" fill="#231F20">CONFERENCE</tspan>
      </text>
      <text transform="matrix(1.25, 0, 0, 1.25, 546.066, 969.349)" id="ID-4">
        <tspan x="-15.295" y="-0.392" font-family="MyriadPro-Bold" font-size="11" fill="#231F20">SALES</tspan>
      </text>
      <text transform="matrix(1.25, 0, 0, 1.25, 451.966, 967.872)" id="ID-5">
        <tspan x="-31.829" y="0.789" font-family="MyriadPro-Bold" font-size="11" fill="#231F20">OPERATIONS</tspan>
      </text>
      <text transform="matrix(1.25, 0, 0, 1.25, 342.579, 833.622)" id="ID-6">
        <tspan x="-9.158" y="-7" font-family="MyriadPro-Bold" font-size="11" fill="#231F20">104</tspan>
        <tspan x="-19.552" y="6" font-family="MyriadPro-Bold" font-size="11" fill="#231F20">AD HOC</tspan>
      </text>
      <text transform="matrix(1.25, 0, 0, 1.25, 342.226, 757.938)" id="ID-7">
        <tspan x="-9.158" y="-7" font-family="MyriadPro-Bold" font-size="11" fill="#231F20">105</tspan>
        <tspan x="-19.552" y="6" font-family="MyriadPro-Bold" font-size="11" fill="#231F20">AD HOC</tspan>
      </text>
      <text transform="matrix(1.25, 0, 0, 1.25, 343.544, 681.501)" id="ID-8">
        <tspan x="-9.158" y="-7" font-family="MyriadPro-Bold" font-size="11" fill="#231F20">106</tspan>
        <tspan x="-19.552" y="6" font-family="MyriadPro-Bold" font-size="11" fill="#231F20">AD HOC</tspan>
      </text>
      <text transform="matrix(1.25, 0, 0, 1.25, 502.606, 800.382)" id="ID-9">
        <tspan x="-13.013" y="-6.246" font-family="MyriadPro-Bold" font-size="11" fill="#231F20">TECH</tspan>
        <tspan x="-23.331" y="6.754" font-family="MyriadPro-Bold" font-size="11" fill="#231F20">SUPPORT</tspan>
      </text>
      <text transform="matrix(1.25, 0, 0, 1.25, 1111.431, 961.09)" id="ID-10">
        <tspan x="-9.158" y="-7" font-family="MyriadPro-Bold" font-size="11" fill="#231F20">101</tspan>
        <tspan x="-32.884" y="6" font-family="MyriadPro-Bold" font-size="11" fill="#231F20">CONFERENCE</tspan>
      </text>
      <text transform="matrix(1.25, 0, 0, 1.25, 419.585, 802.225)" id="ID-11">
        <tspan x="-9.158" y="-7" font-family="MyriadPro-Bold" font-size="11" fill="#231F20">103</tspan>
        <tspan x="-13.745" y="6" font-family="MyriadPro-Bold" font-size="11" fill="#231F20">CONF</tspan>
      </text>
    </g>
    <g id="nontrack">
      <text transform="matrix(1.25, 0, 0, 1.25, 198.332, 737.209)" id="MECHANICAL">
        <tspan x="-33.368" y="-7" font-family="MyriadPro-Bold" font-size="11" fill="#231F20">MECHANICAL</tspan>
        <tspan x="-15.78" y="6" font-family="MyriadPro-Bold" font-size="11" fill="#231F20">ROOM</tspan>
      </text>
      <text transform="matrix(1.25, 0, 0, 1.25, 338.051, 174.455)" id="WAREHOUSE">
        <tspan x="-31.785" y="-7.267" font-family="MyriadPro-Bold" font-size="11" fill="#231F20">WAREHOUSE</tspan>
      </text>
      <text transform="matrix(1.25, 0, 0, 1.25, 204.271, 337.56)" id="LOADING">
        <tspan x="-23.007" y="-7.267" font-family="MyriadPro-Bold" font-size="11" fill="#231F20">LOADING</tspan>
        <tspan x="-14.421" y="5.733" font-family="MyriadPro-Bold" font-size="11" fill="#231F20">DOCK</tspan>
      </text>
      <text transform="matrix(1.25, 0, 0, 1.25, 431.189, 403.744)" id="ENGINEERING">
        <tspan x="-34.095" y="1" font-family="MyriadPro-Bold" font-size="11" fill="#231F20">ENGINEERING</tspan>
      </text>
      <text transform="matrix(1.25, 0, 0, 1.25, 453.309, 485.268)" id="DESIGN">
        <tspan x="-18.848" y="-0.392" font-family="MyriadPro-Bold" font-size="11" fill="#231F20">DESIGN</tspan>
      </text>
      <text transform="matrix(1.25, 0, 0, 1.25, 191.202, 489.026)" id="PURCHASING_2">
        <tspan x="-32.939" y="-0.392" font-family="MyriadPro-Bold" font-size="11" fill="#231F20">PURCHASING</tspan>
      </text>
      <text transform="matrix(1.25, 0, 0, 1.25, 692.2, 572.359)" id="KITCHEN">
        <tspan x="-21.593" y="-0.392" font-family="MyriadPro-Bold" font-size="11" fill="#231F20">KITCHEN</tspan>
      </text>
      <text transform="matrix(1.25, 0, 0, 1.25, 358.055, 969.349)" id="SALES">
        <tspan x="-15.295" y="-0.392" font-family="MyriadPro-Bold" font-size="11" fill="#231F20">SALES</tspan>
      </text>
      <text transform="matrix(1.25, 0, 0, 1.25, 629.714, 684.002)" id="MENS">
        <tspan x="-14.355" y="-0.392" font-family="MyriadPro-Bold" font-size="11" fill="#231F20">MENS</tspan>
      </text>
      <text transform="matrix(1.25, 0, 0, 1.25, 182.009, 958.135)" id="EXEC_OFFICE">
        <tspan x="-12.518" y="-7" font-family="MyriadPro-Bold" font-size="11" fill="#231F20">EXEC</tspan>
        <tspan x="-17.517" y="6" font-family="MyriadPro-Bold" font-size="11" fill="#231F20">OFFICE</tspan>
      </text>
      <text transform="matrix(1.25, 0, 0, 1.25, 632.394, 770.563)" id="WOMENS">
        <tspan x="-23.139" y="-0.392" font-family="MyriadPro-Bold" font-size="11" fill="#231F20">WOMENS</tspan>
      </text>
      <text transform="matrix(1.25, 0, 0, 1.25, 734.389, 969.349)" id="PURCHASING">
        <tspan x="-32.939" y="-0.392" font-family="MyriadPro-Bold" font-size="11" fill="#231F20">PURCHASING</tspan>
      </text>
      <text transform="matrix(1.25, 0, 0, 1.25, 641.727, 965.132)" id="OFFICE_MGR">
        <tspan x="-17.517" y="-4.5" font-family="MyriadPro-Bold" font-size="11" fill="#231F20">OFFICE</tspan>
        <tspan x="-25.459" y="8.5" font-family="MyriadPro-Bold" font-size="11" fill="#231F20">MANAGER</tspan>
      </text>
      <text transform="matrix(0, -1.25, 1.25, 0, 530.658, 694.702)" id="UTILITIES">
        <tspan x="-23.199" y="-0.392" font-family="MyriadPro-Bold" font-size="11" fill="#231F20">UTILITIES</tspan>
      </text>
      <text transform="matrix(1.25, 0, 0, 1.25, 425.05, 700.464)" id="SERVER_MDF">
        <tspan x="-18.832" y="-7" font-family="MyriadPro-Bold" font-size="11" fill="#231F20">SERVER</tspan>
        <tspan x="-11.011" y="6" font-family="MyriadPro-Bold" font-size="11" fill="#231F20">NOC</tspan>
      </text>
      <text transform="matrix(1.25, 0, 0, 1.25, 601.115, 832.285)" id="STORAGE">
        <tspan x="-23.237" y="-0.392" font-family="MyriadPro-Bold" font-size="11" fill="#231F20">STORAGE</tspan>
      </text>
      <text transform="matrix(0, -1.25, 1.25, 0, 489.257, 694.511)" id="ELECTRICAL">
        <tspan x="-29.623" y="-0.392" font-family="MyriadPro-Bold" font-size="11" fill="#231F20">ELECTRICAL</tspan>
      </text>
      <text transform="matrix(1.25, 0, 0, 1.25, 820.502, 969.349)" id="RECEPT">
        <tspan x="-18.618" y="-0.392" font-family="MyriadPro-Bold" font-size="11" fill="#231F20">RECEPT</tspan>
      </text>
      <text transform="matrix(1.25, 0, 0, 1.25, 692.162, 834.59)" id="OFFICE_SUPPLY">
        <tspan x="-17.517" y="-7" font-family="MyriadPro-Bold" font-size="11" fill="#231F20">OFFICE</tspan>
        <tspan x="-18.744" y="6" font-family="MyriadPro-Bold" font-size="11" fill="#231F20">SUPPLY</tspan>
      </text>
      <text transform="matrix(1.25, 0, 0, 1.25, 907.082, 945.234)" id="MAIN">
        <tspan x="-16.483" y="1" font-family="MyriadPro-Bold" font-size="11" fill="#231F20">MAIN</tspan>
      </text>
      <text transform="matrix(1.25, 0, 0, 1.25, 732.389, 734.337)" id="AREA">
        <tspan x="-16.257" y="1" font-family="MyriadPro-Bold" font-size="11" fill="#231F20">AREA</tspan>
      </text>
      <text transform="matrix(1.25, 0, 0, 1.25, 734.389, 720.496)" id="SHELTER">
        <tspan x="-25.34" y="1" font-family="MyriadPro-Bold" font-size="11" fill="#231F20">SHELTER</tspan>
      </text>
      <g id="exits">
        <text transform="matrix(1.25, 0, 0, 1.25, 907.082, 964.614)" id="EXIT">
          <tspan x="-13.291" y="1" font-family="MyriadPro-Bold" font-size="11" fill="#231F20">EXIT</tspan>
        </text>
        <text transform="matrix(1.25, 0, 0, 1.25, 1065.374, 729.284)" id="EXIT">
          <tspan x="-13.291" y="1" font-family="MyriadPro-Bold" font-size="11" fill="#231F20">EXIT</tspan>
        </text>
        <text transform="matrix(1.25, 0, 0, 1.25, 1015.437, 563.134)" id="EXIT">
          <tspan x="-13.291" y="1" font-family="MyriadPro-Bold" font-size="11" fill="#231F20">EXIT</tspan>
        </text>
        <text transform="matrix(1.25, 0, 0, 1.25, 160.667, 602.479)" id="EXIT">
          <tspan x="-13.291" y="1" font-family="MyriadPro-Bold" font-size="11" fill="#231F20">EXIT</tspan>
        </text>
        <text transform="matrix(1.25, 0, 0, 1.25, 157.24, 110.062)" id="EXIT">
          <tspan x="-13.291" y="1" font-family="MyriadPro-Bold" font-size="11" fill="#231F20">EXIT</tspan>
        </text>
      </g>
    </g>
    <g id="displays">
      <path d="M204.802,587.348 L208.019,598.518 L219.636,598.125 L210.006,604.636 L213.97,615.563 L204.802,608.417 L195.635,615.563 L199.598,604.636 L189.969,598.125 L201.586,598.518 z" fill="#D9272E"/>
      <path d="M839.428,875.687 L842.644,886.857 L854.262,886.465 L844.632,892.975 L848.595,903.903 L839.428,896.756 L830.26,903.903 L834.224,892.975 L824.594,886.465 L836.212,886.857 z" fill="#D9272E"/>
      <path d="M451.262,608.694 L454.478,619.864 L466.096,619.472 L456.466,625.982 L460.429,636.91 L451.262,629.763 L442.094,636.91 L446.057,625.982 L436.428,619.472 L448.046,619.864 z" fill="#D9272E"/>
    </g>
    <g id="nav">
      <g id="path562">
        <path d="M685.798,280.18 C719.382,280.18 749.092,297.06 766.903,322.778 L795.591,311.415 L801.513,326.374 L785.414,346.36 C783.936,348.185 782.338,350.058 780.681,351.922 C781.213,353.794 781.682,355.69 782.104,357.608 C785.566,356.084 789.157,354.599 792.944,353.1 L809.499,346.543 L814.159,358.305 L784.026,370.239 C784.269,373.057 784.399,375.903 784.399,378.782 C784.399,433.152 740.168,477.385 685.798,477.385 C631.431,477.385 587.197,433.152 587.197,378.782 C587.197,324.414 631.431,280.18 685.798,280.18 z M685.798,283.538 C633.281,283.538 590.553,326.264 590.553,378.782 C590.553,431.302 633.281,474.028 685.798,474.028 C738.317,474.028 781.044,431.302 781.044,378.782 C781.044,376.343 780.952,373.923 780.768,371.528 L757.519,380.737 L752.197,367.295 L769.249,346.54 C770.576,344.927 771.992,343.244 773.459,341.545 C772.502,339.299 771.459,337.102 770.339,334.949 C767.268,336.215 764.057,337.514 760.668,338.858 L743.608,345.613 L738.949,333.848 L763.701,324.045 C746.447,299.563 717.961,283.538 685.798,283.538 z M778.004,354.878 C775.263,357.834 772.419,360.708 769.664,363.29 L769.766,363.545 C772.748,361.955 775.811,360.462 778.974,359.012 C778.681,357.622 778.359,356.245 778.004,354.878 z M785.173,328.567 C781.447,330.242 777.571,331.924 773.449,333.652 C774.316,335.327 775.133,337.032 775.903,338.757 C778.982,335.298 782.214,331.85 785.358,328.787 L785.173,328.567 z" clip-path="url(#Clip_1)" filter="url(#Shadow_2)" fill="rgba(0,0,0,0.75)"/>
        <path d="M781.044,378.782 C781.044,431.302 738.317,474.028 685.798,474.028 C633.281,474.028 590.553,431.302 590.553,378.782 C590.553,326.264 633.281,283.538 685.798,283.538 C717.961,283.538 746.447,299.563 763.701,324.046 L738.949,333.848 L743.608,345.613 L760.668,338.858 C764.057,337.514 767.268,336.215 770.339,334.949 C771.459,337.102 772.502,339.299 773.459,341.546 C771.992,343.244 770.576,344.927 769.249,346.54 L752.197,367.296 L757.519,380.737 L780.768,371.528 C780.952,373.923 781.044,376.343 781.044,378.782 M785.173,328.567 L785.358,328.787 C782.214,331.85 778.982,335.298 775.903,338.757 C775.133,337.032 774.316,335.327 773.449,333.652 C777.571,331.924 781.447,330.242 785.173,328.567 M778.974,359.012 C775.811,360.462 772.748,361.955 769.766,363.546 L769.664,363.29 C772.419,360.708 775.263,357.834 778.004,354.878 C778.359,356.245 778.681,357.622 778.974,359.012 M809.499,346.543 L792.944,353.1 C789.157,354.599 785.566,356.084 782.104,357.608 C781.682,355.69 781.213,353.794 780.681,351.922 C782.338,350.058 783.936,348.185 785.414,346.361 L801.513,326.374 L795.591,311.415 L766.903,322.778 C749.092,297.06 719.382,280.18 685.798,280.18 C631.431,280.18 587.197,324.414 587.197,378.782 C587.197,433.152 631.431,477.385 685.798,477.385 C740.168,477.385 784.399,433.152 784.399,378.782 C784.399,375.903 784.269,373.057 784.026,370.239 L814.159,358.305 L809.499,346.543 z" fill="#FFFFFF"/>
      </g>
      <g id="path566">
        <path d="M685.798,280.18 C719.382,280.18 749.092,297.06 766.903,322.778 L795.591,311.415 L801.513,326.374 L785.414,346.36 C783.936,348.185 782.338,350.058 780.681,351.922 C781.213,353.794 781.682,355.69 782.104,357.608 C785.566,356.084 789.157,354.599 792.944,353.1 L809.499,346.543 L814.159,358.305 L784.026,370.239 C784.269,373.057 784.399,375.903 784.399,378.782 C784.399,433.152 740.168,477.385 685.798,477.385 C631.431,477.385 587.197,433.152 587.197,378.782 C587.197,324.414 631.431,280.18 685.798,280.18 z M685.798,283.538 C633.281,283.538 590.553,326.264 590.553,378.782 C590.553,431.302 633.281,474.028 685.798,474.028 C738.317,474.028 781.044,431.302 781.044,378.782 C781.044,376.343 780.952,373.923 780.768,371.528 L757.519,380.737 L752.197,367.295 L769.249,346.54 C770.576,344.927 771.992,343.244 773.459,341.545 C772.502,339.299 771.459,337.102 770.339,334.949 C767.268,336.215 764.057,337.514 760.668,338.858 L743.608,345.613 L738.949,333.848 L763.701,324.045 C746.447,299.563 717.961,283.538 685.798,283.538 z M778.004,354.878 C775.263,357.834 772.419,360.708 769.664,363.29 L769.766,363.545 C772.748,361.955 775.811,360.462 778.974,359.012 C778.681,357.622 778.359,356.245 778.004,354.878 z M785.173,328.567 C781.447,330.242 777.571,331.924 773.449,333.652 C774.316,335.327 775.133,337.032 775.903,338.757 C778.982,335.298 782.214,331.85 785.358,328.787 L785.173,328.567 z" clip-path="url(#Clip_3)" filter="url(#Shadow_4)" fill="rgba(0,0,0,0.75)"/>
        <path d="M781.044,378.782 C781.044,431.302 738.317,474.028 685.798,474.028 C633.281,474.028 590.553,431.302 590.553,378.782 C590.553,326.264 633.281,283.538 685.798,283.538 C717.961,283.538 746.447,299.563 763.701,324.046 L738.949,333.848 L743.608,345.613 L760.668,338.858 C764.057,337.514 767.268,336.215 770.339,334.949 C771.459,337.102 772.502,339.299 773.459,341.546 C771.992,343.244 770.576,344.927 769.249,346.54 L752.197,367.296 L757.519,380.737 L780.768,371.528 C780.952,373.923 781.044,376.343 781.044,378.782 z M785.173,328.567 L785.358,328.787 C782.214,331.85 778.982,335.298 775.903,338.757 C775.133,337.032 774.316,335.327 773.449,333.652 C777.571,331.924 781.447,330.242 785.173,328.567 z M778.974,359.012 C775.811,360.462 772.748,361.955 769.766,363.546 L769.664,363.29 C772.419,360.708 775.263,357.834 778.004,354.878 C778.359,356.245 778.681,357.622 778.974,359.012 z M809.499,346.543 L792.944,353.1 C789.157,354.599 785.566,356.084 782.104,357.608 C781.682,355.69 781.213,353.794 780.681,351.922 C782.338,350.058 783.936,348.185 785.414,346.361 L801.513,326.374 L795.591,311.415 L766.903,322.778 C749.092,297.06 719.382,280.18 685.798,280.18 C631.431,280.18 587.197,324.414 587.197,378.782 C587.197,433.152 631.431,477.385 685.798,477.385 C740.168,477.385 784.399,433.152 784.399,378.782 C784.399,375.903 784.269,373.057 784.026,370.239 L814.159,358.305 L809.499,346.543 z" fill="#FFFFFF"/>
      </g>
      <g id="path570">
        <path d="M872.949,304.883 L821.564,360.315 L799.609,304.883 L872.949,304.883 z" clip-path="url(#Clip_5)" filter="url(#Shadow_6)" fill="rgba(0,0,0,0.75)"/>
        <path d="M799.609,304.883 L821.564,360.315 L872.949,304.883 L799.609,304.883 z" fill="#FFFFFF"/>
      </g>
      <g id="path574">
        <path d="M872.949,304.883 L821.564,360.315 L799.609,304.883 L872.949,304.883 z" clip-path="url(#Clip_7)" filter="url(#Shadow_8)" fill="rgba(0,0,0,0.75)"/>
        <path d="M799.609,304.883 L821.564,360.315 L872.949,304.883 L799.609,304.883 z" fill="#FFFFFF"/>
      </g>
      <g id="KEY-STAR">
        <path d="M627.891,87.317 C629.067,86.23 629.2,85.067 628.669,83.46 L621.054,62.464 L639.731,49.836 C640.998,48.922 641.845,47.574 641.344,46.083 C640.785,44.422 639.361,44.051 637.948,44.029 L615.313,44.795 L609.045,23.026 C608.6,21.856 607.536,20.467 606.024,20.467 C604.367,20.467 603.319,22.021 602.901,23.38 L596.735,44.794 L573.65,44.014 C572.227,44.14 571.035,44.801 570.627,46.184 C570.187,47.68 571.127,48.928 572.312,49.831 L590.995,62.463 L583.351,83.537 C582.795,85.067 582.928,86.709 584.259,87.654 C585.446,88.495 586.854,88.16 588.019,87.419 L606.025,73.383 L624.11,87.481 C625.22,88.214 626.567,88.54 627.891,87.317 z" fill="#FFFFFF"/>
        <g>
          <text transform="matrix(1, 0, 0, 1, 606.749, 97.954)">
            <tspan x="-30.195" y="1.5" font-family="Arial-BoldMT" font-size="11" fill="#FFFFFF">DISPLAY</tspan>
          </text>
          <text transform="matrix(1, 0, 0, 1, 606.872, 113.954)">
            <tspan x="-36.532" y="1.5" font-family="Arial-BoldMT" font-size="11" fill="#FFFFFF">LOCATION</tspan>
          </text>
        </g>
        <path d="M606.024,23.376 L613.077,47.872 L638.554,47.011 L617.436,61.288 L626.128,85.252 L606.024,69.58 L585.919,85.252 L594.611,61.288 L573.494,47.011 L598.971,47.872 z" fill="#D9272E"/>
      </g>
      <g id="KEY-OFFICE">
        <g>
          <path d="M694.235,27.223 C718.56,27.223 738.279,46.943 738.279,71.267 C738.279,95.592 718.56,115.311 694.235,115.311 C669.911,115.311 650.191,95.592 650.191,71.267 C650.191,46.943 669.911,27.223 694.235,27.223 z" clip-path="url(#Clip_9)" filter="url(#Shadow_10)" fill="rgba(0,0,0,0.75)"/>
          <path d="M736.279,71.267 C736.279,94.488 717.456,113.311 694.235,113.311 C671.015,113.311 652.191,94.488 652.191,71.267 C652.191,48.047 671.015,29.223 694.235,29.223 C717.456,29.223 736.279,48.047 736.279,71.267 z" fill="#D0C7AF"/>
          <path d="M736.279,71.267 C736.279,94.488 717.456,113.311 694.235,113.311 C671.015,113.311 652.191,94.488 652.191,71.267 C652.191,48.047 671.015,29.223 694.235,29.223 C717.456,29.223 736.279,48.047 736.279,71.267 z" fill-opacity="0" stroke="#FFFFFF" stroke-width="4" stroke-miterlimit="10"/>
        </g>
        <text transform="matrix(1, 0, 0, 1, 693.106, 71.715)">
          <tspan x="-29.332" y="3.5" font-family="Arial-BoldMT" font-size="16" fill="#005BAA">OFFICE</tspan>
        </text>
      </g>
      <g id="KEY-STORAGE">
        <g>
          <path d="M791.716,27.222 C816.042,27.222 835.761,46.942 835.761,71.267 C835.761,95.593 816.042,115.312 791.716,115.312 C767.391,115.312 747.671,95.593 747.671,71.267 C747.671,46.942 767.391,27.222 791.716,27.222 z" clip-path="url(#Clip_11)" filter="url(#Shadow_12)" fill="rgba(0,0,0,0.75)"/>
          <path d="M833.761,71.267 C833.761,94.488 814.937,113.312 791.716,113.312 C768.496,113.312 749.671,94.488 749.671,71.267 C749.671,48.047 768.496,29.222 791.716,29.222 C814.937,29.222 833.761,48.047 833.761,71.267 z" fill="#C0BDBD"/>
          <path d="M833.761,71.267 C833.761,94.488 814.937,113.312 791.716,113.312 C768.496,113.312 749.671,94.488 749.671,71.267 C749.671,48.047 768.496,29.222 791.716,29.222 C814.937,29.222 833.761,48.047 833.761,71.267 z" fill-opacity="0" stroke="#FFFFFF" stroke-width="4" stroke-miterlimit="10"/>
        </g>
        <text transform="matrix(1, 0, 0, 1, 791.376, 72.715)">
          <tspan x="-39.414" y="3.5" font-family="Arial-BoldMT" font-size="16" fill="#005BAA">STORAGE</tspan>
        </text>
      </g>
      <g id="KEY-OCCUPIED">
        <g>
          <path d="M888.841,27.222 C913.166,27.222 932.885,46.942 932.885,71.267 C932.885,95.593 913.166,115.312 888.841,115.312 C864.515,115.312 844.796,95.593 844.795,71.267 C844.796,46.942 864.515,27.222 888.841,27.222 z" clip-path="url(#Clip_13)" filter="url(#Shadow_14)" fill="rgba(0,0,0,0.75)"/>
          <path d="M930.885,71.267 C930.885,94.488 912.061,113.312 888.841,113.312 C865.62,113.312 846.796,94.488 846.796,71.267 C846.796,48.047 865.62,29.222 888.841,29.222 C912.061,29.222 930.885,48.047 930.885,71.267 z" fill="#F96262"/>
          <path d="M930.885,71.267 C930.885,94.488 912.061,113.312 888.841,113.312 C865.62,113.312 846.796,94.488 846.796,71.267 C846.796,48.047 865.62,29.222 888.841,29.222 C912.061,29.222 930.885,48.047 930.885,71.267 z" fill-opacity="0" stroke="#FFFFFF" stroke-width="4" stroke-miterlimit="10"/>
        </g>
        <text transform="matrix(1, 0, 0, 1, 888.5, 73.267)" id="OCCUPIED">
          <tspan x="-36.948" y="4.5" font-family="Arial-BoldMT" font-size="14" fill="#005BAA">OCCUPIED</tspan>
        </text>
      </g>
      <g id="KEY-AVAILABLE">
        <g>
          <path d="M985.914,27.222 C1010.24,27.222 1029.959,46.942 1029.959,71.267 C1029.959,95.593 1010.24,115.312 985.914,115.312 C961.589,115.312 941.87,95.593 941.87,71.267 C941.87,46.942 961.589,27.222 985.914,27.222 z" clip-path="url(#Clip_15)" filter="url(#Shadow_16)" fill="rgba(0,0,0,0.75)"/>
          <path d="M1027.959,71.267 C1027.959,94.488 1009.135,113.312 985.914,113.312 C962.694,113.312 943.87,94.488 943.87,71.267 C943.87,48.047 962.694,29.222 985.914,29.222 C1009.135,29.222 1027.959,48.047 1027.959,71.267 z" fill="#31EC6E"/>
          <path d="M1027.959,71.267 C1027.959,94.488 1009.135,113.312 985.914,113.312 C962.694,113.312 943.87,94.488 943.87,71.267 C943.87,48.047 962.694,29.222 985.914,29.222 C1009.135,29.222 1027.959,48.047 1027.959,71.267 z" fill-opacity="0" stroke="#FFFFFF" stroke-width="4" stroke-miterlimit="10"/>
        </g>
        <text transform="matrix(1, 0, 0, 1, 985.574, 70.715)">
          <tspan x="-39.016" y="4.5" font-family="Arial-BoldMT" font-size="14" fill="#005BAA">AVAILABLE</tspan>
        </text>
      </g>
    </g>
    <g id="MAN-ICON">
      <path d="M594.534,670.32 C595.691,670.32 596.638,669.522 596.638,668.528 C596.638,667.54 595.691,666.735 594.534,666.735 C593.374,666.735 592.43,667.54 592.43,668.528 C592.427,669.522 593.371,670.32 594.534,670.32" fill="#000000"/>
      <path d="M591.674,687.728 C591.674,688.283 592.205,688.735 592.856,688.735 C593.508,688.735 594.039,688.283 594.039,687.728 L594.039,679.286 L595.03,679.286 L595.03,687.728 C595.03,688.283 595.555,688.735 596.206,688.735 C596.858,688.735 597.388,688.283 597.388,687.728 L597.398,673.174 L598.377,673.174 L598.377,678.538 C598.377,679.621 600.03,679.621 600.023,678.538 L600.023,673.055 C600.023,671.867 598.939,670.702 597.303,670.702 L591.712,670.694 C590.221,670.694 589.023,671.737 589.023,673.023 L589.023,678.538 C589.023,679.608 590.682,679.608 590.682,678.538 L590.682,673.174 L591.683,673.174 L591.674,687.728 z" fill="#000000"/>
    </g>
    <g id="WOMAN-ICON">
      <path d="M595.166,758.005 C596.4,758.005 597.285,759.04 597.471,759.603 L598.984,764.668 C599.284,765.755 597.92,766.207 597.601,765.148 L596.238,760.5 L595.453,760.5 L597.734,768.761 L595.562,768.761 L595.562,775.208 C595.562,776.308 593.938,776.303 593.938,775.208 L593.938,768.721 L593.117,768.721 L593.117,775.195 C593.117,776.308 591.484,776.308 591.484,775.195 L591.484,768.761 L589.307,768.761 L591.562,760.5 L590.815,760.5 L589.456,765.161 C589.132,766.174 587.757,765.76 588.074,764.668 L589.581,759.603 C589.743,759.026 590.461,758.005 591.702,758.005 L595.166,758.005 z" fill="#000000"/>
      <path d="M593.529,757.623 C594.497,757.623 595.289,756.818 595.289,755.83 C595.289,754.836 594.497,754.031 593.529,754.031 C592.551,754.031 591.769,754.836 591.769,755.83 C591.769,756.818 592.548,757.623 593.529,757.623" fill="#000000"/>
    </g>
    <g id="KITCHEN-ICON">
      <path d="M653.581,564.164 C653.581,564.88 653.018,565.641 652.286,565.641 L652.286,577.7 C652.286,579.409 650.261,579.409 650.261,577.7 L650.261,565.641 C649.549,565.641 648.928,565.008 648.928,564.057 L648.928,557.422 C648.928,556.844 649.653,556.819 649.653,557.443 L649.653,562.35 L650.259,562.35 L650.958,562.35 L650.903,562.35 L650.903,557.406 C650.903,556.852 651.581,556.83 651.581,557.427 L651.581,562.35 L652.876,562.35 L652.876,557.406 C652.876,556.86 653.582,556.839 653.582,557.427 L653.582,564.164 z" fill="#000000"/>
      <path d="M659.928,558.963 L659.928,577.691 C659.928,579.364 657.898,579.34 657.898,577.691 L657.898,570.263 L656.817,570.263 L656.817,558.963 C656.817,556.336 659.928,556.336 659.928,558.963" fill="#000000"/>
    </g>
  </g>
</svg>
