<?xml version="1.0" encoding="UTF-8"?>
<!DOCTYPE svg PUBLIC "-//W3C//DTD SVG 1.1//EN" "http://www.w3.org/Graphics/SVG/1.1/DTD/svg11.dtd">
<svg version="1.1" xmlns="http://www.w3.org/2000/svg" xmlns:xlink="http://www.w3.org/1999/xlink" x="0" y="0" width="1200" height="1014" viewBox="0, 0, 1200, 1014">
  <g id="zones" transform="translate(0, 0)">
    <g id="nontrack">
      <path d="M1042.449,719.596 L1042.449,520.516 L784.907,520.516 L784.969,526.338 L537.244,526.338 L537.244,14.896 L143.57,14.896 L143.57,1002.672 L539.729,1002.672 L862.512,1003 L862.512,987.091 L862.537,987.17 L862.537,911.203 L873.107,911.203 L873.107,988.256 L951.9,988.1 L951.9,911.046 L962.347,911.046 L962.347,987.014 L962.424,987.014 L962.424,1002.921 L1184.5,1002.921 L1184.5,719.596 L1042.449,719.596 z" fill="#FFFFFF" id="zone"/>
      <g id="path1562">
        <path d="M126.751,617.387 L12.599,617.387 L12.599,586.524 L126.751,586.524 L126.751,617.387 z" fill="#D3D3D3"/>
        <path d="M126.751,617.387 L12.599,617.387 L12.599,586.524 L126.751,586.524 L126.751,617.387 z" fill-opacity="0" stroke="#000000" stroke-width="1.039" stroke-miterlimit="10"/>
      </g>
      <g id="path990">
        <path d="M127.449,299.21 L12.844,299.21 L12.844,375.573 L127.449,375.573 L127.449,299.21 z" fill="#D3D3D3"/>
        <path d="M127.449,299.21 L12.844,299.21 L12.844,375.573 L127.449,375.573 L127.449,299.21 z" fill-opacity="0" stroke="#000000" stroke-width="1.039" stroke-miterlimit="10"/>
      </g>
      <g id="path992">
        <path d="M67.462,125.892 L14.033,125.892 L14.033,95.147 L67.462,95.147 L67.462,125.892 z" fill="#D3D3D3"/>
        <path d="M67.462,125.892 L14.033,125.892 L14.033,95.147 L67.462,95.147 L67.462,125.892 z" fill-opacity="0" stroke="#000000" stroke-width="1.039" stroke-miterlimit="10"/>
      </g>
      <path d="M138.337,11.722 L138.337,376.573 L166.635,376.573 L166.635,375.234 L178.15,375.234 L178.15,376.468 L271.25,376.468 L271.25,262.836 L532.553,262.836 L532.553,11.722 L138.337,11.722 z" fill="#C0BDBD" id="W401"/>
      <path d="M650.393,864.847 L551.469,864.847 L551.469,804.304 L650.393,804.304 L650.393,864.847 z" fill="#C0BDBD" id="R117"/>
      <path d="M729.633,865.013 L653.538,865.013 L653.538,804.471 L729.633,804.471 L729.633,865.013 z" fill="#C0BDBD" id="R116"/>
      <path d="M535.125,523.488 L535.125,264.322 L274.125,264.322 L273.594,378.304 L257.18,378.162 L257.18,448.312 L366.189,583.524 L614.658,583.524 L614.658,523.488 L535.125,523.488 z" fill="#D0C7AF" id="E201"/>
      <path d="M232.399,908.47 L232.399,913.336 L229.669,913.336 L229.669,938.66 L232.861,938.66 L232.861,1000.581 L308.806,1000.581 L308.806,908.47 L232.399,908.47 z" fill="#D0C7AF" id="R107b"/>
      <path d="M230.617,1000.986 L138.337,1000.986 L138.337,858.772 L230.617,858.772 L230.617,1000.986 z" fill="#D0C7AF" id="R107a"/>
      <path d="M1030.289,1000.584 L956.324,1000.584 L956.324,908.431 L1030.289,908.431 L1030.289,1000.584 z" fill="#D0C7AF" id="C101b"/>
    </g>
    <g id="other">
      <path d="M465.557,740.189 L384.802,740.189 L384.992,649.18 L465.747,649.18 L465.557,740.189 z" fill="#D0C7AF" id="SERVER_NOC"/>
      <path d="M506.635,740.189 L468.502,740.189 L468.693,649.18 L506.825,649.18 L506.635,740.189 z" fill="#F0D148" id="ELECTRICAL"/>
      <path d="M550.463,740.189 L510.662,740.189 L510.853,649.18 L550.653,649.18 L550.463,740.189 z" fill="#F0D148" id="UTILITIES"/>
      <path d="M258.234,850.314 L138.429,850.314 L138.429,622.279 L258.234,622.279 L258.234,850.314 z" fill="#F0D148" id="MECHANICAL"/>
      <g id="WOMENS">
        <path d="M688.971,769.073 L689.145,735.589 L552.144,735.589 L551.969,801.157 L729.707,801.157 L729.707,769.073 L688.971,769.073 z" fill="#F3FFAD"/>
        <path d="M688.971,769.073 L689.145,735.589 L552.144,735.589 L551.969,801.157 L729.707,801.157 L729.707,769.073 L688.971,769.073 z" fill-opacity="0" stroke="#000000" stroke-width="1"/>
      </g>
      <g id="MENS">
        <path d="M690.772,681.814 L690.772,714.275 L552.946,714.275 L552.946,649.727 L731.509,649.727 L731.509,681.814 L690.772,681.814 z" fill="#F3FFAD"/>
        <path d="M690.772,681.814 L690.772,714.275 L552.946,714.275 L552.946,649.727 L731.509,649.727 L731.509,681.814 L690.772,681.814 z" fill-opacity="0" stroke="#000000" stroke-width="1"/>
      </g>
      <path d="M770.063,606.905 L616.159,606.905 L616.159,525.84 L770.063,525.84 L770.063,606.905 z" fill="#D0C7AF" id="KITCHEN"/>
      <path d="M255.692,524.411 L210.291,466.741 L210.291,381.702 L137.493,381.702 L137.493,572.243 L255.692,572.243 L255.692,524.411 z" fill="#D0C7AF" id="RECEIVING"/>
    </g>
    <path d="M12.165,8.733 L12.165,1001.5" fill-opacity="0" stroke="#282828" stroke-width="5"/>
    <g id="g690">
      <path d="M770.123,771.946 L745.86,747.683 L734.855,747.683 L770.123,782.952 L770.123,771.946 z" fill="#D82C2C" id="path698"/>
      <path d="M707.485,700.41 L756.283,651.609 L750.781,646.109 L696.479,700.41 L707.485,700.41 z" fill="#D82C2C" id="path702"/>
      <path d="M725.719,700.41 L770.122,656.004 L770.122,647.214 L769.016,646.109 L714.714,700.41 L725.719,700.41 z" fill="#D82C2C" id="path706"/>
      <path d="M753.089,747.683 L770.123,764.717 L770.123,753.711 L764.096,747.683 L753.089,747.683 z" fill="#D82C2C" id="path710"/>
      <path d="M762.188,700.41 L770.123,692.475 L770.123,681.468 L751.182,700.41 L762.188,700.41 z" fill="#D82C2C" id="path714"/>
      <path d="M743.954,700.41 L770.124,674.239 L770.124,663.235 L732.949,700.41 L743.954,700.41 z" fill="#D82C2C" id="path718"/>
      <path d="M698.387,747.683 L750.78,800.078 L756.282,794.576 L709.391,747.683 L698.387,747.683 z" fill="#D82C2C" id="path722"/>
      <path d="M678.244,745.776 L678.244,745.774 L678.243,745.776 L678.244,745.776 z" fill="#D82C2C" id="path726"/>
      <path d="M770.123,790.181 L727.626,747.683 L716.621,747.683 L769.014,800.078 L770.123,798.97 L770.123,790.181 z" fill="#D82C2C" id="path730"/>
      <path d="M680.152,747.683 L732.545,800.078 L738.049,794.576 L691.156,747.683 L680.152,747.683 z" fill="#D82C2C" id="path734"/>
      <path d="M738.05,651.609 L732.547,646.109 L678.244,700.41 L689.25,700.41 L738.05,651.609 z" fill="#D82C2C" id="path738"/>
      <path d="M1075.111,690.698 L1061.801,677.388 L1048.49,690.698 L1055.841,690.698 L1055.841,706.638 L1067.76,706.638 L1067.76,690.698 L1075.111,690.698 z" fill="#D82C2C" id="path742"/>
      <path d="M882.337,999.341 L895.647,1012.651 L908.959,999.341 L901.607,999.341 L901.607,983.401 L889.689,983.401 L889.689,999.341 L882.337,999.341 z" fill="#D82C2C" id="path746"/>
      <path d="M882.337,916.856 L895.647,930.166 L908.959,916.856 L901.607,916.856 L901.607,900.916 L889.689,900.916 L889.689,916.856 L882.337,916.856 z" fill="#D82C2C" id="path750"/>
      <path d="M1071.322,574.429 L1084.632,561.119 L1071.322,547.81 L1071.322,555.159 L1055.382,555.159 L1055.382,567.078 L1071.322,567.078 L1071.322,574.429 z" fill="#D82C2C" id="path754"/>
    </g>
    <path d="M45.008,123.361 L31.698,110.053 L45.008,96.742 L45.008,104.093 L60.949,104.093 L60.949,116.012 L45.008,116.012 L45.008,123.361 z" fill="#D82C2C" id="path770"/>
    <path d="M87.146,615.183 L73.836,601.875 L87.146,588.564 L87.146,595.915 L103.087,595.915 L103.087,607.834 L87.146,607.834 L87.146,615.183 z" fill="#D82C2C" id="path770"/>
  </g>
</svg>
