<?xml version="1.0" encoding="UTF-8"?>
<!DOCTYPE svg PUBLIC "-//W3C//DTD SVG 1.1//EN" "http://www.w3.org/Graphics/SVG/1.1/DTD/svg11.dtd">
<svg version="1.1" xmlns="http://www.w3.org/2000/svg" xmlns:xlink="http://www.w3.org/1999/xlink" x="0" y="0" width="1200" height="1014" viewBox="0, 0, 1200, 1014">
  <g id="workspaces" transform="translate(0, 0)">
    <path d="M465.557,740.189 L384.802,740.189 L384.992,649.18 L465.747,649.18 L465.557,740.189 z" fill="#D0C7AF" id="SERVER_NOC"/>
    <path d="M506.635,740.189 L468.502,740.189 L468.693,649.18 L506.825,649.18 L506.635,740.189 z" fill="#F0D148" id="ELECTRICAL"/>
    <path d="M550.463,740.189 L510.662,740.189 L510.853,649.18 L550.653,649.18 L550.463,740.189 z" fill="#F0D148" id="UTILITIES"/>
    <path d="M547.957,865.188 L455.997,865.188 L455.997,744.179 L547.957,744.179 L547.957,865.188 z" fill="#E8C4DD" id="R100"/>
    <path d="M650.393,864.861 L551.469,864.861 L551.469,804.319 L650.393,804.319 L650.393,864.861 z" fill="#C0BDBD" id="R117"/>
    <g id="WOMENS">
      <path d="M688.971,769.073 L689.145,735.589 L552.144,735.589 L551.969,801.157 L729.707,801.157 L729.707,769.073 L688.971,769.073 z" fill="#F3FFAD"/>
      <path d="M688.971,769.073 L689.145,735.589 L552.144,735.589 L551.969,801.157 L729.707,801.157 L729.707,769.073 L688.971,769.073 z" fill-opacity="0" stroke="#000000" stroke-width="1"/>
    </g>
    <g id="MENS">
      <path d="M690.772,681.814 L690.772,714.275 L552.946,714.275 L552.946,649.727 L731.509,649.727 L731.509,681.814 L690.772,681.814 z" fill="#F3FFAD"/>
      <path d="M690.772,681.814 L690.772,714.275 L552.946,714.275 L552.946,649.727 L731.509,649.727 L731.509,681.814 L690.772,681.814 z" fill-opacity="0" stroke="#000000" stroke-width="1"/>
    </g>
    <path d="M729.633,865.027 L653.538,865.027 L653.538,804.485 L729.633,804.485 L729.633,865.027 z" fill="#C0BDBD" id="R116"/>
    <path d="M402.733,1001.211 L311.54,1001.211 L311.54,909.485 L402.733,909.485 L402.733,1001.211 z" fill="#ADDCDA" id="R108"/>
    <path d="M497.275,1001.228 L405.926,1001.228 L405.926,909.484 L497.275,909.484 L497.275,1001.228 z" fill="#D0C7AF" id="R109"/>
    <path d="M591.548,1001.228 L500.584,1001.228 L500.584,909.484 L591.548,909.484 L591.548,1001.228 z" fill="#ADDCDA" id="R110"/>
    <path d="M685.68,1000.891 L595.055,1000.891 L595.055,909.485 L685.68,909.485 L685.68,1000.891 z" fill="#D0C7AF" id="R111"/>
    <path d="M780.801,999.545 L688.822,999.545 L688.822,907.819 L780.801,907.819 L780.801,999.545 z" fill="#D0C7AF" id="R112"/>
    <path d="M857.273,1002 L783.504,1002 L783.504,909.436 L857.273,909.436 L857.273,1002 z" fill="#D0C7AF" id="R113"/>
    <path d="M770.063,606.905 L616.159,606.905 L616.159,525.84 L770.063,525.84 L770.063,606.905 z" fill="#D0C7AF" id="KITCHEN"/>
    <path d="M1030.289,1001.599 L956.324,1001.599 L956.324,909.445 L1030.289,909.445 L1030.289,1001.599 z" fill="#D0C7AF" id="C101b"/>
    <path d="M1178.5,905.571 L1088.336,905.571 L1088.336,813.562 L1178.5,813.562 L1178.5,905.571 z" fill="#D0C7AF" id="R114"/>
    <path d="M1178.5,811.169 L1088.336,811.169 L1088.336,718.121 L1178.5,718.121 L1178.5,811.169 z" fill="#D0C7AF" id="R115"/>
    <path d="M230.617,1001 L138.337,1001 L138.337,858.786 L230.617,858.786 L230.617,1001 z" fill="#D0C7AF" id="R107"/>
    <path d="M232.399,908.485 L232.399,913.351 L229.669,913.351 L229.669,938.675 L232.861,938.675 L232.861,1000.596 L308.806,1000.596 L308.806,908.485 L232.399,908.485 z" fill="#D0C7AF" id="R107b"/>
    <path d="M255.692,523.425 L210.29,465.755 L210.29,380.716 L137.493,380.716 L137.493,571.257 L255.692,571.257 L255.692,523.425 z" fill="#D0C7AF" id="W402"/>
    <path d="M138.337,12.736 L138.337,377.588 L166.634,377.588 L166.634,376.249 L178.149,376.249 L178.149,377.483 L271.249,377.483 L271.249,263.85 L532.553,263.85 L532.553,12.736 L138.337,12.736 z" fill="#C0BDBD" id="W401"/>
    <path d="M535.125,524.503 L535.125,265.336 L274.125,265.336 L273.594,379.319 L257.18,379.176 L257.18,449.326 L366.189,584.539 L614.658,584.539 L614.658,524.503 L535.125,524.503 z" fill="#D0C7AF" id="E201"/>
    <path d="M381.746,864.188 L305.801,864.188 L305.801,795.145 L381.746,795.145 L381.746,864.188 z" fill="#D0C7AF" id="H104"/>
    <path d="M453.934,865.449 L385.015,865.449 L385.236,744.338 L454.154,744.338 L453.934,865.449 z" fill="#D0C7AF" id="C103"/>
    <path d="M381.516,792.267 L305.8,792.267 L305.8,721.924 L381.516,721.924 L381.516,792.267 z" fill="#D0C7AF" id="H105"/>
    <path d="M381.516,718.711 L305.571,718.711 L305.571,648.365 L381.516,648.365 L381.516,718.711 z" fill="#D0C7AF" id="H106"/>
    <path d="M1033.432,910.19 L1033.432,915.264 L1030.289,915.264 L1030.289,938.498 L1033.432,938.498 L1033.432,1001.506 L1178.014,1001.506 L1178.014,910.19 L1033.432,910.19 z" fill="#D0C7AF" id="C101"/>
    <path d="M1035.859,519.854 L777.109,519.854 L777.109,693.278 L1035.859,693.278 L1035.859,519.854 z" fill="#D0C7AF" id="C102b"/>
    <path d="M1036.616,692.082 L777.108,692.082 L777.108,861.801 L1036.616,861.801 L1036.616,692.082 z" fill="#D0C7AF" id="C102a"/>
    <path d="M258.234,850.314 L138.429,850.314 L138.429,622.279 L258.234,622.279 L258.234,850.314 z" fill="#F0D148" id="MECHANICAL"/>
  </g>
</svg>
