<?xml version="1.0" encoding="UTF-8"?>
<!DOCTYPE svg PUBLIC "-//W3C//DTD SVG 1.1//EN" "http://www.w3.org/Graphics/SVG/1.1/DTD/svg11.dtd">
<svg version="1.1" xmlns="http://www.w3.org/2000/svg" xmlns:xlink="http://www.w3.org/1999/xlink" x="0" y="0" width="1304.273" height="841.328" viewBox="0, 0, 1304.273, 841.328">
  <g id="wsclick" transform="translate(0, 0)">
    <path d="M815.435,488.107 L813.958,474.37 L812.042,460.494 L806.948,446.576 L800.78,433.696 L792.558,421.502 L782.401,410.458 L771.367,399.746 L759.851,391.406 L726.73,444.035 L672.334,444.035 L672.334,582.584 L816.195,582.584 L816.195,489.157 z" fill="#FFFFFF" fill-opacity="0.001" id="1-200_Task_Force_Room"/>
    <path d="M1210.597,279.134 L1210.597,302.163 L1157.764,302.163 L1157.764,365.975 L1146.1,365.975 L1146.1,401.398 L1246.896,401.398 L1246.896,381.838 L1246.896,365.975 L1246.896,327.264 L1246.896,302.163 L1246.896,279.134 z" fill="#FFFFFF" fill-opacity="0.001" id="2-315_Conference_Room"/>
    <path d="M1094.279,158.768 L1061.34,158.768 L1061.34,158.534 L1043.508,158.534 L1043.508,149.481 L987.351,149.481 L987.351,158.534 L977.058,158.534 L977.058,250.42 L977.058,264.64 L1039.864,264.64 L1039.864,250.42 L1061.34,250.42 L1061.34,201.254 L1094.279,201.254 z" fill="#FFFFFF" fill-opacity="0.001" id="3-306_Conference_Room"/>
    <path d="M1106.375,205.315 L1164.224,205.315 L1164.224,276.789 L1106.375,276.789 L1106.375,205.315 z" fill="#FFFFFF" fill-opacity="0.001" id="4-314_Huddle_Room"/>
    <path d="M724.309,264.64 L796.174,287.632 L798.549,292.632 L800.174,299.007 L801.049,306.132 L800.924,312.007 L799.424,319.132 L797.049,325.507 L793.049,332.507 L787.344,338.908 L779.049,344.632 L772.799,347.507 L762.049,349.734 L746.924,349.734 L701.424,335.106 L724.309,264.64 z" fill="#FFFFFF" fill-opacity="0.001" id="5-205_Huddle_Room"/>
  </g>
</svg>
