<?xml version="1.0" encoding="UTF-8"?>
<!DOCTYPE svg PUBLIC "-//W3C//DTD SVG 1.1//EN" "http://www.w3.org/Graphics/SVG/1.1/DTD/svg11.dtd">
<svg version="1.1" xmlns="http://www.w3.org/2000/svg" xmlns:xlink="http://www.w3.org/1999/xlink" x="0" y="0" width="1304.273" height="841.328" viewBox="0, 0, 1304.273, 841.328">
  <g id="zones" transform="translate(0, 0)">
    <path d="M1303,0.672 L13.52,0.672 L5.622,0.672 L5.622,8.571 L5.622,730.904 L7.11,730.904 L13.52,730.904 L377.093,730.904 L380.056,730.904 L1191.261,730.904 L1191.261,834.459 L1191.261,840 L1196.801,840 L1303,840 z" fill="#FFFFFF"/>
    <path d="M154.913,634.071 L154.913,678.009 L72.322,678.009 L72.322,582.584 L51.949,582.584 L51.949,606.506 L10.217,606.506 L10.217,722.365 L68.769,722.365 L68.769,728.919 L612.567,728.919 L612.567,707.126 L612.567,678.009 L612.567,634.071 z" fill="#E8C4DD"/>
    <path d="M908.358,457.922 L1151.347,457.922 L1151.347,582.375 L908.358,582.375 z" fill="#E8C4DD"/>
    <path d="M857.485,404.204 L908.357,404.204 L908.357,582.375 L857.485,582.375 z" fill="#C0BDBD"/>
    <path d="M577.268,389.975 L577.268,375.86 L107.346,375.86 L107.346,553.623 L148.619,553.623 L148.619,582.069 L670.795,582.069 L670.795,457.922 L670.795,444.336 L670.795,389.975 z" fill="#E8C4DD"/>
    <path d="M1248.896,511.206 L1213.823,510.911 L1213.823,401.398 L1248.896,401.692 z" fill="#C0BDBD"/>
    <path d="M1234.863,168.861 L1234.863,146.073 L1096.502,146.073 L1096.502,202.581 L1164.224,202.581 L1164.224,276.789 L1153.266,276.789 L1153.266,273.765 L1103.208,273.765 L1103.208,204.474 L1063.52,204.474 L1063.52,276.368 L1060.993,276.368 L1060.993,253.21 L1041.305,253.21 L1041.305,263.654 L976.401,263.654 L976.401,147.588 L866.298,147.588 L866.298,15.412 L172.918,15.412 L172.918,374.564 L272.578,374.564 L272.578,374.392 L282.7,374.392 L282.7,402.496 L307.447,402.496 L307.447,372.831 L576.761,372.831 L576.761,387.749 L672.678,387.749 L672.678,440.881 L672.678,443.486 L727.992,443.486 L762.729,388.288 L763.857,386.18 L762.717,385.791 L760.833,387.303 L701.648,367.321 L711.158,335.586 L702.692,332.884 L724.291,265.605 C724.291,265.605 763.754,279.347 799.509,291.677 C799.485,291.604 799.459,291.53 799.435,291.458 C799.285,291.401 800.758,291.935 800.874,291.968 C800.895,291.974 800.915,291.997 800.937,292.008 C803.922,293.129 856.181,310.801 856.181,310.801 L854.562,318.117 L849.574,319.059 L850.551,325.73 C850.551,325.73 865.273,324.406 869.746,324.708 C877.925,324.67 890.649,330.234 894.322,332.643 C905.894,340.228 904.1,340.643 915.486,351.807 C930.196,366.233 948.972,370.695 961.786,369.218 C969.157,368.369 978.481,365.931 987.108,361.907 L1049.837,361.907 C1050.54,362.283 1050.931,362.5 1050.931,362.5 L1153.267,362.5 L1153.267,301.562 L1205.664,301.562 L1205.664,299.032 L1207.803,299.032 L1207.803,211.917 L1241.77,211.917 L1241.77,168.858 L1234.863,168.858 z" fill="#9BDAED"/>
    <g>
      <path d="M610.297,688.758 L662.732,688.758 L662.732,718.377 L610.297,718.377 z" fill="#C0BDBD"/>
      <path d="M732.19,635.067 L1019.753,635.067 L1019.753,720.234 L732.19,720.234 z" fill="#C0BDBD"/>
      <path d="M1303,6.993 L866.783,6.993 L866.783,8.045 L174.623,8.045 L174.623,7.76 L8.273,7.76 L8.273,8.045 L8.023,8.045 L8.023,14.224 L8.273,14.224 L8.273,371.565 L8.273,373.539 L8.273,603.732 L51.949,603.732 L51.949,582.584 L70.683,582.584 L70.683,341.497 L75.35,341.497 L131.196,249.006 L173.676,249.006 L173.956,290.524 L143.189,291.113 L116.217,336.984 L116.031,373.539 L174.623,373.539 L174.623,14.224 L866.783,14.224 L866.783,145.897 L1096.311,145.897 L1096.311,203.054 L1165.644,203.054 L1165.644,274.812 L1247.817,274.812 L1247.817,203.054 L1248.896,203.054 L1248.896,260.523 L1248.896,275.858 L1248.896,462.832 L1245.672,723.797 L1245.672,750.742 L1276.516,781.585 L1303,781.585 z" fill="#C0BDBD"/>
      <path d="M1046.238,147.079 L1094.271,147.079 L1094.271,156.475 L1046.238,156.475 z" fill="#C0BDBD"/>
    </g>
  </g>
</svg>
