<?xml version="1.0" encoding="UTF-8"?>
<!DOCTYPE svg PUBLIC "-//W3C//DTD SVG 1.1//EN" "http://www.w3.org/Graphics/SVG/1.1/DTD/svg11.dtd">
<svg version="1.1" xmlns="http://www.w3.org/2000/svg" xmlns:xlink="http://www.w3.org/1999/xlink" x="0" y="0" width="1770" height="1000" viewBox="0, 0, 1770, 1000">
  <g id="text_names" transform="translate(0, 0)">
    <g>
      <text transform="matrix(1, 0, 0, 1, 1260.135, 355.112)">
        <tspan x="-13.603" y="6" font-family="Helvetica" font-size="17.46" fill="#000000">0 E</tspan>
      </text>
      <text transform="matrix(1, 0, 0, 1, 1256.558, 376.064)">
        <tspan x="-10.21" y="6" font-family="Helvetica" font-size="17.46" fill="#000000">13 </tspan>
      </text>
    </g>
    <g>
      <text transform="matrix(1, 0, 0, 1, 1261.262, 410.705)">
        <tspan x="-13.603" y="6" font-family="Helvetica" font-size="17.46" fill="#000000">0 E</tspan>
      </text>
      <text transform="matrix(1, 0, 0, 1, 1257.685, 431.657)">
        <tspan x="-10.21" y="6" font-family="Helvetica" font-size="17.46" fill="#000000">14 </tspan>
      </text>
    </g>
    <g>
      <text transform="matrix(1, 0, 0, 1, 1261.262, 459.279)">
        <tspan x="-13.603" y="6" font-family="Helvetica" font-size="17.46" fill="#000000">0 E</tspan>
      </text>
      <text transform="matrix(1, 0, 0, 1, 1257.685, 480.23)">
        <tspan x="-10.21" y="6" font-family="Helvetica" font-size="17.46" fill="#000000">15 </tspan>
      </text>
    </g>
    <g>
      <text transform="matrix(1, 0, 0, 1, 1259.292, 508.147)">
        <tspan x="-13.603" y="6" font-family="Helvetica" font-size="17.46" fill="#000000">0 E</tspan>
      </text>
      <text transform="matrix(1, 0, 0, 1, 1255.714, 529.098)">
        <tspan x="-10.21" y="6" font-family="Helvetica" font-size="17.46" fill="#000000">16 </tspan>
      </text>
    </g>
    <g>
      <text transform="matrix(1, 0, 0, 1, 1260.649, 557.014)">
        <tspan x="-13.603" y="6" font-family="Helvetica" font-size="17.46" fill="#000000">0 E</tspan>
      </text>
      <text transform="matrix(1, 0, 0, 1, 1257.072, 577.965)">
        <tspan x="-10.21" y="6" font-family="Helvetica" font-size="17.46" fill="#000000">17 </tspan>
      </text>
    </g>
    <g>
      <text transform="matrix(1, 0, 0, 1, 659.458, 554.154)">
        <tspan x="-13.603" y="6" font-family="Helvetica" font-size="17.46" fill="#000000">0 E</tspan>
      </text>
      <text transform="matrix(1, 0, 0, 1, 655.882, 575.105)">
        <tspan x="-10.21" y="6" font-family="Helvetica" font-size="17.46" fill="#000000">01 </tspan>
      </text>
    </g>
    <g>
      <text transform="matrix(1, 0, 0, 1, 659.458, 508.147)">
        <tspan x="-13.603" y="6" font-family="Helvetica" font-size="17.46" fill="#000000">0 E</tspan>
      </text>
      <text transform="matrix(1, 0, 0, 1, 655.882, 529.098)">
        <tspan x="-10.21" y="6" font-family="Helvetica" font-size="17.46" fill="#000000">02 </tspan>
      </text>
    </g>
    <g>
      <text transform="matrix(1, 0, 0, 1, 659.458, 459.279)">
        <tspan x="-13.603" y="6" font-family="Helvetica" font-size="17.46" fill="#000000">0 E</tspan>
      </text>
      <text transform="matrix(1, 0, 0, 1, 655.882, 480.23)">
        <tspan x="-10.21" y="6" font-family="Helvetica" font-size="17.46" fill="#000000">03 </tspan>
      </text>
    </g>
    <g>
      <text transform="matrix(1, 0, 0, 1, 659.458, 403.368)">
        <tspan x="-13.603" y="6" font-family="Helvetica" font-size="17.46" fill="#000000">0 E</tspan>
      </text>
      <text transform="matrix(1, 0, 0, 1, 655.882, 424.32)">
        <tspan x="-10.21" y="6" font-family="Helvetica" font-size="17.46" fill="#000000">04 </tspan>
      </text>
    </g>
    <g>
      <text transform="matrix(1, 0, 0, 1, 660.187, 346.598)">
        <tspan x="-13.603" y="6" font-family="Helvetica" font-size="17.46" fill="#000000">0 E</tspan>
      </text>
      <text transform="matrix(1, 0, 0, 1, 656.611, 367.55)">
        <tspan x="-10.21" y="6" font-family="Helvetica" font-size="17.46" fill="#000000">05 </tspan>
      </text>
    </g>
    <g>
      <text transform="matrix(1, 0, 0, 1, 757.155, 360.17)">
        <tspan x="-13.603" y="6" font-family="Helvetica" font-size="17.46" fill="#000000">0 E</tspan>
      </text>
      <text transform="matrix(1, 0, 0, 1, 755.429, 381.122)">
        <tspan x="-10.21" y="6" font-family="Helvetica" font-size="17.46" fill="#000000">07</tspan>
      </text>
    </g>
    <g>
      <text transform="matrix(1, 0, 0, 1, 812.01, 359.262)">
        <tspan x="-13.603" y="6" font-family="Helvetica" font-size="17.46" fill="#000000">0 E</tspan>
      </text>
      <text transform="matrix(1, 0, 0, 1, 808.434, 380.214)">
        <tspan x="-10.21" y="6" font-family="Helvetica" font-size="17.46" fill="#000000">08 </tspan>
      </text>
    </g>
    <g>
      <text transform="matrix(1, 0, 0, 1, 870.363, 357.78)">
        <tspan x="-13.603" y="6" font-family="Helvetica" font-size="17.46" fill="#000000">0 E</tspan>
      </text>
      <text transform="matrix(1, 0, 0, 1, 866.787, 378.732)">
        <tspan x="-10.21" y="6" font-family="Helvetica" font-size="17.46" fill="#000000">09 </tspan>
      </text>
    </g>
    <g>
      <text transform="matrix(1, 0, 0, 1, 930.427, 360.171)">
        <tspan x="-13.603" y="6" font-family="Helvetica" font-size="17.46" fill="#000000">0 E</tspan>
      </text>
      <text transform="matrix(1, 0, 0, 1, 926.851, 381.123)">
        <tspan x="-10.21" y="6" font-family="Helvetica" font-size="17.46" fill="#000000">10 </tspan>
      </text>
    </g>
    <g>
      <text transform="matrix(1, 0, 0, 1, 984.181, 357.78)">
        <tspan x="-13.603" y="6" font-family="Helvetica" font-size="17.46" fill="#000000">0 E</tspan>
      </text>
      <text transform="matrix(1, 0, 0, 1, 979.961, 378.732)">
        <tspan x="-9.567" y="6" font-family="Helvetica" font-size="17.46" fill="#000000">11 </tspan>
      </text>
    </g>
    <g>
      <text transform="matrix(1, 0, 0, 1, 1041.048, 357.78)">
        <tspan x="-13.603" y="6" font-family="Helvetica" font-size="17.46" fill="#000000">0 E</tspan>
      </text>
      <text transform="matrix(1, 0, 0, 1, 1037.472, 378.732)">
        <tspan x="-10.21" y="6" font-family="Helvetica" font-size="17.46" fill="#000000">12 </tspan>
      </text>
    </g>
    <g>
      <text transform="matrix(1, 0, 0, 1, 1126.407, 357.78)">
        <tspan x="-13.603" y="6" font-family="Helvetica" font-size="17.46" fill="#000000">0 E</tspan>
      </text>
      <text transform="matrix(1, 0, 0, 1, 1124.172, 378.732)">
        <tspan x="-39.81" y="6" font-family="Helvetica" font-size="17.46" fill="#000000">Neuchâtel </tspan>
      </text>
    </g>
    <g>
      <text transform="matrix(1, 0, 0, 1, 1146.807, 458.182)">
        <tspan x="-18.931" y="6" font-family="Helvetica" font-size="17.46" fill="#000000">VCR</tspan>
      </text>
      <text transform="matrix(1, 0, 0, 1, 1145.486, 479.134)">
        <tspan x="-13.603" y="6" font-family="Helvetica" font-size="17.46" fill="#000000">0 E</tspan>
      </text>
      <text transform="matrix(1, 0, 0, 1, 1144.494, 500.085)">
        <tspan x="-17.972" y="6" font-family="Helvetica" font-size="17.46" fill="#000000">Sion</tspan>
      </text>
    </g>
    <g>
      <text transform="matrix(1, 0, 0, 1, 780.742, 742.074)">
        <tspan x="-13.603" y="6" font-family="Helvetica" font-size="17.46" fill="#000000">0 E</tspan>
      </text>
      <text transform="matrix(1, 0, 0, 1, 777.375, 763.025)">
        <tspan x="-24.754" y="6" font-family="Helvetica" font-size="17.46" fill="#000000">Zürich </tspan>
      </text>
    </g>
    <g>
      <text transform="matrix(1, 0, 0, 1, 870.363, 743.218)">
        <tspan x="-13.603" y="6" font-family="Helvetica" font-size="17.46" fill="#000000">0 E</tspan>
      </text>
      <text transform="matrix(1, 0, 0, 1, 866.787, 764.169)">
        <tspan x="-10.21" y="6" font-family="Helvetica" font-size="17.46" fill="#000000">23 </tspan>
      </text>
    </g>
    <g>
      <text transform="matrix(1, 0, 0, 1, 984.181, 743.218)">
        <tspan x="-13.603" y="6" font-family="Helvetica" font-size="17.46" fill="#000000">0 E</tspan>
      </text>
      <text transform="matrix(1, 0, 0, 1, 980.605, 764.169)">
        <tspan x="-10.21" y="6" font-family="Helvetica" font-size="17.46" fill="#000000">21 </tspan>
      </text>
    </g>
    <g>
      <text transform="matrix(1, 0, 0, 1, 1037.813, 742.166)">
        <tspan x="-13.603" y="6" font-family="Helvetica" font-size="17.46" fill="#000000">0 E</tspan>
      </text>
      <text transform="matrix(1, 0, 0, 1, 1036.661, 763.117)">
        <tspan x="-12.636" y="6" font-family="Helvetica" font-size="17.46" fill="#000000"> 20</tspan>
      </text>
    </g>
    <g>
      <text transform="matrix(1, 0, 0, 1, 1124.65, 743.218)">
        <tspan x="-13.603" y="6" font-family="Helvetica" font-size="17.46" fill="#000000">0 E</tspan>
      </text>
      <text transform="matrix(1, 0, 0, 1, 1122.177, 764.169)">
        <tspan x="-24.285" y="6" font-family="Helvetica" font-size="17.46" fill="#000000">Vevey </tspan>
      </text>
    </g>
    <g>
      <text transform="matrix(1, 0, 0, 1, 1140.945, 671.944)">
        <tspan x="-13.603" y="6" font-family="Helvetica" font-size="17.46" fill="#000000">0 E</tspan>
      </text>
      <text transform="matrix(1, 0, 0, 1, 1137.368, 692.895)">
        <tspan x="-10.21" y="6" font-family="Helvetica" font-size="17.46" fill="#000000">19 </tspan>
      </text>
    </g>
    <g>
      <text transform="matrix(1, 0, 0, 1, 1141.114, 614.312)">
        <tspan x="-13.603" y="6" font-family="Helvetica" font-size="17.46" fill="#000000">0 E</tspan>
      </text>
      <text transform="matrix(1, 0, 0, 1, 1137.537, 635.263)">
        <tspan x="-10.21" y="6" font-family="Helvetica" font-size="17.46" fill="#000000">18 </tspan>
      </text>
    </g>
    <g>
      <text transform="matrix(1, 0, 0, 1, 930.427, 743.218)">
        <tspan x="-13.603" y="6" font-family="Helvetica" font-size="17.46" fill="#000000">0 E</tspan>
      </text>
      <text transform="matrix(1, 0, 0, 1, 926.851, 764.169)">
        <tspan x="-10.21" y="6" font-family="Helvetica" font-size="17.46" fill="#000000">22 </tspan>
      </text>
    </g>
    <g>
      <text transform="matrix(1, 0, 0, 1, 412.082, 493.245)">
        <tspan x="-13.984" y="6" font-family="Helvetica" font-size="17.966" fill="#000000">0 E</tspan>
      </text>
      <text transform="matrix(1, 0, 0, 1, 408.269, 514.805)">
        <tspan x="-34.946" y="6" font-family="Helvetica" font-size="17.966" fill="#000000">Martigny </tspan>
      </text>
    </g>
    <text transform="matrix(0, -1, 1, 0, 757.118, 663.054)">
      <tspan x="-37.946" y="6" font-family="Helvetica" font-size="17.966" fill="#000000">Elevators</tspan>
    </text>
    <text transform="matrix(1, 0, 0, 1, 759.526, 602.289)">
      <tspan x="-16.971" y="6" font-family="Helvetica" font-size="17.966" fill="#000000">Mail </tspan>
    </text>
    <text transform="matrix(1, 0, 0, 1, 866.746, 518.216)">
      <tspan x="-14.971" y="6" font-family="Helvetica" font-size="17.966" fill="#000000">IDF </tspan>
    </text>
    <text transform="matrix(1, 0, 0, 1, 957.276, 519.339)">
      <tspan x="-18.971" y="6" font-family="Helvetica" font-size="17.966" fill="#000000">Print </tspan>
    </text>
  </g>
</svg>
