<?xml version="1.0" encoding="UTF-8"?>
<!DOCTYPE svg PUBLIC "-//W3C//DTD SVG 1.1//EN" "http://www.w3.org/Graphics/SVG/1.1/DTD/svg11.dtd">
<svg version="1.1" xmlns="http://www.w3.org/2000/svg" xmlns:xlink="http://www.w3.org/1999/xlink" x="0" y="0" width="1770" height="1000" viewBox="0, 0, 1770, 1000">
  <g id="workspaces" transform="translate(0, 0)">
    <path d="M624.378,561.069 L625.476,561.069 L625.476,588.35 L688.581,588.35 L688.581,541.427 L624.378,541.427" fill="#F6EC13" id="1-Huddle_0E_01"/>
    <path d="M624.378,512.878 L625.48,512.878 L625.48,539.43 L688.581,539.43 L688.581,492.145 L624.741,492.145" fill="#F6EC13" id="2-Huddle_0E_02"/>
    <path d="M624.378,463.227 L625.661,463.227 L625.661,490.508 L688.581,490.508 L688.581,443.403 L624.741,442.541" fill="#F6EC13" id="3-Huddle_0E_03"/>
    <path d="M624.378,401.028 L625.659,401.028 L625.659,441.854 L688.581,441.854 L688.581,380.658 L624.661,380.658" fill="#F6EC13" id="4-Huddle_0E_04"/>
    <path d="M624.378,351.561 L625.473,351.561 L625.473,378.661 L688.581,378.661 L688.581,331.556 L624.378,331.556" fill="#F6EC13" id="5-Huddle_0E_05"/>
    <path d="M757.955,331.853 L727.482,331.853 L727.482,404.397 L780.871,404.397 L780.871,331.853 L778.573,331.853 L778.573,329.583 L757.955,329.583 z" fill="#F6EC13" id="6-Huddle_0E_07"/>
    <path d="M814.336,331.856 L783.166,331.856 L783.166,404.397 L837.777,404.397 L837.777,331.856 L835.426,331.856 L835.426,329.588 L814.336,329.588 z" fill="#F6EC13" id="7-Huddle_0E_08"/>
    <path d="M871.25,331.836 L840.078,331.836 L840.078,404.708 L894.69,404.708 L894.69,331.836 L892.339,331.836 L892.339,329.556 L871.25,329.556 z" fill="#F6EC13" id="8-Huddle_0E_09"/>
    <path d="M928.155,331.637 L896.982,331.637 L896.982,404.509 L951.595,404.509 L951.595,331.637 L949.244,331.637 L949.244,329.357 L928.155,329.357 z" fill="#F6EC13" id="9-Huddle_0E_10"/>
    <path d="M977.335,331.836 L1008.508,331.836 L1008.508,404.708 L953.895,404.708 L953.895,331.836 L956.246,331.836 L956.246,329.556 L977.335,329.556 z" fill="#F6EC13" id="10-Huddle_0E_11"/>
    <path d="M1010.722,404.283 L1065.412,404.283 L1065.412,331.85 L1063.115,331.85 L1063.115,329.583 L1042.385,329.583 L1042.385,331.85 L1010.722,331.85 z" fill="#F6EC13" id="11-Huddle_0E_12"/>
    <path d="M1179.231,404.283 L1179.231,331.849 L1090.708,331.849 L1090.708,329.583 L1067.715,329.583 L1067.715,404.283" fill="#F6EC13" id="12-Conf_0E_Neuchatel"/>
    <path d="M1226.694,332.221 L1226.651,392.99 L1289.305,392.989 L1289.305,351.794 L1290.482,351.657 L1290.482,331.97 z" fill="#F6EC13" id="13-Huddle_0E_13"/>
    <path d="M1226.651,395.302 L1226.651,441.769 L1289.208,441.769 L1289.208,415.58 L1290.406,415.58 L1290.406,395.302 z" fill="#F6EC13" id="14-Huddle_0E_14"/>
    <path d="M1226.651,444.159 L1226.649,490.74 L1289.189,490.74 L1289.189,464.184 L1290.406,464.184 L1290.406,444.159 z" fill="#F6EC13" id="15-Huddle_0E_15"/>
    <path d="M1226.651,493.124 L1226.649,539.706 L1289.189,539.706 L1289.189,513.149 L1290.406,513.149 L1290.406,493.124 z" fill="#F6EC13" id="16-Huddle_0E_16"/>
    <path d="M1226.651,541.823 L1226.649,588.772 L1289.189,588.772 L1289.189,562.007 L1290.406,562.007 L1290.406,541.823 z" fill="#F6EC13" id="17-Huddle_0E_17"/>
    <path d="M1179.232,595.805 L1104.023,595.805 L1104.023,652.075 L1178.188,652.075 L1179.232,652.075" fill="#F6EC13" id="18-Huddle_0E_18"/>
    <path d="M1103.954,654.37 L1179.231,654.37 L1179.231,708.981 L1103.954,708.981 z" fill="#F6EC13" id="19-Huddle_0E_19"/>
    <path d="M1067.67,711.284 L1067.67,784.864 L1069.878,784.864 L1069.967,787.157 L1090.722,787.157 L1090.7,784.872 L1179.182,784.864 L1179.182,711.284 z" fill="#F6EC13" id="20-Conf_0E_Vevey"/>
    <path d="M1010.602,711.284 L1010.602,780.261 L1010.602,784.96 L1024.961,784.864 L1042.457,784.864 L1042.457,787.157 L1063.302,787.157 L1063.302,784.864 L1065.625,784.864 L1065.625,711.284 z" fill="#F6EC13" id="21-Huddle_0E_20"/>
    <path d="M953.896,711.284 L953.896,784.864 L956.195,784.864 L956.195,787.157 L976.89,787.157 L976.89,784.864 L1008.508,784.864 L1008.508,711.284 z" fill="#F6EC13" id="22-Huddle_0E_21"/>
    <path d="M951.594,711.284 L896.984,711.284 L896.984,784.864 L928.602,784.864 L928.602,787.157 L949.296,787.157 L949.296,784.864 L951.594,784.864 z" fill="#F6EC13" id="23-Huddle_0E_22"/>
    <path d="M840.078,711.284 L840.078,780.261 L840.078,784.96 L854.33,784.864 L871.695,784.864 L871.695,787.157 L892.385,787.157 L892.385,784.864 L894.69,784.864 L894.69,711.284 z" fill="#F6EC13" id="24-Huddle_0E_23"/>
    <path d="M726.254,784.864 L810.185,784.864 L810.185,787.157 L830.882,787.157 L830.882,784.864 L837.777,784.626 L837.777,711.284 L726.254,711.284 z" fill="#F6EC13" id="25-Conf_0E_Zurich"/>
    <path d="M356.954,407.876 L357.256,591.032 L463.15,591.032 L463.15,413.94 L447.033,413.94 L446.489,407.876 z" fill="#F6EC13" id="26-Conf_0E_Martigny"/>
    <path d="M1180.681,405.879 L1105.472,405.879 L1105.472,557.688 L1179.637,557.688 L1180.681,557.688" fill="#F6EC13" id="27-VCR_0E_Sion"/>
  </g>
</svg>
