<?xml version="1.0" encoding="UTF-8"?>
<!DOCTYPE svg PUBLIC "-//W3C//DTD SVG 1.1//EN" "http://www.w3.org/Graphics/SVG/1.1/DTD/svg11.dtd">
<svg version="1.1" xmlns="http://www.w3.org/2000/svg" xmlns:xlink="http://www.w3.org/1999/xlink" x="0" y="0" width="1770" height="1000" viewBox="0, 0, 1770, 1000">
  <g id="text_names" transform="translate(0, 0)">
    <g>
      <text transform="matrix(1, 0, 0, 1, 756.862, 505.471)">
        <tspan x="-8.778" y="3.5" font-family="Helvetica" font-size="9.874" fill="#000000">0 W</tspan>
      </text>
      <text transform="matrix(1, 0, 0, 1, 755.207, 517.32)">
        <tspan x="-17.792" y="3.5" font-family="Helvetica" font-size="9.874" fill="#000000">Geneva </tspan>
      </text>
    </g>
    <text transform="matrix(1, 0, 0, 1, 579.184, 492.272)">
      <tspan x="-16.586" y="2.5" font-family="Helvetica" font-size="8.64" fill="#000000">Fribourg </tspan>
    </text>
    <g>
      <text transform="matrix(1, 0, 0, 1, 825.655, 637.122)">
        <tspan x="-8.183" y="3.5" font-family="Helvetica" font-size="9.874" fill="#000000">0 C</tspan>
      </text>
      <text transform="matrix(1, 0, 0, 1, 824.045, 648.972)">
        <tspan x="-18.067" y="3.5" font-family="Helvetica" font-size="9.874" fill="#000000">L’Atelier </tspan>
      </text>
    </g>
    <g>
      <text transform="matrix(1, 0, 0, 1, 1287.35, 637.845)">
        <tspan x="-8.183" y="3.5" font-family="Helvetica" font-size="9.874" fill="#000000">0 C</tspan>
      </text>
      <text transform="matrix(1, 0, 0, 1, 1287.033, 649.695)">
        <tspan x="-22.189" y="3.5" font-family="Helvetica" font-size="9.874" fill="#000000">Lausanne </tspan>
      </text>
    </g>
    <g>
      <text transform="matrix(1, 0, 0, 1, 747.62, 936.378)">
        <tspan x="-10.924" y="3.5" font-family="Helvetica" font-size="9.874" fill="#000000">VCR</tspan>
      </text>
      <text transform="matrix(1, 0, 0, 1, 746.491, 948.228)">
        <tspan x="-9.278" y="3.5" font-family="Helvetica" font-size="9.874" fill="#000000">0 W</tspan>
      </text>
      <text transform="matrix(1, 0, 0, 1, 745.348, 960.076)">
        <tspan x="-10.929" y="3.5" font-family="Helvetica" font-size="9.874" fill="#000000">Bern </tspan>
      </text>
    </g>
    <g>
      <text transform="matrix(1, 0, 0, 1, 945.769, 621.168)">
        <tspan x="-8.183" y="3.5" font-family="Helvetica" font-size="9.874" fill="#000000">0 C</tspan>
      </text>
      <text transform="matrix(1, 0, 0, 1, 943.908, 633.018)">
        <tspan x="-5.992" y="3.5" font-family="Helvetica" font-size="9.874" fill="#000000">09 </tspan>
      </text>
    </g>
    <g>
      <text transform="matrix(1, 0, 0, 1, 945.115, 662.118)">
        <tspan x="-8.183" y="3.5" font-family="Helvetica" font-size="9.874" fill="#000000">0 C</tspan>
      </text>
      <text transform="matrix(1, 0, 0, 1, 943.254, 673.968)">
        <tspan x="-5.992" y="3.5" font-family="Helvetica" font-size="9.874" fill="#000000">10 </tspan>
      </text>
    </g>
    <g>
      <text transform="matrix(1, 0, 0, 1, 945.537, 704.865)">
        <tspan x="-8.183" y="3.5" font-family="Helvetica" font-size="9.874" fill="#000000">0 C</tspan>
      </text>
      <text transform="matrix(1, 0, 0, 1, 943.313, 716.715)">
        <tspan x="-5.628" y="3.5" font-family="Helvetica" font-size="9.874" fill="#000000">11 </tspan>
      </text>
    </g>
    <g>
      <text transform="matrix(1, 0, 0, 1, 753.538, 610.376)">
        <tspan x="-9.278" y="3.5" font-family="Helvetica" font-size="9.874" fill="#000000">0 W</tspan>
      </text>
      <text transform="matrix(1, 0, 0, 1, 751.896, 622.226)">
        <tspan x="-5.992" y="3.5" font-family="Helvetica" font-size="9.874" fill="#000000">01 </tspan>
      </text>
    </g>
    <g>
      <text transform="matrix(1, 0, 0, 1, 753.303, 644.787)">
        <tspan x="-9.278" y="3.5" font-family="Helvetica" font-size="9.874" fill="#000000">0 W</tspan>
      </text>
      <text transform="matrix(1, 0, 0, 1, 751.661, 656.637)">
        <tspan x="-5.992" y="3.5" font-family="Helvetica" font-size="9.874" fill="#000000">02 </tspan>
      </text>
    </g>
    <g>
      <text transform="matrix(1, 0, 0, 1, 753.303, 680.384)">
        <tspan x="-9.278" y="3.5" font-family="Helvetica" font-size="9.874" fill="#000000">0 W</tspan>
      </text>
      <text transform="matrix(1, 0, 0, 1, 751.661, 692.234)">
        <tspan x="-5.992" y="3.5" font-family="Helvetica" font-size="9.874" fill="#000000">03 </tspan>
      </text>
    </g>
    <g>
      <text transform="matrix(1, 0, 0, 1, 753.303, 712.372)">
        <tspan x="-9.278" y="3.5" font-family="Helvetica" font-size="9.874" fill="#000000">0 W</tspan>
      </text>
      <text transform="matrix(1, 0, 0, 1, 751.661, 724.222)">
        <tspan x="-5.992" y="3.5" font-family="Helvetica" font-size="9.874" fill="#000000">04 </tspan>
      </text>
    </g>
    <g>
      <text transform="matrix(1, 0, 0, 1, 753.303, 746.06)">
        <tspan x="-9.278" y="3.5" font-family="Helvetica" font-size="9.874" fill="#000000">0 W</tspan>
      </text>
      <text transform="matrix(1, 0, 0, 1, 751.661, 757.91)">
        <tspan x="-5.992" y="3.5" font-family="Helvetica" font-size="9.874" fill="#000000">05 </tspan>
      </text>
    </g>
    <g>
      <text transform="matrix(1, 0, 0, 1, 753.538, 777.267)">
        <tspan x="-9.278" y="3.5" font-family="Helvetica" font-size="9.874" fill="#000000">0 W</tspan>
      </text>
      <text transform="matrix(1, 0, 0, 1, 751.896, 789.117)">
        <tspan x="-5.992" y="3.5" font-family="Helvetica" font-size="9.874" fill="#000000">06 </tspan>
      </text>
    </g>
    <g>
      <text transform="matrix(1, 0, 0, 1, 753.538, 811.336)">
        <tspan x="-9.278" y="3.5" font-family="Helvetica" font-size="9.874" fill="#000000">0 W</tspan>
      </text>
      <text transform="matrix(1, 0, 0, 1, 751.896, 823.186)">
        <tspan x="-5.992" y="3.5" font-family="Helvetica" font-size="9.874" fill="#000000">07 </tspan>
      </text>
    </g>
    <g>
      <text transform="matrix(1, 0, 0, 1, 753.538, 847.251)">
        <tspan x="-9.278" y="3.5" font-family="Helvetica" font-size="9.874" fill="#000000">0 W</tspan>
      </text>
      <text transform="matrix(1, 0, 0, 1, 751.896, 859.101)">
        <tspan x="-5.992" y="3.5" font-family="Helvetica" font-size="9.874" fill="#000000">08 </tspan>
      </text>
    </g>
    <g>
      <text transform="matrix(1, 0, 0, 1, 753.538, 884.61)">
        <tspan x="-9.278" y="3.5" font-family="Helvetica" font-size="9.874" fill="#000000">0 W</tspan>
      </text>
      <text transform="matrix(1, 0, 0, 1, 751.896, 896.46)">
        <tspan x="-5.992" y="3.5" font-family="Helvetica" font-size="9.874" fill="#000000">09 </tspan>
      </text>
    </g>
    <g>
      <text transform="matrix(1, 0, 0, 1, 480.813, 896.541)">
        <tspan x="-9.278" y="3.5" font-family="Helvetica" font-size="9.874" fill="#000000">0 W</tspan>
      </text>
      <text transform="matrix(1, 0, 0, 1, 479.173, 908.391)">
        <tspan x="-5.992" y="3.5" font-family="Helvetica" font-size="9.874" fill="#000000">10 </tspan>
      </text>
    </g>
    <g>
      <text transform="matrix(1, 0, 0, 1, 524.01, 895.721)">
        <tspan x="-9.278" y="3.5" font-family="Helvetica" font-size="9.874" fill="#000000">0 W</tspan>
      </text>
      <text transform="matrix(1, 0, 0, 1, 522.004, 907.571)">
        <tspan x="-5.628" y="3.5" font-family="Helvetica" font-size="9.874" fill="#000000">11 </tspan>
      </text>
    </g>
    <g>
      <text transform="matrix(1, 0, 0, 1, 584.038, 723.284)">
        <tspan x="-8.778" y="3.5" font-family="Helvetica" font-size="9.874" fill="#000000">0 W</tspan>
      </text>
      <text transform="matrix(1, 0, 0, 1, 583.606, 735.506)">
        <tspan x="-5.992" y="3.5" font-family="Helvetica" font-size="9.874" fill="#000000">12 </tspan>
      </text>
    </g>
    <g>
      <text transform="matrix(1, 0, 0, 1, 585.248, 695.973)">
        <tspan x="-9.278" y="3.5" font-family="Helvetica" font-size="9.874" fill="#000000">0 W</tspan>
      </text>
      <text transform="matrix(1, 0, 0, 1, 583.607, 707.823)">
        <tspan x="-5.992" y="3.5" font-family="Helvetica" font-size="9.874" fill="#000000">13 </tspan>
      </text>
    </g>
    <g>
      <text transform="matrix(1, 0, 0, 1, 586.154, 668.683)">
        <tspan x="-9.278" y="3.5" font-family="Helvetica" font-size="9.874" fill="#000000">0 W</tspan>
      </text>
      <text transform="matrix(1, 0, 0, 1, 584.512, 680.533)">
        <tspan x="-5.992" y="3.5" font-family="Helvetica" font-size="9.874" fill="#000000">14 </tspan>
      </text>
    </g>
    <g>
      <text transform="matrix(1, 0, 0, 1, 586.154, 641.805)">
        <tspan x="-9.278" y="3.5" font-family="Helvetica" font-size="9.874" fill="#000000">0 W</tspan>
      </text>
      <text transform="matrix(1, 0, 0, 1, 584.512, 653.654)">
        <tspan x="-5.992" y="3.5" font-family="Helvetica" font-size="9.874" fill="#000000">15 </tspan>
      </text>
    </g>
    <g>
      <text transform="matrix(1, 0, 0, 1, 945.115, 750.992)">
        <tspan x="-8.183" y="3.5" font-family="Helvetica" font-size="9.874" fill="#000000">0 C</tspan>
      </text>
      <text transform="matrix(1, 0, 0, 1, 943.254, 762.842)">
        <tspan x="-5.992" y="3.5" font-family="Helvetica" font-size="9.874" fill="#000000">12 </tspan>
      </text>
    </g>
    <g>
      <text transform="matrix(1, 0, 0, 1, 580.6, 532.108)">
        <tspan x="-9.278" y="3.5" font-family="Helvetica" font-size="9.874" fill="#000000">0 W</tspan>
      </text>
      <text transform="matrix(1, 0, 0, 1, 578.958, 543.958)">
        <tspan x="-5.992" y="3.5" font-family="Helvetica" font-size="9.874" fill="#000000">18 </tspan>
      </text>
    </g>
    <g>
      <text transform="matrix(1, 0, 0, 1, 621.692, 532.456)">
        <tspan x="-9.278" y="3.5" font-family="Helvetica" font-size="9.874" fill="#000000">0 W</tspan>
      </text>
      <text transform="matrix(1, 0, 0, 1, 621.097, 544.306)">
        <tspan x="-5.992" y="3.5" font-family="Helvetica" font-size="9.874" fill="#000000">17</tspan>
      </text>
    </g>
    <g>
      <text transform="matrix(1, 0, 0, 1, 654.022, 532.108)">
        <tspan x="-9.278" y="3.5" font-family="Helvetica" font-size="9.874" fill="#000000">0 W</tspan>
      </text>
      <text transform="matrix(1, 0, 0, 1, 652.38, 543.958)">
        <tspan x="-5.992" y="3.5" font-family="Helvetica" font-size="9.874" fill="#000000">16 </tspan>
      </text>
    </g>
    <g>
      <text transform="matrix(1, 0, 0, 1, 623.8, 362.572)">
        <tspan x="-9.278" y="3.5" font-family="Helvetica" font-size="9.874" fill="#000000">0 W</tspan>
      </text>
      <text transform="matrix(1, 0, 0, 1, 622.158, 374.421)">
        <tspan x="-5.992" y="3.5" font-family="Helvetica" font-size="9.874" fill="#000000">19 </tspan>
      </text>
    </g>
    <g>
      <text transform="matrix(1, 0, 0, 1, 655.892, 362.572)">
        <tspan x="-9.278" y="3.5" font-family="Helvetica" font-size="9.874" fill="#000000">0 W</tspan>
      </text>
      <text transform="matrix(1, 0, 0, 1, 654.25, 374.421)">
        <tspan x="-5.992" y="3.5" font-family="Helvetica" font-size="9.874" fill="#000000">20 </tspan>
      </text>
    </g>
    <g>
      <text transform="matrix(1, 0, 0, 1, 722.026, 396.209)">
        <tspan x="-9.278" y="3.5" font-family="Helvetica" font-size="9.874" fill="#000000">0 W</tspan>
      </text>
      <text transform="matrix(1, 0, 0, 1, 720.384, 408.058)">
        <tspan x="-5.992" y="3.5" font-family="Helvetica" font-size="9.874" fill="#000000">21 </tspan>
      </text>
    </g>
    <g>
      <text transform="matrix(1, 0, 0, 1, 743.43, 396.209)">
        <tspan x="-9.278" y="3.5" font-family="Helvetica" font-size="9.874" fill="#000000">0 W</tspan>
      </text>
      <text transform="matrix(1, 0, 0, 1, 741.788, 408.058)">
        <tspan x="-5.992" y="3.5" font-family="Helvetica" font-size="9.874" fill="#000000">22 </tspan>
      </text>
    </g>
    <g>
      <text transform="matrix(1, 0, 0, 1, 765.64, 396.209)">
        <tspan x="-9.278" y="3.5" font-family="Helvetica" font-size="9.874" fill="#000000">0 W</tspan>
      </text>
      <text transform="matrix(1, 0, 0, 1, 763.998, 408.058)">
        <tspan x="-5.992" y="3.5" font-family="Helvetica" font-size="9.874" fill="#000000">23 </tspan>
      </text>
    </g>
    <g>
      <text transform="matrix(1, 0, 0, 1, 786.229, 418.689)">
        <tspan x="-7.083" y="2" font-family="Helvetica" font-size="7.406" fill="#000000">0 W</tspan>
      </text>
      <text transform="matrix(1, 0, 0, 1, 784.998, 427.576)">
        <tspan x="-4.619" y="2" font-family="Helvetica" font-size="7.406" fill="#000000">24 </tspan>
      </text>
    </g>
    <g>
      <text transform="matrix(1, 0, 0, 1, 786.535, 442.929)">
        <tspan x="-7.083" y="2" font-family="Helvetica" font-size="7.406" fill="#000000">0 W</tspan>
      </text>
      <text transform="matrix(1, 0, 0, 1, 785.304, 451.816)">
        <tspan x="-4.619" y="2" font-family="Helvetica" font-size="7.406" fill="#000000">25 </tspan>
      </text>
    </g>
    <text transform="matrix(1, 0, 0, 1, 578.128, 477.076)">
      <tspan x="-9.278" y="3.5" font-family="Helvetica" font-size="9.874" fill="#000000">0 W</tspan>
    </text>
    <g>
      <text transform="matrix(1, 0, 0, 1, 1162.994, 621.197)">
        <tspan x="-4.342" y="1.5" font-family="Helvetica" font-size="4.937" fill="#000000">0 C</tspan>
      </text>
      <text transform="matrix(1, 0, 0, 1, 1162.588, 627.122)">
        <tspan x="-3.246" y="1.5" font-family="Helvetica" font-size="4.937" fill="#000000">07</tspan>
      </text>
    </g>
    <g>
      <text transform="matrix(1, 0, 0, 1, 1163.389, 609.131)">
        <tspan x="-4.503" y="1.5" font-family="Helvetica" font-size="4.937" fill="#000000">0 C</tspan>
      </text>
      <text transform="matrix(1, 0, 0, 1, 1162.424, 615.057)">
        <tspan x="-3.367" y="1.5" font-family="Helvetica" font-size="4.937" fill="#000000">08 </tspan>
      </text>
    </g>
    <g>
      <text transform="matrix(1, 0, 0, 1, 1213.565, 615.675)">
        <tspan x="-4.342" y="1.5" font-family="Helvetica" font-size="4.937" fill="#000000">0 C</tspan>
      </text>
      <text transform="matrix(1, 0, 0, 1, 1212.635, 621.6)">
        <tspan x="-3.246" y="1.5" font-family="Helvetica" font-size="4.937" fill="#000000">05 </tspan>
      </text>
    </g>
    <g>
      <text transform="matrix(1, 0, 0, 1, 1213.565, 637.27)">
        <tspan x="-4.342" y="1.5" font-family="Helvetica" font-size="4.937" fill="#000000">0 C</tspan>
      </text>
      <text transform="matrix(1, 0, 0, 1, 1213.158, 643.195)">
        <tspan x="-3.246" y="1.5" font-family="Helvetica" font-size="4.937" fill="#000000">06</tspan>
      </text>
    </g>
    <g>
      <text transform="matrix(1, 0, 0, 1, 1229.162, 359.486)">
        <tspan x="-8.183" y="3.5" font-family="Helvetica" font-size="9.874" fill="#000000">0 C</tspan>
      </text>
      <text transform="matrix(1, 0, 0, 1, 1227.301, 371.335)">
        <tspan x="-5.992" y="3.5" font-family="Helvetica" font-size="9.874" fill="#000000">01 </tspan>
      </text>
    </g>
    <g>
      <text transform="matrix(1, 0, 0, 1, 1228.453, 393.244)">
        <tspan x="-8.183" y="3.5" font-family="Helvetica" font-size="9.874" fill="#000000">0 C</tspan>
      </text>
      <text transform="matrix(1, 0, 0, 1, 1226.592, 405.093)">
        <tspan x="-5.992" y="3.5" font-family="Helvetica" font-size="9.874" fill="#000000">02 </tspan>
      </text>
    </g>
    <g>
      <text transform="matrix(1, 0, 0, 1, 1228.867, 427.808)">
        <tspan x="-8.183" y="3.5" font-family="Helvetica" font-size="9.874" fill="#000000">0 C</tspan>
      </text>
      <text transform="matrix(1, 0, 0, 1, 1227.005, 439.657)">
        <tspan x="-5.992" y="3.5" font-family="Helvetica" font-size="9.874" fill="#000000">03 </tspan>
      </text>
    </g>
    <path d="M867.205,514.773 C866.595,514.716 866.12,514.191 866.12,513.576 C866.12,512.914 866.66,512.373 867.322,512.373 C867.984,512.373 868.525,512.914 868.525,513.576 C868.525,513.779 868.468,513.984 868.374,514.159 L867.945,520.185 L863.535,520.188 L861.725,524.426 L859.349,523.495 L859.717,522.618 L861.047,523.097 L862.797,519.056 L866.9,519.084 L866.956,518.321 L863.987,518.321 L863.987,517.193 L867.069,517.193 L867.205,514.773 z" fill="#010101"/>
    <path d="M862.768,523.416 C863.513,524.89 865.07,525.858 866.734,525.858 C869.174,525.858 871.167,523.867 871.167,521.424 C871.167,519.712 870.128,518.117 868.577,517.411 L868.477,518.721 C869.395,519.299 869.958,520.341 869.958,521.435 C869.958,523.205 868.513,524.65 866.742,524.65 C865.122,524.65 863.74,523.406 863.552,521.812 L862.768,523.416 z" fill="#010101"/>
    <text transform="matrix(1, 0, 0, 1, 613.52, 427.898)">
      <tspan x="-26.438" y="5" font-family="Helvetica" font-size="14.812" fill="#000000">Storage</tspan>
    </text>
    <text transform="matrix(1, 0, 0, 1, 1102.947, 621.548)">
      <tspan x="-31.371" y="5" font-family="Helvetica" font-size="14.812" fill="#000000">Elevators</tspan>
    </text>
    <text transform="matrix(1, 0, 0, 1, 1127.779, 801.137)">
      <tspan x="-35.348" y="5" font-family="Helvetica" font-size="14.812" fill="#000000">Work Cafe</tspan>
    </text>
    <g>
      <path d="M823.925,526.552 C823.925,527.891 822.84,528.976 821.501,528.976 C820.163,528.976 819.077,527.891 819.077,526.552 C819.077,525.214 820.163,524.128 821.501,524.128 C822.84,524.128 823.925,525.214 823.925,526.552 z" fill="#010101"/>
      <path d="M821.165,544.343 L821.165,552.774 C821.152,554.305 818.873,554.305 818.853,552.774 L818.853,544.343 L815.87,544.343 L819.078,533.079 L818.555,533.079 L816.691,539.495 C816.219,540.914 814.301,540.339 814.751,538.823 L816.84,531.885 C817.08,531.09 818.084,529.683 819.824,529.648 L821.39,529.648 L823.18,529.648 C824.87,529.683 825.878,531.1 826.164,531.885 L828.253,538.823 C828.676,540.331 826.773,540.951 826.313,539.495 L824.448,533.079 L823.852,533.079 L827.134,544.343 L824.076,544.343 L824.076,552.774 C824.099,554.305 821.829,554.296 821.838,552.774 L821.838,544.343 L821.165,544.343 z" fill="#010101"/>
    </g>
    <g>
      <path d="M822.273,473.712 C822.273,474.974 821.251,475.996 819.989,475.996 C818.728,475.996 817.705,474.974 817.705,473.712 C817.705,472.451 818.728,471.428 819.989,471.428 C821.251,471.428 822.273,472.451 822.273,473.712 z" fill="#010101"/>
      <path d="M817.565,476.627 C815.808,476.627 814.683,478.148 814.683,479.65 L814.683,486.677 C814.667,488.052 816.644,488.052 816.651,486.677 L816.651,480.212 L817.143,480.212 L817.143,498.061 C817.112,499.926 819.746,499.873 819.744,498.061 L819.744,487.661 L820.164,487.661 L820.164,498.061 C820.199,499.873 822.847,499.926 822.835,498.061 L822.835,480.212 L823.327,480.212 L823.327,486.677 C823.304,488.061 825.271,488.061 825.295,486.677 L825.295,479.65 C825.267,478.148 824.1,476.656 822.343,476.627 L817.565,476.627 z" fill="#010101"/>
    </g>
    <g>
      <path d="M1228.997,482.689 C1228.997,483.951 1227.975,484.973 1226.713,484.973 C1225.452,484.973 1224.429,483.951 1224.429,482.689 C1224.429,481.428 1225.452,480.405 1226.713,480.405 C1227.975,480.405 1228.997,481.428 1228.997,482.689 z" fill="#010101"/>
      <path d="M1224.29,485.604 C1222.533,485.604 1221.407,487.125 1221.407,488.627 L1221.407,495.654 C1221.391,497.029 1223.37,497.029 1223.376,495.654 L1223.376,489.189 L1223.868,489.189 L1223.868,507.038 C1223.837,508.903 1226.47,508.85 1226.468,507.038 L1226.468,496.638 L1226.89,496.638 L1226.89,507.038 C1226.924,508.85 1229.572,508.903 1229.561,507.038 L1229.561,489.189 L1230.053,489.189 L1230.053,495.654 C1230.029,497.038 1231.995,497.038 1232.02,495.654 L1232.02,488.627 C1231.993,487.125 1230.825,485.632 1229.068,485.604 L1224.29,485.604 z" fill="#010101"/>
    </g>
    <g>
      <path d="M1286.154,482.117 C1286.154,483.456 1285.068,484.541 1283.73,484.541 C1282.391,484.541 1281.306,483.456 1281.306,482.117 C1281.306,480.779 1282.391,479.693 1283.73,479.693 C1285.068,479.693 1286.154,480.779 1286.154,482.117 z" fill="#010101"/>
      <path d="M1283.393,499.908 L1283.393,508.339 C1283.38,509.87 1281.101,509.87 1281.081,508.339 L1281.081,499.908 L1278.097,499.908 L1281.306,488.644 L1280.783,488.644 L1278.92,495.061 C1278.447,496.479 1276.529,495.905 1276.979,494.388 L1279.068,487.451 C1279.307,486.657 1280.312,485.249 1282.051,485.214 L1283.618,485.214 L1285.408,485.214 C1287.097,485.249 1288.104,486.666 1288.391,487.451 L1290.481,494.388 C1290.904,495.897 1289.001,496.517 1288.541,495.061 L1286.676,488.644 L1286.079,488.644 L1289.361,499.908 L1286.303,499.908 L1286.303,508.339 C1286.327,509.87 1284.056,509.861 1284.066,508.339 L1284.066,499.908 L1283.393,499.908 z" fill="#010101"/>
    </g>
    <text transform="matrix(1, 0, 0, 1, 1225.39, 702.583)">
      <tspan x="-10.558" y="3.5" font-family="Helvetica" font-size="9.874" fill="#000000">ATM</tspan>
    </text>
    <text transform="matrix(1, 0, 0, 1, 1232.295, 669.2)">
      <tspan x="-10.652" y="3.5" font-family="Helvetica" font-size="9.874" fill="#000000">UBS</tspan>
    </text>
    <g>
      <path d="M1069.995,687.372 C1069.995,688.437 1069.131,689.302 1068.065,689.302 C1066.999,689.302 1066.135,688.437 1066.135,687.372 C1066.135,686.306 1066.999,685.442 1068.065,685.442 C1069.131,685.442 1069.995,686.306 1069.995,687.372 z" fill="#010101"/>
      <path d="M1066.016,689.834 C1064.533,689.834 1063.583,691.12 1063.583,692.389 L1063.583,698.326 C1063.568,699.486 1065.239,699.486 1065.245,698.326 L1065.245,692.863 L1065.661,692.863 L1065.661,707.943 C1065.634,709.518 1067.859,709.474 1067.858,707.943 L1067.858,699.157 L1068.212,699.157 L1068.212,707.943 C1068.24,709.474 1070.479,709.518 1070.469,707.943 L1070.469,692.863 L1070.885,692.863 L1070.885,698.326 C1070.865,699.495 1072.526,699.495 1072.547,698.326 L1072.547,692.389 C1072.524,691.12 1071.537,689.859 1070.053,689.834 L1066.016,689.834 z" fill="#010101"/>
    </g>
    <g>
      <path d="M1146.823,689.378 C1146.823,690.354 1146.033,691.144 1145.057,691.144 C1144.082,691.144 1143.292,690.354 1143.292,689.378 C1143.292,688.403 1144.082,687.612 1145.057,687.612 C1146.033,687.612 1146.823,688.403 1146.823,689.378 z" fill="#010101"/>
      <path d="M1144.812,702.335 L1144.812,708.477 C1144.802,709.59 1143.143,709.59 1143.128,708.477 L1143.128,702.335 L1140.953,702.335 L1143.292,694.132 L1142.91,694.132 L1141.553,698.805 C1141.208,699.839 1139.812,699.419 1140.14,698.316 L1141.661,693.263 C1141.836,692.684 1142.567,691.659 1143.833,691.633 L1144.975,691.633 L1146.28,691.633 C1147.51,691.658 1148.245,692.692 1148.453,693.263 L1149.974,698.316 C1150.282,699.415 1148.896,699.866 1148.562,698.805 L1147.203,694.132 L1146.769,694.132 L1149.16,702.335 L1146.932,702.335 L1146.932,708.477 C1146.949,709.59 1145.296,709.584 1145.302,708.477 L1145.302,702.335 L1144.812,702.335 z" fill="#010101"/>
    </g>
    <path d="M1160.271,655.964 C1159.66,655.906 1159.185,655.381 1159.185,654.766 C1159.185,654.104 1159.726,653.565 1160.386,653.565 C1161.05,653.565 1161.589,654.104 1161.589,654.766 C1161.589,654.969 1161.533,655.174 1161.44,655.349 L1161.01,661.375 L1156.599,661.378 L1154.79,665.617 L1152.415,664.685 L1152.781,663.807 L1154.111,664.286 L1155.862,660.245 L1159.964,660.273 L1160.021,659.51 L1157.051,659.51 L1157.051,658.381 L1160.134,658.38 L1160.271,655.964 z" fill="#010101"/>
    <path d="M1155.833,664.607 C1156.578,666.081 1158.135,667.048 1159.798,667.048 C1162.239,667.048 1164.23,665.057 1164.23,662.615 C1164.23,660.901 1163.193,659.308 1161.641,658.602 L1161.542,659.911 C1162.458,660.49 1163.022,661.531 1163.022,662.624 C1163.022,664.396 1161.578,665.84 1159.807,665.84 C1158.187,665.84 1156.806,664.596 1156.618,663.001 L1155.833,664.607 z" fill="#010101"/>
    <g>
      <text transform="matrix(1, 0, 0, 1, 1241.555, 620.93)">
        <tspan x="-10.003" y="3" font-family="Helvetica" font-size="9" fill="#000000">Gest</tspan>
      </text>
      <text transform="matrix(1, 0, 0, 1, 1242.809, 631.731)">
        <tspan x="-12.258" y="3" font-family="Helvetica" font-size="9" fill="#000000">Union</tspan>
      </text>
    </g>
    <g>
      <text transform="matrix(1, 0, 0, 1, 629.676, 476.164)">
        <tspan x="-17.231" y="5" font-family="Helvetica" font-size="14" fill="#000000">Quiet</tspan>
      </text>
      <text transform="matrix(1, 0, 0, 1, 630.469, 492.964)">
        <tspan x="-19.172" y="5" font-family="Helvetica" font-size="14" fill="#000000">Room</tspan>
      </text>
    </g>
  </g>
</svg>
