<?xml version="1.0" encoding="UTF-8"?>
<!DOCTYPE svg PUBLIC "-//W3C//DTD SVG 1.1//EN" "http://www.w3.org/Graphics/SVG/1.1/DTD/svg11.dtd">
<svg version="1.1" xmlns="http://www.w3.org/2000/svg" xmlns:xlink="http://www.w3.org/1999/xlink" x="0" y="0" width="1770" height="1000" viewBox="0, 0, 1770, 1000">
  <g id="workspaces" transform="translate(0, 0)">
    <path d="M773.24,603.386 L773.24,601.955 L731.625,601.955 L731.625,627.961 L773.24,627.961 z" fill="#F6EC13" id="1-Huddle_0W_01"/>
    <path d="M773.016,631.451 L773.016,629.225 L731.625,629.225 L731.625,669.631 L773.016,669.631 z" fill="#F6EC13" id="2-Huddle_0W_02"/>
    <path d="M731.625,670.787 L773.016,670.787 L773.016,701.857 L731.625,701.857 z" fill="#F6EC13" id="3-Huddle_0W_03"/>
    <path d="M731.625,703.062 L773.24,703.062 L773.24,733.951 L731.625,733.951 z" fill="#F6EC13" id="4-Huddle_0W_04"/>
    <path d="M731.625,735.253 L773.24,735.253 L773.24,766.133 L731.625,766.133 z" fill="#F6EC13" id="5-Huddle_0W_05"/>
    <path d="M717.255,985.648 L717.32,985.648 L717.32,989.352 L773.24,989.352 L773.24,906.908 L717.32,906.908 L717.32,973.885 L717.255,973.885 z" fill="#F6EC13" id="6-VCR_0W_Bern"/>
    <path d="M731.625,799.618 L772.795,799.618 L772.795,830.505 L731.625,830.505 z" fill="#F6EC13" id="7-Huddle_0W_07"/>
    <path d="M731.625,831.807 L772.795,831.807 L772.795,873.422 L731.625,873.422 z" fill="#F6EC13" id="8-Huddle_0W_08"/>
    <path d="M772.797,881.984 L772.797,874.609 L731.625,874.609 L731.625,906.908 L772.797,906.908 L772.797,906.908 L731.628,906.908 L731.628,905.601 L772.797,905.601 L772.797,887.468" fill="#F6EC13" id="9-Huddle_0W_09"/>
    <path d="M500.274,890.211 L500.274,913.74 L496.491,913.74 L496.491,914.969 L488.448,914.969 L488.448,913.74 L460.787,913.74 L460.787,890.211 z" fill="#F6EC13" id="10-Huddle_0W_10"/>
    <path d="M541.411,890.211 L541.411,913.739 L513.106,913.739 L513.106,914.969 L504.965,914.969 L504.965,913.739 L501.508,913.739 L501.508,890.211 z" fill="#F6EC13" id="11-Huddle_0W_11"/>
    <path d="M564.727,715.595 L603.721,715.595 L603.721,741.323 L564.727,741.323 z" fill="#F6EC13" id="12-Huddle_0W_12"/>
    <path d="M564.727,687.63 L603.997,687.63 L603.997,714.456 L564.727,714.456 z" fill="#F6EC13" id="13-Huddle_0W_13"/>
    <path d="M564.422,660.198 L603.998,660.718 L603.655,686.792 L564.079,686.272 z" fill="#F6EC13" id="14-Huddle_0W_14"/>
    <path d="M564.675,633.089 L604.052,633.089 L604.052,659.163 L564.675,659.163 z" fill="#F6EC13" id="15-Huddle_0W_15"/>
    <path d="M665.88,508.97 L634.997,508.97 L634.997,562.292 L636.299,562.292 L636.299,563.591 L648.003,563.591 L648.003,562.292 L663.805,562.292 L663.805,560.212 L665.88,560.212 z" fill="#F6EC13" id="16-Huddle_0W_16"/>
    <path d="M602.811,562.292 L620.694,562.292 L620.694,563.591 L632.396,563.591 L632.396,562.292 L633.698,562.292 L633.698,508.97 L602.811,508.97 z" fill="#F6EC13" id="17-Huddle_0W_17"/>
    <path d="M559.904,560.212 L561.984,560.212 L561.984,562.292 L571.927,562.292 L571.927,563.591 L583.63,563.591 L583.63,562.292 L601.51,562.292 L601.51,508.97 L559.904,508.97 z" fill="#F6EC13" id="18-Huddle_0W_18"/>
    <path d="M607.258,346.419 L638.322,346.419 L638.322,390.061 L607.258,390.061 z" fill="#F6EC13" id="19-Huddle_0W_19"/>
    <path d="M639.556,346.419 L669.693,346.419 L669.693,390.061 L639.556,390.061 z" fill="#F6EC13" id="20-Huddle_0W_20"/>
    <path d="M730.327,381.209 L710.103,381.209 L710.103,417.298 L711.401,417.298 L711.401,418.592 L720.788,418.592 L720.788,417.298 L730.327,417.298 z" fill="#F6EC13" id="21-Huddle_0W_21"/>
    <path d="M731.628,381.209 L731.628,417.298 L732.927,417.298 L732.927,418.592 L742.31,418.592 L742.31,417.298 L751.852,417.298 L751.852,381.209 z" fill="#F6EC13" id="22-Huddle_0W_22"/>
    <path d="M753.151,417.298 L754.453,417.298 L754.453,418.592 L763.839,418.592 L763.839,417.298 L773.238,417.298 L773.238,381.209 L753.151,381.209 z" fill="#F6EC13" id="23-Huddle_0W_23"/>
    <path d="M773.427,431.966 L773.975,432.156 L773.935,433.719 L795.546,433.594 L795.578,412.934 L774.234,412.899 L774.203,422.803 L773.427,422.803 z" fill="#F6EC13" id="24-Huddle_0W_24"/>
    <path d="M774.862,435.899 L773.565,435.899 L773.565,456.509 L795.669,456.509 L795.669,434.462 L774.862,434.462 z" fill="#F6EC13" id="25-Huddle_0W_25"/>
    <path d="M559.904,460.858 L595.081,460.858 L595.081,507.677 L559.904,507.677 z" fill="#F6EC13" id="26-Conf_0W_Fribourg"/>
    <path d="M720.505,541.484 L710.102,541.484 L710.102,562.292 L771.096,562.292 L771.096,560.213 L776.554,560.213 L776.554,561.514 L794.758,561.514 L794.758,467.034 L710.102,467.034 L710.102,476.465 L720.505,476.465 L720.505,498.572 L710.102,498.572 L710.102,519.362 L720.505,519.378 L720.505,520.68 L720.505,535.63 z" fill="#F6EC13" id="27-Conf_0W_Geneva"/>
    <path d="M1203.406,349.046 L1250.844,349.046 L1250.844,379.595 L1203.406,379.595 z" fill="#F6EC13" id="28-Huddle_0C_01"/>
    <path d="M1203.406,380.906 L1250.844,380.906 L1250.844,415.621 L1203.406,415.621 z" fill="#F6EC13" id="29-Huddle_0C_02"/>
    <path d="M1203.406,416.855 L1250.844,416.855 L1250.844,451.957 L1203.406,451.957 z" fill="#F6EC13" id="30-Huddle_0C_03"/>
    <path d="M1275.531,604.727 L1274.864,604.037 L1262.495,604.037 L1262.238,604.727 L1260.617,604.727 L1260.672,688.018 L1313.8,688.018 L1313.8,666.467 L1314.389,665.721 L1314.389,604.699 z" fill="#F6EC13" id="31-Conf_0C_Lausanne"/>
    <path d="M1203.226,615.805 L1203.877,615.805 L1203.877,632.548 L1222.083,632.548 L1222.083,604.689 L1203.877,604.689 L1203.865,607.71 L1203.226,607.865" fill="#F6EC13" id="32-Huddle_0C_05"/>
    <path d="M1203.226,635.789 L1203.226,644.739 L1204.097,644.739 L1204.097,647.593 L1222.083,647.593 L1222.083,633.784 L1203.943,633.784 L1204.019,635.635 z" fill="#F6EC13" id="33-Huddle_0C_06"/>
    <path d="M1172.106,629.418 L1172.106,630.548 L1152.415,630.548 L1152.415,618.488 L1172.106,618.488" fill="#F6EC13" id="34-Huddle_0C_07"/>
    <path d="M1172.106,617.218 L1172.106,617.408 L1152.415,617.408 L1152.415,606.109 L1172.106,606.109" fill="#F6EC13" id="35-Huddle_0C_08"/>
    <path d="M965.718,604.911 L965.72,646.183 L921.861,646.275 L921.882,605.201 L921.988,605.102 L921.882,604.841" fill="#F6EC13" id="36-Huddle_0C_09"/>
    <path d="M965.933,647.69 L965.935,688.961 L922.076,689.052 L922.097,647.979 L922.203,647.88 L922.097,647.618" fill="#F6EC13" id="37-Huddle_0C_10"/>
    <path d="M966,690.512 L966.002,732.16 L922.066,732.253 L922.087,690.804 L922.192,690.703 L922.087,690.441" fill="#F6EC13" id="38-Huddle_0C_11"/>
    <path d="M966.001,733.469 L966.004,774.741 L921.992,774.832 L922.015,733.758 L922.12,733.659 L922.015,733.398" fill="#F6EC13" id="39-Huddle_0C_12"/>
    <path d="M774.819,604.749 L774.819,687.427 L795.596,688.661 L846.536,680.716 L858.28,680.302 L861.781,678.896 L871.059,676.984 L885.82,674.323 L874.63,604.689 z" fill="#F6EC13" id="40-Conf_0C_L`Atelier"/>
  </g>
</svg>
