<?xml version="1.0" encoding="UTF-8"?>
<!DOCTYPE svg PUBLIC "-//W3C//DTD SVG 1.1//EN" "http://www.w3.org/Graphics/SVG/1.1/DTD/svg11.dtd">
<svg version="1.1" xmlns="http://www.w3.org/2000/svg" xmlns:xlink="http://www.w3.org/1999/xlink" x="0" y="0" width="1770" height="1000" viewBox="0, 0, 1770, 1000">
  <g id="zones" transform="translate(0, 0)">
    <path d="M883.708,243.815 L883.708,10.648 L986.704,10.648 L985.859,244.448 L1035.734,243.84 L1040.641,239.778 L1040.849,235.99 L1257.91,235.99 L1258.918,235.864 L1258.918,240.27 L1262.231,242.831 L1313.114,242.831 L1313.114,453.708 L1305.312,453.212 L1305.91,563.591 L1313.114,563.591 L1313.114,573.808 L1315.062,573.683 L1315.062,595.713 L1315.062,734.869 L1302.968,734.869 L1303.166,746.598 L773.239,746.598 L773.239,243.816 L883.708,243.815 z" fill="#F2F2F2"/>
    <path d="M949.967,603.386 L949.967,605.241 L963.984,605.241 L963.984,604.557 L1015.771,604.557 L1015.771,743.764 L1248.233,743.764 L1248.233,735.345 L1301.398,735.345 L1301.398,877.684 L1248.233,877.684 L1248.233,876.748 L991.339,876.748 L991.339,840.361 L963.984,840.361 L963.984,840.25 L949.967,840.25 L949.967,989.352 L772.579,989.352 L772.579,603.386 L949.967,603.386 z" fill="#D0E2B5"/>
    <path d="M1246.628,689.186 L1246.628,716.394 L1203.867,716.394 L1203.867,689.186 L1246.628,689.186 z" fill="#D0E2B5"/>
    <path d="M1313.114,604.651 L1313.114,689.186 L1259.948,689.186 L1259.948,688.697 L1203.225,688.697 L1203.225,605.054 L1259.948,605.054 L1259.948,604.651 L1313.114,604.651 z" fill="#D0E2B5"/>
    <path d="M466.194,309.765 L466.194,989.352 L456.208,989.352 L456.208,309.765 L466.194,309.765 z" fill="#F6EBC8"/>
    <path d="M472.207,242.831 L472.207,243.816 L773.455,243.816 L773.455,412.534 L794.758,412.534 L794.758,561.509 L773.455,561.509 L773.455,989.352 L466.402,989.352 L466.402,278.282 L455.635,278.282 L455.635,242.831 L472.207,242.831 z" fill="#F6EBC8"/>
    <path d="M1305.91,452.729 L1305.91,566.403 L1200.038,566.403 L1200.038,452.729 L1305.91,452.729 z" fill="#ADD6E6"/>
    <path d="M984.688,208.576 L984.688,456.509 L1015.38,456.509 L1015.38,564.893 L990.18,564.893 L990.18,566.194 L920.317,566.194 L920.317,476.257 L920.741,476.257 L920.741,456.509 L920.763,456.509 L920.763,208.576 L984.688,208.576 z" fill="#ADD6E6"/>
    <path d="M880.844,243.661 L880.844,562.292 L795.992,562.292 L795.992,412.29 L773.975,412.29 L773.975,244.426 L795.992,244.426 L795.992,243.661 L880.844,243.661 z" fill="#ADD6E6"/>
    <path d="M1015.77,604.557 L1015.77,655.029 L1017.232,655.029 L1017.232,676.471 L1015.77,676.471 L1015.77,714.315 L1017.232,714.315 L1017.232,748.42 L1015.77,748.42 L1015.77,840.361 L963.984,840.361 L963.984,604.557 L1015.77,604.557 z" fill="#D0E2B5"/>
    <path d="M1172.538,732.749 L1172.538,754.191 L1039.218,754.191 L1039.218,732.749 L1172.538,732.749 z" fill="#D0E2B5"/>
  </g>
</svg>
