<?xml version="1.0" encoding="UTF-8"?>
<!DOCTYPE svg PUBLIC "-//W3C//DTD SVG 1.1//EN" "http://www.w3.org/Graphics/SVG/1.1/DTD/svg11.dtd">
<svg version="1.1" xmlns="http://www.w3.org/2000/svg" xmlns:xlink="http://www.w3.org/1999/xlink" x="0" y="0" width="1150" height="768" viewBox="0, 0, 1150, 768">
  <defs>
    <linearGradient id="Gradient_1" gradientUnits="userSpaceOnUse" x1="211.696" y1="-995.735" x2="331.696" y2="-995.735" gradientTransform="matrix(-0, 1, -1, -0, 0, 0)">
      <stop offset="0" stop-color="#F4F4F4"/>
      <stop offset="1" stop-color="#DDDDDD"/>
    </linearGradient>
    <linearGradient id="Gradient_2" gradientUnits="userSpaceOnUse" x1="822.401" y1="465.534" x2="927.401" y2="465.534">
      <stop offset="0" stop-color="#F4F4F4"/>
      <stop offset="1" stop-color="#DDDDDD"/>
    </linearGradient>
    <linearGradient id="Gradient_3" gradientUnits="userSpaceOnUse" x1="269.401" y1="36.245" x2="319.401" y2="36.245">
      <stop offset="0" stop-color="#F4F4F4"/>
      <stop offset="1" stop-color="#DDDDDD"/>
    </linearGradient>
    <linearGradient id="Gradient_4" gradientUnits="userSpaceOnUse" x1="341.401" y1="63.245" x2="401.401" y2="63.245">
      <stop offset="0" stop-color="#F4F4F4"/>
      <stop offset="1" stop-color="#DDDDDD"/>
    </linearGradient>
    <linearGradient id="Gradient_5" gradientUnits="userSpaceOnUse" x1="234.901" y1="387.45" x2="370.901" y2="387.45">
      <stop offset="0" stop-color="#6E6E6E"/>
      <stop offset="0.503" stop-color="#ECECEC"/>
      <stop offset="1" stop-color="#646464"/>
    </linearGradient>
    <linearGradient id="Gradient_6" gradientUnits="userSpaceOnUse" x1="302.901" y1="388.95" x2="356.901" y2="388.95">
      <stop offset="0" stop-color="#F4F4F4"/>
      <stop offset="1" stop-color="#DDDDDD"/>
    </linearGradient>
    <linearGradient id="Gradient_7" gradientUnits="userSpaceOnUse" x1="248.901" y1="388.95" x2="302.901" y2="388.95">
      <stop offset="0" stop-color="#F4F4F4"/>
      <stop offset="1" stop-color="#DDDDDD"/>
    </linearGradient>
    <linearGradient id="Gradient_8" gradientUnits="userSpaceOnUse" x1="356.901" y1="388.951" x2="370.901" y2="388.951">
      <stop offset="0" stop-color="#F4F4F4"/>
      <stop offset="1" stop-color="#DDDDDD"/>
    </linearGradient>
    <linearGradient id="Gradient_9" gradientUnits="userSpaceOnUse" x1="234.901" y1="388.951" x2="248.901" y2="388.951">
      <stop offset="0" stop-color="#F4F4F4"/>
      <stop offset="1" stop-color="#DDDDDD"/>
    </linearGradient>
    <linearGradient id="Gradient_10" gradientUnits="userSpaceOnUse" x1="234.901" y1="362.951" x2="370.901" y2="362.951">
      <stop offset="0" stop-color="#F4F4F4"/>
      <stop offset="1" stop-color="#DDDDDD"/>
    </linearGradient>
    <linearGradient id="Gradient_11" gradientUnits="userSpaceOnUse" x1="417.725" y1="-180.546" x2="459.725" y2="-180.546" gradientTransform="matrix(1, 0, 0, -1, 0, 0)">
      <stop offset="0" stop-color="#F4F4F4"/>
      <stop offset="1" stop-color="#DDDDDD"/>
    </linearGradient>
    <linearGradient id="Gradient_12" gradientUnits="userSpaceOnUse" x1="433.325" y1="-164.821" x2="443.826" y2="-164.821" gradientTransform="matrix(1, 0, 0, -1, 0, 0)">
      <stop offset="0" stop-color="#6E6E6E"/>
      <stop offset="0.515" stop-color="#202020"/>
      <stop offset="1" stop-color="#646464"/>
    </linearGradient>
    <linearGradient id="Gradient_13" gradientUnits="userSpaceOnUse" x1="444.325" y1="-192.69" x2="447.825" y2="-192.69" gradientTransform="matrix(1, 0, 0, -1, 0, 0)">
      <stop offset="0" stop-color="#F4F4F4"/>
      <stop offset="1" stop-color="#DDDDDD"/>
    </linearGradient>
    <linearGradient id="Gradient_14" gradientUnits="userSpaceOnUse" x1="430.325" y1="-192.69" x2="433.825" y2="-192.69" gradientTransform="matrix(1, 0, 0, -1, 0, 0)">
      <stop offset="0" stop-color="#F4F4F4"/>
      <stop offset="1" stop-color="#DDDDDD"/>
    </linearGradient>
    <linearGradient id="Gradient_15" gradientUnits="userSpaceOnUse" x1="417.657" y1="64.333" x2="459.657" y2="64.333">
      <stop offset="0" stop-color="#F4F4F4"/>
      <stop offset="1" stop-color="#DDDDDD"/>
    </linearGradient>
    <linearGradient id="Gradient_16" gradientUnits="userSpaceOnUse" x1="433.257" y1="79.058" x2="443.757" y2="79.058">
      <stop offset="0" stop-color="#6E6E6E"/>
      <stop offset="0.515" stop-color="#202020"/>
      <stop offset="1" stop-color="#646464"/>
    </linearGradient>
    <linearGradient id="Gradient_17" gradientUnits="userSpaceOnUse" x1="444.257" y1="52.189" x2="447.757" y2="52.189">
      <stop offset="0" stop-color="#F4F4F4"/>
      <stop offset="1" stop-color="#DDDDDD"/>
    </linearGradient>
    <linearGradient id="Gradient_18" gradientUnits="userSpaceOnUse" x1="430.257" y1="52.189" x2="433.757" y2="52.189">
      <stop offset="0" stop-color="#F4F4F4"/>
      <stop offset="1" stop-color="#DDDDDD"/>
    </linearGradient>
    <linearGradient id="Gradient_19" gradientUnits="userSpaceOnUse" x1="-576.05" y1="67.983" x2="-468.55" y2="67.983" gradientTransform="matrix(-1, 0, 0, 1, 0, 0)">
      <stop offset="0" stop-color="#F4F4F4"/>
      <stop offset="1" stop-color="#DDDDDD"/>
    </linearGradient>
    <linearGradient id="Gradient_20" gradientUnits="userSpaceOnUse" x1="586.884" y1="68.511" x2="721.383" y2="68.511">
      <stop offset="0" stop-color="#F4F4F4"/>
      <stop offset="1" stop-color="#DDDDDD"/>
    </linearGradient>
    <linearGradient id="Gradient_21" gradientUnits="userSpaceOnUse" x1="-142.983" y1="604.883" x2="-113.983" y2="604.883" gradientTransform="matrix(-0, -1, 1, -0, 0, 0)">
      <stop offset="0" stop-color="#F4F4F4"/>
      <stop offset="1" stop-color="#DDDDDD"/>
    </linearGradient>
    <linearGradient id="Gradient_22" gradientUnits="userSpaceOnUse" x1="-146.983" y1="596.883" x2="-110.983" y2="596.883" gradientTransform="matrix(-0, -1, 1, -0, 0, 0)">
      <stop offset="0" stop-color="#F4F4F4"/>
      <stop offset="1" stop-color="#DDDDDD"/>
    </linearGradient>
    <linearGradient id="Gradient_23" gradientUnits="userSpaceOnUse" x1="-143.982" y1="620.383" x2="-113.983" y2="620.383" gradientTransform="matrix(-0, -1, 1, -0, 0, 0)">
      <stop offset="0" stop-color="#F4F4F4"/>
      <stop offset="1" stop-color="#DDDDDD"/>
    </linearGradient>
    <linearGradient id="Gradient_24" gradientUnits="userSpaceOnUse" x1="-138.483" y1="605.883" x2="-118.483" y2="605.883" gradientTransform="matrix(-0, -1, 1, -0, 0, 0)">
      <stop offset="0" stop-color="#F4F4F4"/>
      <stop offset="1" stop-color="#DDDDDD"/>
    </linearGradient>
    <linearGradient id="Gradient_25" gradientUnits="userSpaceOnUse" x1="-142.983" y1="-559.309" x2="-113.983" y2="-559.309" gradientTransform="matrix(0, -1, -1, -0, 0, 0)">
      <stop offset="0" stop-color="#F4F4F4"/>
      <stop offset="1" stop-color="#DDDDDD"/>
    </linearGradient>
    <linearGradient id="Gradient_26" gradientUnits="userSpaceOnUse" x1="-146.983" y1="-567.308" x2="-110.983" y2="-567.308" gradientTransform="matrix(0, -1, -1, -0, 0, 0)">
      <stop offset="0" stop-color="#F4F4F4"/>
      <stop offset="1" stop-color="#DDDDDD"/>
    </linearGradient>
    <linearGradient id="Gradient_27" gradientUnits="userSpaceOnUse" x1="-143.982" y1="-543.809" x2="-113.983" y2="-543.809" gradientTransform="matrix(0, -1, -1, -0, 0, 0)">
      <stop offset="0" stop-color="#F4F4F4"/>
      <stop offset="1" stop-color="#DDDDDD"/>
    </linearGradient>
    <linearGradient id="Gradient_28" gradientUnits="userSpaceOnUse" x1="-138.483" y1="-558.308" x2="-118.483" y2="-558.308" gradientTransform="matrix(0, -1, -1, -0, 0, 0)">
      <stop offset="0" stop-color="#F4F4F4"/>
      <stop offset="1" stop-color="#DDDDDD"/>
    </linearGradient>
    <linearGradient id="Gradient_29" gradientUnits="userSpaceOnUse" x1="228.401" y1="48.261" x2="340.068" y2="48.261">
      <stop offset="0" stop-color="#F4F4F4"/>
      <stop offset="1" stop-color="#DDDDDD"/>
    </linearGradient>
    <linearGradient id="Gradient_30" gradientUnits="userSpaceOnUse" x1="230.855" y1="64.068" x2="284.848" y2="64.068">
      <stop offset="0" stop-color="#F4F4F4"/>
      <stop offset="1" stop-color="#DDDDDD"/>
    </linearGradient>
    <linearGradient id="Gradient_31" gradientUnits="userSpaceOnUse" x1="233.735" y1="-233.867" x2="413.401" y2="-233.867" gradientTransform="matrix(1, 0, 0, -1, 0, 0)">
      <stop offset="0" stop-color="#F4F4F4"/>
      <stop offset="1" stop-color="#DDDDDD"/>
    </linearGradient>
    <linearGradient id="Gradient_32" gradientUnits="userSpaceOnUse" x1="237.683" y1="-218.061" x2="324.555" y2="-218.061" gradientTransform="matrix(1, 0, 0, -1, 0, 0)">
      <stop offset="0" stop-color="#F4F4F4"/>
      <stop offset="1" stop-color="#DDDDDD"/>
    </linearGradient>
    <linearGradient id="Gradient_33" gradientUnits="userSpaceOnUse" x1="-151.179" y1="672.392" x2="-66.682" y2="644.681" gradientTransform="matrix(0.722, -0.692, 0.692, 0.722, 0, 0)">
      <stop offset="0.004" stop-color="#4C4C4C" stop-opacity="0.3"/>
      <stop offset="0.426" stop-color="#959595" stop-opacity="0.65"/>
      <stop offset="1" stop-color="#333333" stop-opacity="0.45"/>
    </linearGradient>
    <linearGradient id="Gradient_34" gradientUnits="userSpaceOnUse" x1="-191.03" y1="807.512" x2="-188.23" y2="807.512" gradientTransform="matrix(0.551, -0.834, 0.834, 0.551, 0, 0)">
      <stop offset="0" stop-color="#F4F4F4"/>
      <stop offset="1" stop-color="#DDDDDD"/>
    </linearGradient>
    <linearGradient id="Gradient_35" gradientUnits="userSpaceOnUse" x1="-152.77" y1="807.512" x2="-149.97" y2="807.512" gradientTransform="matrix(0.551, -0.834, 0.834, 0.551, 0, 0)">
      <stop offset="0" stop-color="#F4F4F4"/>
      <stop offset="1" stop-color="#DDDDDD"/>
    </linearGradient>
    <linearGradient id="Gradient_36" gradientUnits="userSpaceOnUse" x1="-188.23" y1="787.687" x2="-152.769" y2="787.687" gradientTransform="matrix(0.551, -0.834, 0.834, 0.551, 0, 0)">
      <stop offset="0" stop-color="#F4F4F4"/>
      <stop offset="1" stop-color="#DDDDDD"/>
    </linearGradient>
    <linearGradient id="Gradient_37" gradientUnits="userSpaceOnUse" x1="434.945" y1="360.084" x2="485.279" y2="360.084">
      <stop offset="0" stop-color="#F4F4F4"/>
      <stop offset="1" stop-color="#DDDDDD"/>
    </linearGradient>
    <linearGradient id="Gradient_38" gradientUnits="userSpaceOnUse" x1="535.002" y1="579.709" x2="640.858" y2="579.709">
      <stop offset="0" stop-color="#4B4B4B"/>
      <stop offset="0.071" stop-color="#9A9A9A"/>
      <stop offset="0.142" stop-color="#C4C4C4"/>
      <stop offset="0.203" stop-color="#CFCFCF"/>
      <stop offset="0.797" stop-color="#D2D2D2"/>
      <stop offset="0.921" stop-color="#ECECEC"/>
      <stop offset="1" stop-color="#717171"/>
    </linearGradient>
    <linearGradient id="Gradient_39" gradientUnits="userSpaceOnUse" x1="885.833" y1="-596.578" x2="967.167" y2="-596.578" gradientTransform="matrix(1, 0, 0, -1, 0, 0)">
      <stop offset="0" stop-color="#F4F4F4"/>
      <stop offset="1" stop-color="#DDDDDD"/>
    </linearGradient>
    <linearGradient id="Gradient_40" gradientUnits="userSpaceOnUse" x1="888.544" y1="-579.92" x2="964.455" y2="-579.92" gradientTransform="matrix(1, 0, 0, -1, 0, 0)">
      <stop offset="0" stop-color="#F4F4F4"/>
      <stop offset="1" stop-color="#DDDDDD"/>
    </linearGradient>
    <linearGradient id="Gradient_41" gradientUnits="userSpaceOnUse" x1="811.833" y1="-361.822" x2="885.833" y2="-361.822" gradientTransform="matrix(1, 0, 0, -1, 0, 0)">
      <stop offset="0" stop-color="#F4F4F4"/>
      <stop offset="1" stop-color="#DDDDDD"/>
    </linearGradient>
    <linearGradient id="Gradient_42" gradientUnits="userSpaceOnUse" x1="814.3" y1="-341.301" x2="883.367" y2="-341.301" gradientTransform="matrix(1, 0, 0, -1, 0, 0)">
      <stop offset="0" stop-color="#F4F4F4"/>
      <stop offset="1" stop-color="#DDDDDD"/>
    </linearGradient>
    <linearGradient id="Gradient_43" gradientUnits="userSpaceOnUse" x1="254.894" y1="741.552" x2="308.894" y2="741.552" gradientTransform="matrix(-0, 1, 1, 0, 0, 0)">
      <stop offset="0" stop-color="#F4F4F4"/>
      <stop offset="1" stop-color="#DDDDDD"/>
    </linearGradient>
    <linearGradient id="Gradient_44" gradientUnits="userSpaceOnUse" x1="256.694" y1="758.21" x2="307.094" y2="758.21" gradientTransform="matrix(-0, 1, 1, 0, 0, 0)">
      <stop offset="0" stop-color="#F4F4F4"/>
      <stop offset="1" stop-color="#DDDDDD"/>
    </linearGradient>
    <linearGradient id="Gradient_45" gradientUnits="userSpaceOnUse" x1="444.383" y1="-634.52" x2="529.05" y2="-634.52" gradientTransform="matrix(1, 0, 0, -1, 0, 0)">
      <stop offset="0" stop-color="#F4F4F4"/>
      <stop offset="1" stop-color="#DDDDDD"/>
    </linearGradient>
    <linearGradient id="Gradient_46" gradientUnits="userSpaceOnUse" x1="447.205" y1="-621.081" x2="526.227" y2="-621.081" gradientTransform="matrix(1, 0, 0, -1, 0, 0)">
      <stop offset="0" stop-color="#F4F4F4"/>
      <stop offset="1" stop-color="#DDDDDD"/>
    </linearGradient>
    <linearGradient id="Gradient_47" gradientUnits="userSpaceOnUse" x1="453.108" y1="458.374" x2="493.774" y2="458.374" gradientTransform="matrix(-0, 1, 1, 0, 0, 0)">
      <stop offset="0" stop-color="#F4F4F4"/>
      <stop offset="1" stop-color="#DDDDDD"/>
    </linearGradient>
    <linearGradient id="Gradient_48" gradientUnits="userSpaceOnUse" x1="454.463" y1="478.895" x2="492.418" y2="478.895" gradientTransform="matrix(-0, 1, 1, 0, 0, 0)">
      <stop offset="0" stop-color="#F4F4F4"/>
      <stop offset="1" stop-color="#DDDDDD"/>
    </linearGradient>
  </defs>
  <g id="text_names" transform="translate(0, 0)">
    <g>
      <g>
        <path d="M915.235,215.696 C915.235,213.487 917.026,211.696 919.235,211.696 L1072.235,211.696 C1074.444,211.696 1076.235,213.487 1076.235,215.696 L1076.235,327.696 C1076.235,329.905 1074.444,331.696 1072.235,331.696 L919.235,331.696 C917.026,331.696 915.235,329.905 915.235,327.696 z M915.235,215.696" fill="url(#Gradient_1)"/>
        <path d="M915.235,215.696 C915.235,213.487 917.026,211.696 919.235,211.696 L1072.235,211.696 C1074.444,211.696 1076.235,213.487 1076.235,215.696 L1076.235,327.696 C1076.235,329.905 1074.444,331.696 1072.235,331.696 L919.235,331.696 C917.026,331.696 915.235,329.905 915.235,327.696 z M915.235,215.696" fill-opacity="0" stroke="#000000" stroke-width="0.5"/>
      </g>
      <g>
        <path d="M1037.235,211.696 L1037.235,331.696 L1020.021,331.696 L1011.235,211.696 z" fill="#FCFCFC"/>
        <path d="M1037.235,211.696 L1037.235,331.696 L1020.021,331.696 L1011.235,211.696 z" fill-opacity="0" stroke="#000000" stroke-width="0.5"/>
      </g>
      <g>
        <path d="M1049.985,266.696 C1046.257,266.696 1043.235,263.338 1043.235,259.196 L1043.235,229.196 C1043.235,225.054 1046.257,221.696 1049.985,221.696 L1063.484,221.696 C1067.213,221.696 1070.235,225.054 1070.235,229.196 L1070.235,259.196 C1070.235,263.338 1067.213,266.696 1063.484,266.696 L1049.985,266.696 z" fill="#FFFFFF"/>
        <path d="M1049.985,266.696 C1046.257,266.696 1043.235,263.338 1043.235,259.196 L1043.235,229.196 C1043.235,225.054 1046.257,221.696 1049.985,221.696 L1063.484,221.696 C1067.213,221.696 1070.235,225.054 1070.235,229.196 L1070.235,259.196 C1070.235,263.338 1067.213,266.696 1063.484,266.696 L1049.985,266.696 z" fill-opacity="0" stroke="#000000" stroke-width="0.5"/>
      </g>
      <g>
        <path d="M1049.985,321.696 C1046.257,321.696 1043.235,318.337 1043.235,314.196 L1043.235,284.196 C1043.235,280.054 1046.257,276.696 1049.985,276.696 L1063.484,276.696 C1067.213,276.696 1070.235,280.054 1070.235,284.196 L1070.235,314.196 C1070.235,318.337 1067.213,321.696 1063.484,321.696 L1049.985,321.696 z" fill="#FFFFFF"/>
        <path d="M1049.985,321.696 C1046.257,321.696 1043.235,318.337 1043.235,314.196 L1043.235,284.196 C1043.235,280.054 1046.257,276.696 1049.985,276.696 L1063.484,276.696 C1067.213,276.696 1070.235,280.054 1070.235,284.196 L1070.235,314.196 C1070.235,318.337 1067.213,321.696 1063.484,321.696 L1049.985,321.696 z" fill-opacity="0" stroke="#000000" stroke-width="0.5"/>
      </g>
    </g>
    <g>
      <g>
        <path d="M826.401,536.368 C824.192,536.368 822.401,534.687 822.401,532.615 L822.401,398.454 C822.401,396.381 824.192,394.701 826.401,394.701 L923.401,394.701 C925.611,394.701 927.401,396.381 927.401,398.454 L927.401,532.615 C927.401,534.687 925.611,536.368 923.401,536.368 z M826.401,536.368" fill="url(#Gradient_2)"/>
        <path d="M826.401,536.368 C824.192,536.368 822.401,534.687 822.401,532.615 L822.401,398.454 C822.401,396.381 824.192,394.701 826.401,394.701 L923.401,394.701 C925.611,394.701 927.401,396.381 927.401,398.454 L927.401,532.615 C927.401,534.687 925.611,536.368 923.401,536.368 z M826.401,536.368" fill-opacity="0" stroke="#000000" stroke-width="0.5"/>
      </g>
      <g>
        <path d="M822.401,431.29 L927.401,431.29 L927.401,446.198 L822.401,453.807 z" fill="#FCFCFC"/>
        <path d="M822.401,431.29 L927.401,431.29 L927.401,446.198 L822.401,453.807 z" fill-opacity="0" stroke="#000000" stroke-width="0.5"/>
      </g>
      <g>
        <path d="M872.401,418.39 C872.401,421.369 869.118,423.785 865.068,423.785 L835.735,423.785 C831.685,423.785 828.401,421.369 828.401,418.39 L828.401,407.601 C828.401,404.622 831.685,402.206 835.735,402.206 L865.068,402.206 C869.118,402.206 872.401,404.622 872.401,407.601 L872.401,418.39 z" fill="#FFFFFF"/>
        <path d="M872.401,418.39 C872.401,421.369 869.118,423.785 865.068,423.785 L835.735,423.785 C831.685,423.785 828.401,421.369 828.401,418.39 L828.401,407.601 C828.401,404.622 831.685,402.206 835.735,402.206 L865.068,402.206 C869.118,402.206 872.401,404.622 872.401,407.601 L872.401,418.39 z" fill-opacity="0" stroke="#000000" stroke-width="0.5"/>
      </g>
      <g>
        <path d="M922.401,418.39 C922.401,421.369 919.117,423.785 915.068,423.785 L885.735,423.785 C881.685,423.785 878.401,421.369 878.401,418.39 L878.401,407.601 C878.401,404.622 881.685,402.206 885.735,402.206 L915.068,402.206 C919.117,402.206 922.401,404.622 922.401,407.601 L922.401,418.39 z" fill="#FFFFFF"/>
        <path d="M922.401,418.39 C922.401,421.369 919.117,423.785 915.068,423.785 L885.735,423.785 C881.685,423.785 878.401,421.369 878.401,418.39 L878.401,407.601 C878.401,404.622 881.685,402.206 885.735,402.206 L915.068,402.206 C919.117,402.206 922.401,404.622 922.401,407.601 L922.401,418.39 z" fill-opacity="0" stroke="#000000" stroke-width="0.5"/>
      </g>
    </g>
    <g>
      <g>
        <path d="M269.401,33.245 L319.401,33.245 L319.401,89.245 L269.401,89.245 z" fill="#F2F2F2"/>
        <path d="M269.401,33.245 L319.401,33.245 L319.401,89.245 L269.401,89.245 z" fill-opacity="0" stroke="#000000" stroke-width="0.5"/>
      </g>
      <g>
        <path d="M269.401,33.245 L319.401,33.245 L319.401,39.245 L269.401,39.245 z" fill="url(#Gradient_3)"/>
        <path d="M269.401,33.245 L319.401,33.245 L319.401,39.245 L269.401,39.245 z" fill-opacity="0" stroke="#000000" stroke-width="0.5"/>
      </g>
      <g>
        <path d="M316.008,93.245 L273.151,93.245 L269.401,89.245 L319.401,89.245 z" fill="#F2F2F2"/>
        <path d="M316.008,93.245 L273.151,93.245 L269.401,89.245 L319.401,89.245 z" fill-opacity="0" stroke="#000000" stroke-width="0.5" stroke-linejoin="round"/>
      </g>
      <g>
        <path d="M272.276,92.433 L316.651,92.308" fill="#F2F2F2"/>
        <path d="M272.276,92.433 L316.651,92.308" fill-opacity="0" stroke="#000000" stroke-width="0.5"/>
      </g>
      <g>
        <path d="M291.681,51.063 C291.681,56.31 287.428,60.563 282.181,60.563 C276.934,60.563 272.681,56.31 272.681,51.063 C272.681,45.816 276.934,41.563 282.181,41.563 C287.428,41.563 291.681,45.816 291.681,51.063 z" fill="#F2F2F2"/>
        <path d="M291.681,51.063 C291.681,56.31 287.428,60.563 282.181,60.563 C276.934,60.563 272.681,56.31 272.681,51.063 C272.681,45.816 276.934,41.563 282.181,41.563 C287.428,41.563 291.681,45.816 291.681,51.063 z" fill-opacity="0" stroke="#000000" stroke-width="0.5"/>
      </g>
      <g>
        <path d="M289.834,51.063 C289.834,55.289 286.408,58.716 282.181,58.716 C277.955,58.716 274.529,55.289 274.529,51.063 C274.529,46.836 277.955,43.41 282.181,43.41 C286.408,43.41 289.834,46.836 289.834,51.063 z" fill="#F2F2F2"/>
        <path d="M289.834,51.063 C289.834,55.289 286.408,58.716 282.181,58.716 C277.955,58.716 274.529,55.289 274.529,51.063 C274.529,46.836 277.955,43.41 282.181,43.41 C286.408,43.41 289.834,46.836 289.834,51.063 z" fill-opacity="0" stroke="#000000" stroke-width="0.5"/>
      </g>
      <g>
        <path d="M287.748,51.063 C287.748,54.138 285.256,56.63 282.181,56.63 C279.107,56.63 276.614,54.138 276.614,51.063 C276.614,47.988 279.107,45.496 282.181,45.496 C285.256,45.496 287.748,47.988 287.748,51.063 z" fill="#F2F2F2"/>
        <path d="M287.748,51.063 C287.748,54.138 285.256,56.63 282.181,56.63 C279.107,56.63 276.614,54.138 276.614,51.063 C276.614,47.988 279.107,45.496 282.181,45.496 C285.256,45.496 287.748,47.988 287.748,51.063 z" fill-opacity="0" stroke="#000000" stroke-width="0.5"/>
      </g>
      <g>
        <path d="M285.756,51.063 C285.756,53.037 284.156,54.638 282.181,54.638 C280.207,54.638 278.606,53.037 278.606,51.063 C278.606,49.089 280.207,47.488 282.181,47.488 C284.156,47.488 285.756,49.089 285.756,51.063 z" fill="#F2F2F2"/>
        <path d="M285.756,51.063 C285.756,53.037 284.156,54.638 282.181,54.638 C280.207,54.638 278.606,53.037 278.606,51.063 C278.606,49.089 280.207,47.488 282.181,47.488 C284.156,47.488 285.756,49.089 285.756,51.063 z" fill-opacity="0" stroke="#000000" stroke-width="0.5"/>
      </g>
      <path d="M284.095,51.083 C284.095,52.142 283.236,53.001 282.177,53.001 C281.118,53.001 280.259,52.142 280.259,51.083 C280.259,50.024 281.118,49.165 282.177,49.165 C283.236,49.165 284.095,50.024 284.095,51.083 z" fill="#000000"/>
      <g>
        <path d="M315.719,51.059 C315.719,56.306 311.466,60.559 306.219,60.559 C300.972,60.559 296.719,56.306 296.719,51.059 C296.719,45.812 300.972,41.559 306.219,41.559 C311.466,41.559 315.719,45.812 315.719,51.059 z" fill="#F2F2F2"/>
        <path d="M315.719,51.059 C315.719,56.306 311.466,60.559 306.219,60.559 C300.972,60.559 296.719,56.306 296.719,51.059 C296.719,45.812 300.972,41.559 306.219,41.559 C311.466,41.559 315.719,45.812 315.719,51.059 z" fill-opacity="0" stroke="#000000" stroke-width="0.5"/>
      </g>
      <g>
        <path d="M313.872,51.059 C313.872,55.285 310.446,58.712 306.219,58.712 C301.993,58.712 298.566,55.285 298.566,51.059 C298.566,46.832 301.993,43.406 306.219,43.406 C310.446,43.406 313.872,46.832 313.872,51.059 z" fill="#F2F2F2"/>
        <path d="M313.872,51.059 C313.872,55.285 310.446,58.712 306.219,58.712 C301.993,58.712 298.566,55.285 298.566,51.059 C298.566,46.832 301.993,43.406 306.219,43.406 C310.446,43.406 313.872,46.832 313.872,51.059 z" fill-opacity="0" stroke="#000000" stroke-width="0.5"/>
      </g>
      <g>
        <path d="M311.786,51.059 C311.786,54.134 309.294,56.626 306.219,56.626 C303.144,56.626 300.652,54.134 300.652,51.059 C300.652,47.984 303.144,45.492 306.219,45.492 C309.294,45.492 311.786,47.984 311.786,51.059 z" fill="#F2F2F2"/>
        <path d="M311.786,51.059 C311.786,54.134 309.294,56.626 306.219,56.626 C303.144,56.626 300.652,54.134 300.652,51.059 C300.652,47.984 303.144,45.492 306.219,45.492 C309.294,45.492 311.786,47.984 311.786,51.059 z" fill-opacity="0" stroke="#000000" stroke-width="0.5"/>
      </g>
      <g>
        <path d="M309.794,51.059 C309.794,53.033 308.194,54.634 306.219,54.634 C304.245,54.634 302.644,53.033 302.644,51.059 C302.644,49.085 304.245,47.484 306.219,47.484 C308.194,47.484 309.794,49.085 309.794,51.059 z" fill="#F2F2F2"/>
        <path d="M309.794,51.059 C309.794,53.033 308.194,54.634 306.219,54.634 C304.245,54.634 302.644,53.033 302.644,51.059 C302.644,49.085 304.245,47.484 306.219,47.484 C308.194,47.484 309.794,49.085 309.794,51.059 z" fill-opacity="0" stroke="#000000" stroke-width="0.5"/>
      </g>
      <path d="M308.062,50.994 C308.062,52.054 307.203,52.912 306.144,52.912 C305.085,52.912 304.226,52.054 304.226,50.994 C304.226,49.935 305.085,49.076 306.144,49.076 C307.203,49.076 308.062,49.935 308.062,50.994 z" fill="#000000"/>
      <g>
        <path d="M291.401,75.745 C291.401,80.992 287.148,85.245 281.901,85.245 C276.654,85.245 272.401,80.992 272.401,75.745 C272.401,70.498 276.654,66.245 281.901,66.245 C287.148,66.245 291.401,70.498 291.401,75.745 z" fill="#F2F2F2"/>
        <path d="M291.401,75.745 C291.401,80.992 287.148,85.245 281.901,85.245 C276.654,85.245 272.401,80.992 272.401,75.745 C272.401,70.498 276.654,66.245 281.901,66.245 C287.148,66.245 291.401,70.498 291.401,75.745 z" fill-opacity="0" stroke="#000000" stroke-width="0.5"/>
      </g>
      <g>
        <path d="M289.554,75.745 C289.554,79.972 286.128,83.398 281.901,83.398 C277.675,83.398 274.249,79.972 274.249,75.745 C274.249,71.519 277.675,68.092 281.901,68.092 C286.128,68.092 289.554,71.519 289.554,75.745 z" fill="#F2F2F2"/>
        <path d="M289.554,75.745 C289.554,79.972 286.128,83.398 281.901,83.398 C277.675,83.398 274.249,79.972 274.249,75.745 C274.249,71.519 277.675,68.092 281.901,68.092 C286.128,68.092 289.554,71.519 289.554,75.745 z" fill-opacity="0" stroke="#000000" stroke-width="0.5"/>
      </g>
      <g>
        <path d="M287.468,75.745 C287.468,78.82 284.976,81.312 281.901,81.312 C278.827,81.312 276.334,78.82 276.334,75.745 C276.334,72.671 278.827,70.178 281.901,70.178 C284.976,70.178 287.468,72.671 287.468,75.745 z" fill="#F2F2F2"/>
        <path d="M287.468,75.745 C287.468,78.82 284.976,81.312 281.901,81.312 C278.827,81.312 276.334,78.82 276.334,75.745 C276.334,72.671 278.827,70.178 281.901,70.178 C284.976,70.178 287.468,72.671 287.468,75.745 z" fill-opacity="0" stroke="#000000" stroke-width="0.5"/>
      </g>
      <g>
        <path d="M285.476,75.745 C285.476,77.719 283.876,79.32 281.901,79.32 C279.927,79.32 278.326,77.719 278.326,75.745 C278.326,73.771 279.927,72.17 281.901,72.17 C283.876,72.17 285.476,73.771 285.476,75.745 z" fill="#F2F2F2"/>
        <path d="M285.476,75.745 C285.476,77.719 283.876,79.32 281.901,79.32 C279.927,79.32 278.326,77.719 278.326,75.745 C278.326,73.771 279.927,72.17 281.901,72.17 C283.876,72.17 285.476,73.771 285.476,75.745 z" fill-opacity="0" stroke="#000000" stroke-width="0.5"/>
      </g>
      <path d="M283.815,75.765 C283.815,76.825 282.956,77.683 281.897,77.683 C280.838,77.683 279.979,76.825 279.979,75.765 C279.979,74.706 280.838,73.847 281.897,73.847 C282.956,73.847 283.815,74.706 283.815,75.765 z" fill="#000000"/>
      <g>
        <path d="M316.401,75.745 C316.401,80.992 312.148,85.245 306.901,85.245 C301.654,85.245 297.401,80.992 297.401,75.745 C297.401,70.498 301.654,66.245 306.901,66.245 C312.148,66.245 316.401,70.498 316.401,75.745 z" fill="#F2F2F2"/>
        <path d="M316.401,75.745 C316.401,80.992 312.148,85.245 306.901,85.245 C301.654,85.245 297.401,80.992 297.401,75.745 C297.401,70.498 301.654,66.245 306.901,66.245 C312.148,66.245 316.401,70.498 316.401,75.745 z" fill-opacity="0" stroke="#000000" stroke-width="0.5"/>
      </g>
      <g>
        <path d="M314.554,75.745 C314.554,79.972 311.128,83.398 306.901,83.398 C302.675,83.398 299.248,79.972 299.248,75.745 C299.248,71.519 302.675,68.092 306.901,68.092 C311.128,68.092 314.554,71.519 314.554,75.745 z" fill="#F2F2F2"/>
        <path d="M314.554,75.745 C314.554,79.972 311.128,83.398 306.901,83.398 C302.675,83.398 299.248,79.972 299.248,75.745 C299.248,71.519 302.675,68.092 306.901,68.092 C311.128,68.092 314.554,71.519 314.554,75.745 z" fill-opacity="0" stroke="#000000" stroke-width="0.5"/>
      </g>
      <g>
        <path d="M312.468,75.745 C312.468,78.82 309.976,81.312 306.901,81.312 C303.826,81.312 301.334,78.82 301.334,75.745 C301.334,72.671 303.826,70.178 306.901,70.178 C309.976,70.178 312.468,72.671 312.468,75.745 z" fill="#F2F2F2"/>
        <path d="M312.468,75.745 C312.468,78.82 309.976,81.312 306.901,81.312 C303.826,81.312 301.334,78.82 301.334,75.745 C301.334,72.671 303.826,70.178 306.901,70.178 C309.976,70.178 312.468,72.671 312.468,75.745 z" fill-opacity="0" stroke="#000000" stroke-width="0.5"/>
      </g>
      <g>
        <path d="M310.476,75.745 C310.476,77.719 308.876,79.32 306.901,79.32 C304.927,79.32 303.326,77.719 303.326,75.745 C303.326,73.771 304.927,72.17 306.901,72.17 C308.876,72.17 310.476,73.771 310.476,75.745 z" fill="#F2F2F2"/>
        <path d="M310.476,75.745 C310.476,77.719 308.876,79.32 306.901,79.32 C304.927,79.32 303.326,77.719 303.326,75.745 C303.326,73.771 304.927,72.17 306.901,72.17 C308.876,72.17 310.476,73.771 310.476,75.745 z" fill-opacity="0" stroke="#000000" stroke-width="0.5"/>
      </g>
      <path d="M308.743,75.681 C308.743,76.74 307.884,77.599 306.825,77.599 C305.766,77.599 304.907,76.74 304.907,75.681 C304.907,74.621 305.766,73.763 306.825,73.763 C307.884,73.763 308.743,74.621 308.743,75.681 z" fill="#000000"/>
    </g>
    <g>
      <g>
        <path d="M341.401,33.245 L401.401,33.245 L401.401,93.245 L341.401,93.245 z" fill="url(#Gradient_4)"/>
        <path d="M341.401,33.245 L401.401,33.245 L401.401,93.245 L341.401,93.245 z" fill-opacity="0" stroke="#000000" stroke-width="0.5"/>
      </g>
      <g>
        <path d="M397.33,98.245 L345.901,98.245 L341.401,93.245 L401.401,93.245 z" fill="#F2F2F2"/>
        <path d="M397.33,98.245 L345.901,98.245 L341.401,93.245 L401.401,93.245 z" fill-opacity="0" stroke="#000000" stroke-width="0.5" stroke-linejoin="round"/>
      </g>
      <g>
        <path d="M377.401,94.745 L390.401,94.745 L390.401,96.745 L377.401,96.745 z" fill="#F2F2F2"/>
        <path d="M377.401,94.745 L390.401,94.745 L390.401,96.745 L377.401,96.745 z" fill-opacity="0" stroke="#000000" stroke-width="0.5"/>
      </g>
      <g>
        <path d="M395.401,95.745 C395.401,96.574 394.73,97.245 393.901,97.245 C393.073,97.245 392.401,96.574 392.401,95.745 C392.401,94.917 393.073,94.245 393.901,94.245 C394.73,94.245 395.401,94.917 395.401,95.745 z" fill="#F2F2F2"/>
        <path d="M395.401,95.745 C395.401,96.574 394.73,97.245 393.901,97.245 C393.073,97.245 392.401,96.574 392.401,95.745 C392.401,94.917 393.073,94.245 393.901,94.245 C394.73,94.245 395.401,94.917 395.401,95.745 z" fill-opacity="0" stroke="#000000" stroke-width="0.5"/>
      </g>
      <g>
        <path d="M391.901,95.245 L395.901,95.245 L395.901,96.245 L391.901,96.245 z" fill="#020202"/>
        <path d="M391.901,95.245 L395.901,95.245 L395.901,96.245 L391.901,96.245 z" fill-opacity="0" stroke="#000000" stroke-width="0.5"/>
      </g>
    </g>
    <g>
      <g>
        <path d="M370.901,410.812 C370.901,411.717 370.297,412.45 369.552,412.45 L236.25,412.45 C235.505,412.45 234.901,411.717 234.901,410.812 L234.901,364.089 C234.901,363.184 235.505,362.45 236.25,362.45 L369.552,362.45 C370.297,362.45 370.901,363.184 370.901,364.089 L370.901,410.812 z" fill="url(#Gradient_5)"/>
        <path d="M370.901,410.812 C370.901,411.717 370.297,412.45 369.552,412.45 L236.25,412.45 C235.505,412.45 234.901,411.717 234.901,410.812 L234.901,364.089 C234.901,363.184 235.505,362.45 236.25,362.45 L369.552,362.45 C370.297,362.45 370.901,363.184 370.901,364.089 L370.901,410.812 z" fill-opacity="0" stroke="#000000" stroke-width="0.5"/>
      </g>
      <g>
        <path d="M356.901,401.201 C356.901,407.966 350.857,413.45 343.401,413.45 L316.401,413.45 C308.945,413.45 302.901,407.966 302.901,401.201 L302.901,376.701 C302.901,369.935 308.945,364.45 316.401,364.45 L343.401,364.45 C350.857,364.45 356.901,369.935 356.901,376.701 L356.901,401.201 z" fill="url(#Gradient_6)"/>
        <path d="M356.901,401.201 C356.901,407.966 350.857,413.45 343.401,413.45 L316.401,413.45 C308.945,413.45 302.901,407.966 302.901,401.201 L302.901,376.701 C302.901,369.935 308.945,364.45 316.401,364.45 L343.401,364.45 C350.857,364.45 356.901,369.935 356.901,376.701 L356.901,401.201 z" fill-opacity="0" stroke="#000000" stroke-width="0.5"/>
      </g>
      <g>
        <path d="M302.901,401.201 C302.901,407.966 296.857,413.45 289.401,413.45 L262.401,413.45 C254.945,413.45 248.901,407.966 248.901,401.201 L248.901,376.701 C248.901,369.935 254.945,364.45 262.401,364.45 L289.401,364.45 C296.857,364.45 302.901,369.935 302.901,376.701 L302.901,401.201 z" fill="url(#Gradient_7)"/>
        <path d="M302.901,401.201 C302.901,407.966 296.857,413.45 289.401,413.45 L262.401,413.45 C254.945,413.45 248.901,407.966 248.901,401.201 L248.901,376.701 C248.901,369.935 254.945,364.45 262.401,364.45 L289.401,364.45 C296.857,364.45 302.901,369.935 302.901,376.701 L302.901,401.201 z" fill-opacity="0" stroke="#000000" stroke-width="0.5"/>
      </g>
      <g>
        <path d="M370.901,406.406 C370.901,410.297 367.767,413.45 363.901,413.45 L363.901,413.45 C360.035,413.45 356.901,410.296 356.901,406.406 L356.901,371.495 C356.901,367.605 360.035,364.45 363.901,364.45 L363.901,364.45 C367.767,364.45 370.901,367.605 370.901,371.495 L370.901,406.406 z" fill="url(#Gradient_8)"/>
        <path d="M370.901,406.406 C370.901,410.297 367.767,413.45 363.901,413.45 L363.901,413.45 C360.035,413.45 356.901,410.296 356.901,406.406 L356.901,371.495 C356.901,367.605 360.035,364.45 363.901,364.45 L363.901,364.45 C367.767,364.45 370.901,367.605 370.901,371.495 L370.901,406.406 z" fill-opacity="0" stroke="#000000" stroke-width="0.5"/>
      </g>
      <g>
        <path d="M248.901,406.406 C248.901,410.297 245.767,413.45 241.901,413.45 L241.901,413.45 C238.035,413.45 234.901,410.296 234.901,406.406 L234.901,371.495 C234.901,367.605 238.035,364.45 241.901,364.45 L241.901,364.45 C245.767,364.45 248.901,367.605 248.901,371.495 L248.901,406.406 z" fill="url(#Gradient_9)"/>
        <path d="M248.901,406.406 C248.901,410.297 245.767,413.45 241.901,413.45 L241.901,413.45 C238.035,413.45 234.901,410.296 234.901,406.406 L234.901,371.495 C234.901,367.605 238.035,364.45 241.901,364.45 L241.901,364.45 C245.767,364.45 248.901,367.605 248.901,371.495 L248.901,406.406 z" fill-opacity="0" stroke="#000000" stroke-width="0.5"/>
      </g>
      <g>
        <path d="M370.901,362.95 C370.901,367.093 367.645,370.45 363.628,370.45 L242.174,370.45 C238.157,370.45 234.901,367.093 234.901,362.95 L234.901,362.95 C234.901,358.808 238.157,355.45 242.174,355.45 L363.628,355.45 C367.645,355.45 370.901,358.808 370.901,362.95 L370.901,362.95 z" fill="url(#Gradient_10)"/>
        <path d="M370.901,362.95 C370.901,367.093 367.645,370.45 363.628,370.45 L242.174,370.45 C238.157,370.45 234.901,367.093 234.901,362.95 L234.901,362.95 C234.901,358.808 238.157,355.45 242.174,355.45 L363.628,355.45 C367.645,355.45 370.901,358.808 370.901,362.95 L370.901,362.95 z" fill-opacity="0" stroke="#000000" stroke-width="0.5"/>
      </g>
    </g>
    <g>
      <g>
        <path d="M459.725,161.044 C459.725,160.403 459.241,159.883 458.643,159.883 L418.808,159.883 C418.21,159.883 417.725,160.403 417.725,161.044 L417.725,200.048 C417.725,200.689 418.21,201.208 418.808,201.208 L458.643,201.208 C459.241,201.208 459.725,200.689 459.725,200.048 L459.725,161.044 z" fill="url(#Gradient_11)"/>
        <path d="M459.725,161.044 C459.725,160.403 459.241,159.883 458.643,159.883 L418.808,159.883 C418.21,159.883 417.725,160.403 417.725,161.044 L417.725,200.048 C417.725,200.689 418.21,201.208 418.808,201.208 L458.643,201.208 C459.241,201.208 459.725,200.689 459.725,200.048 L459.725,161.044 z" fill-opacity="0" stroke="#000000" stroke-width="0.5"/>
      </g>
      <path d="M443.825,164.821 C443.825,163.82 441.475,163.008 438.575,163.008 C435.676,163.008 433.325,163.82 433.325,164.821 C433.325,165.822 435.676,166.633 438.575,166.633 C441.475,166.633 443.825,165.822 443.825,164.821 z" fill="url(#Gradient_12)"/>
      <g>
        <path d="M451.325,166.126 C451.325,165.481 450.775,164.958 450.096,164.958 L427.355,164.958 C426.676,164.958 426.125,165.481 426.125,166.126 L426.125,191.341 C426.125,191.986 426.676,192.508 427.355,192.508 L450.096,192.508 C450.775,192.508 451.325,191.986 451.325,191.341 L451.325,166.126 z" fill="#F2F2F2"/>
        <path d="M451.325,166.126 C451.325,165.481 450.775,164.958 450.096,164.958 L427.355,164.958 C426.676,164.958 426.125,165.481 426.125,166.126 L426.125,191.341 C426.125,191.986 426.676,192.508 427.355,192.508 L450.096,192.508 C450.775,192.508 451.325,191.986 451.325,191.341 L451.325,166.126 z" fill-opacity="0" stroke="#000000" stroke-width="0.5"/>
      </g>
      <g>
        <path d="M459.725,199.686 C459.725,199.326 459.244,199.033 458.65,199.033 L418.801,199.033 C418.207,199.033 417.725,199.326 417.725,199.686 L417.725,202.731 C417.725,203.092 418.207,203.383 418.801,203.383 L458.65,203.383 C459.244,203.383 459.725,203.091 459.725,202.731 L459.725,199.686 z" fill="#F2F2F2"/>
        <path d="M459.725,199.686 C459.725,199.326 459.244,199.033 458.65,199.033 L418.801,199.033 C418.207,199.033 417.725,199.326 417.725,199.686 L417.725,202.731 C417.725,203.092 418.207,203.383 418.801,203.383 L458.65,203.383 C459.244,203.383 459.725,203.091 459.725,202.731 L459.725,199.686 z" fill-opacity="0" stroke="#000000" stroke-width="0.5"/>
      </g>
      <g>
        <path d="M456.925,198.308 C456.925,197.908 456.619,197.583 456.242,197.583 L454.809,197.583 C454.431,197.583 454.125,197.908 454.125,198.308 L454.125,198.308 C454.125,198.709 454.431,199.033 454.809,199.033 L456.242,199.033 C456.619,199.034 456.925,198.709 456.925,198.308 L456.925,198.308 z" fill="#000000"/>
        <path d="M456.925,198.308 C456.925,197.908 456.619,197.583 456.242,197.583 L454.809,197.583 C454.431,197.583 454.125,197.908 454.125,198.308 L454.125,198.308 C454.125,198.709 454.431,199.033 454.809,199.033 L456.242,199.033 C456.619,199.034 456.925,198.709 456.925,198.308 L456.925,198.308 z" fill-opacity="0" stroke="#000000" stroke-width="0.5"/>
      </g>
      <g>
        <path d="M447.825,192.69 C447.825,192.39 447.443,192.146 446.971,192.146 L445.18,192.146 C444.708,192.146 444.325,192.39 444.325,192.69 L444.325,192.69 C444.325,192.99 444.708,193.233 445.18,193.233 L446.971,193.233 C447.443,193.234 447.825,192.99 447.825,192.69 L447.825,192.69 z" fill="url(#Gradient_13)"/>
        <path d="M447.825,192.69 C447.825,192.39 447.443,192.146 446.971,192.146 L445.18,192.146 C444.708,192.146 444.325,192.39 444.325,192.69 L444.325,192.69 C444.325,192.99 444.708,193.233 445.18,193.233 L446.971,193.233 C447.443,193.234 447.825,192.99 447.825,192.69 L447.825,192.69 z" fill-opacity="0" stroke="#000000" stroke-width="0.5"/>
      </g>
      <g>
        <path d="M433.825,192.69 C433.825,192.39 433.443,192.146 432.971,192.146 L431.18,192.146 C430.708,192.146 430.325,192.39 430.325,192.69 L430.325,192.69 C430.325,192.99 430.708,193.233 431.18,193.233 L432.971,193.233 C433.443,193.234 433.825,192.99 433.825,192.69 L433.825,192.69 z" fill="url(#Gradient_14)"/>
        <path d="M433.825,192.69 C433.825,192.39 433.443,192.146 432.971,192.146 L431.18,192.146 C430.708,192.146 430.325,192.39 430.325,192.69 L430.325,192.69 C430.325,192.99 430.708,193.233 431.18,193.233 L432.971,193.233 C433.443,193.234 433.825,192.99 433.825,192.69 L433.825,192.69 z" fill-opacity="0" stroke="#000000" stroke-width="0.5"/>
      </g>
    </g>
    <g>
      <g>
        <path d="M459.657,83.834 C459.657,84.476 459.173,84.995 458.575,84.995 L418.739,84.995 C418.142,84.995 417.657,84.476 417.657,83.834 L417.657,44.831 C417.657,44.19 418.142,43.67 418.739,43.67 L458.575,43.67 C459.173,43.67 459.657,44.19 459.657,44.831 L459.657,83.834 z" fill="url(#Gradient_15)"/>
        <path d="M459.657,83.834 C459.657,84.476 459.173,84.995 458.575,84.995 L418.739,84.995 C418.142,84.995 417.657,84.476 417.657,83.834 L417.657,44.831 C417.657,44.19 418.142,43.67 418.739,43.67 L458.575,43.67 C459.173,43.67 459.657,44.19 459.657,44.831 L459.657,83.834 z" fill-opacity="0" stroke="#000000" stroke-width="0.5"/>
      </g>
      <path d="M443.757,79.058 C443.757,80.059 441.407,80.87 438.507,80.87 C435.608,80.87 433.257,80.059 433.257,79.058 C433.257,78.057 435.608,77.245 438.507,77.245 C441.407,77.245 443.757,78.057 443.757,79.058 z" fill="url(#Gradient_16)"/>
      <g>
        <path d="M451.257,78.753 C451.257,79.398 450.707,79.92 450.028,79.92 L427.287,79.92 C426.608,79.92 426.057,79.398 426.057,78.753 L426.057,53.537 C426.057,52.893 426.608,52.37 427.287,52.37 L450.028,52.37 C450.707,52.37 451.257,52.893 451.257,53.537 L451.257,78.753 z" fill="#F2F2F2"/>
        <path d="M451.257,78.753 C451.257,79.398 450.707,79.92 450.028,79.92 L427.287,79.92 C426.608,79.92 426.057,79.398 426.057,78.753 L426.057,53.537 C426.057,52.893 426.608,52.37 427.287,52.37 L450.028,52.37 C450.707,52.37 451.257,52.893 451.257,53.537 L451.257,78.753 z" fill-opacity="0" stroke="#000000" stroke-width="0.5"/>
      </g>
      <g>
        <path d="M459.657,45.193 C459.657,45.553 459.176,45.845 458.582,45.845 L418.733,45.845 C418.139,45.845 417.657,45.553 417.657,45.193 L417.657,42.148 C417.657,41.787 418.139,41.495 418.733,41.495 L458.582,41.495 C459.176,41.495 459.657,41.787 459.657,42.148 L459.657,45.193 z" fill="#F2F2F2"/>
        <path d="M459.657,45.193 C459.657,45.553 459.176,45.845 458.582,45.845 L418.733,45.845 C418.139,45.845 417.657,45.553 417.657,45.193 L417.657,42.148 C417.657,41.787 418.139,41.495 418.733,41.495 L458.582,41.495 C459.176,41.495 459.657,41.787 459.657,42.148 L459.657,45.193 z" fill-opacity="0" stroke="#000000" stroke-width="0.5"/>
      </g>
      <g>
        <path d="M456.857,46.57 C456.857,46.97 456.551,47.295 456.174,47.295 L454.74,47.295 C454.363,47.295 454.057,46.97 454.057,46.57 L454.057,46.57 C454.057,46.17 454.363,45.845 454.74,45.845 L456.174,45.845 C456.551,45.845 456.857,46.17 456.857,46.57 L456.857,46.57 z" fill="#000000"/>
        <path d="M456.857,46.57 C456.857,46.97 456.551,47.295 456.174,47.295 L454.74,47.295 C454.363,47.295 454.057,46.97 454.057,46.57 L454.057,46.57 C454.057,46.17 454.363,45.845 454.74,45.845 L456.174,45.845 C456.551,45.845 456.857,46.17 456.857,46.57 L456.857,46.57 z" fill-opacity="0" stroke="#000000" stroke-width="0.5"/>
      </g>
      <g>
        <path d="M447.757,52.189 C447.757,52.489 447.375,52.733 446.903,52.733 L445.111,52.733 C444.64,52.733 444.257,52.489 444.257,52.189 L444.257,52.189 C444.257,51.889 444.64,51.645 445.111,51.645 L446.903,51.645 C447.375,51.645 447.757,51.889 447.757,52.189 L447.757,52.189 z" fill="url(#Gradient_17)"/>
        <path d="M447.757,52.189 C447.757,52.489 447.375,52.733 446.903,52.733 L445.111,52.733 C444.64,52.733 444.257,52.489 444.257,52.189 L444.257,52.189 C444.257,51.889 444.64,51.645 445.111,51.645 L446.903,51.645 C447.375,51.645 447.757,51.889 447.757,52.189 L447.757,52.189 z" fill-opacity="0" stroke="#000000" stroke-width="0.5"/>
      </g>
      <g>
        <path d="M433.757,52.189 C433.757,52.489 433.375,52.733 432.903,52.733 L431.111,52.733 C430.64,52.733 430.257,52.489 430.257,52.189 L430.257,52.189 C430.257,51.889 430.64,51.645 431.111,51.645 L432.903,51.645 C433.375,51.645 433.757,51.889 433.757,52.189 L433.757,52.189 z" fill="url(#Gradient_18)"/>
        <path d="M433.757,52.189 C433.757,52.489 433.375,52.733 432.903,52.733 L431.111,52.733 C430.64,52.733 430.257,52.489 430.257,52.189 L430.257,52.189 C430.257,51.889 430.64,51.645 431.111,51.645 L432.903,51.645 C433.375,51.645 433.757,51.889 433.757,52.189 L433.757,52.189 z" fill-opacity="0" stroke="#000000" stroke-width="0.5"/>
      </g>
    </g>
    <g>
      <g>
        <path d="M573.105,100.483 C574.731,100.483 576.05,98.866 576.05,96.872 L576.05,39.094 C576.05,37.1 574.731,35.483 573.105,35.483 L471.495,35.483 C469.869,35.483 468.55,37.1 468.55,39.094 L468.55,96.872 C468.55,98.866 469.869,100.483 471.495,100.483 z M573.105,100.483" fill="url(#Gradient_19)"/>
        <path d="M573.105,100.483 C574.731,100.483 576.05,98.866 576.05,96.872 L576.05,39.094 C576.05,37.1 574.731,35.483 573.105,35.483 L471.495,35.483 C469.869,35.483 468.55,37.1 468.55,39.094 L468.55,96.872 C468.55,98.866 469.869,100.483 471.495,100.483 z M573.105,100.483" fill-opacity="0" stroke="#000000" stroke-width="0.5"/>
      </g>
      <g>
        <path d="M470.759,67.983 C470.759,84.935 492.516,98.677 519.355,98.677 C546.194,98.677 567.951,84.935 567.951,67.983 C567.951,51.031 546.194,37.288 519.355,37.288 C492.516,37.288 470.759,51.031 470.759,67.983 z" fill="#FAFAFA"/>
        <path d="M470.759,67.983 C470.759,84.935 492.516,98.677 519.355,98.677 C546.194,98.677 567.951,84.935 567.951,67.983 C567.951,51.031 546.194,37.288 519.355,37.288 C492.516,37.288 470.759,51.031 470.759,67.983 z" fill-opacity="0" stroke="#000000" stroke-width="0.5"/>
      </g>
      <g>
        <path d="M573.841,66.177 L556.17,66.177 L556.17,69.788 L573.841,69.788 z" fill="#000000"/>
        <path d="M573.841,66.177 L556.17,66.177 L556.17,69.788 L573.841,69.788 z" fill-opacity="0" stroke="#000000" stroke-width="0.5"/>
      </g>
      <g>
        <path d="M569.423,61.212 C569.423,62.957 570.577,64.372 572,64.372 C573.424,64.372 574.577,62.957 574.577,61.212 C574.577,59.467 573.424,58.052 572,58.052 C570.577,58.052 569.423,59.467 569.423,61.212 z" fill="#000000"/>
        <path d="M569.423,61.212 C569.423,62.957 570.577,64.372 572,64.372 C573.424,64.372 574.577,62.957 574.577,61.212 C574.577,59.467 573.424,58.052 572,58.052 C570.577,58.052 569.423,59.467 569.423,61.212 z" fill-opacity="0" stroke="#000000" stroke-width="0.5"/>
      </g>
      <g>
        <path d="M569.423,74.754 C569.423,76.499 570.577,77.913 572,77.913 C573.424,77.913 574.577,76.499 574.577,74.754 C574.577,73.009 573.424,71.594 572,71.594 C570.577,71.594 569.423,73.009 569.423,74.754 z" fill="#000000"/>
        <path d="M569.423,74.754 C569.423,76.499 570.577,77.913 572,77.913 C573.424,77.913 574.577,76.499 574.577,74.754 C574.577,73.009 573.424,71.594 572,71.594 C570.577,71.594 569.423,73.009 569.423,74.754 z" fill-opacity="0" stroke="#000000" stroke-width="0.5"/>
      </g>
    </g>
    <g>
      <g>
        <path d="M590.568,101.511 C588.533,101.511 586.883,99.869 586.883,97.844 L586.883,39.178 C586.883,37.153 588.533,35.511 590.568,35.511 L717.698,35.511 C719.733,35.511 721.383,37.153 721.383,39.178 L721.383,97.844 C721.383,99.869 719.733,101.511 717.698,101.511 z M590.568,101.511" fill="url(#Gradient_20)"/>
        <path d="M590.568,101.511 C588.533,101.511 586.883,99.869 586.883,97.844 L586.883,39.178 C586.883,37.153 588.533,35.511 590.568,35.511 L717.698,35.511 C719.733,35.511 721.383,37.153 721.383,39.178 L721.383,97.844 C721.383,99.869 719.733,101.511 717.698,101.511 z M590.568,101.511" fill-opacity="0" stroke="#000000" stroke-width="0.5"/>
      </g>
      <g>
        <path d="M718.619,68.511 C718.619,85.724 691.398,99.678 657.818,99.678 C624.238,99.678 597.017,85.724 597.017,68.511 C597.017,51.298 624.238,37.344 657.818,37.344 C691.398,37.344 718.619,51.298 718.619,68.511 z" fill="#FAFAFA"/>
        <path d="M718.619,68.511 C718.619,85.724 691.398,99.678 657.818,99.678 C624.238,99.678 597.017,85.724 597.017,68.511 C597.017,51.298 624.238,37.344 657.818,37.344 C691.398,37.344 718.619,51.298 718.619,68.511 z" fill-opacity="0" stroke="#000000" stroke-width="0.5"/>
      </g>
      <g>
        <path d="M589.647,66.678 L611.756,66.678 L611.756,70.344 L589.647,70.344 z" fill="#000000"/>
        <path d="M589.647,66.678 L611.756,66.678 L611.756,70.344 L589.647,70.344 z" fill-opacity="0" stroke="#000000" stroke-width="0.5"/>
      </g>
      <g>
        <path d="M595.174,61.636 C595.174,63.408 593.731,64.844 591.95,64.844 C590.169,64.844 588.726,63.408 588.726,61.636 C588.726,59.864 590.169,58.428 591.95,58.428 C593.731,58.428 595.174,59.864 595.174,61.636 z" fill="#000000"/>
        <path d="M595.174,61.636 C595.174,63.408 593.731,64.844 591.95,64.844 C590.169,64.844 588.726,63.408 588.726,61.636 C588.726,59.864 590.169,58.428 591.95,58.428 C593.731,58.428 595.174,59.864 595.174,61.636 z" fill-opacity="0" stroke="#000000" stroke-width="0.5"/>
      </g>
      <g>
        <path d="M595.174,75.386 C595.174,77.158 593.731,78.594 591.95,78.594 C590.169,78.594 588.726,77.158 588.726,75.386 C588.726,73.614 590.169,72.178 591.95,72.178 C593.731,72.178 595.174,73.614 595.174,75.386 z" fill="#000000"/>
        <path d="M595.174,75.386 C595.174,77.158 593.731,78.594 591.95,78.594 C590.169,78.594 588.726,77.158 588.726,75.386 C588.726,73.614 590.169,72.178 591.95,72.178 C593.731,72.178 595.174,73.614 595.174,75.386 z" fill-opacity="0" stroke="#000000" stroke-width="0.5"/>
      </g>
    </g>
    <g>
      <g>
        <path d="M590.383,142.983 L590.383,113.983 L619.383,113.983 L619.383,142.983 z" fill="url(#Gradient_21)"/>
        <path d="M590.383,142.983 L590.383,113.983 L619.383,113.983 L619.383,142.983 z" fill-opacity="0" stroke="#000000" stroke-width="0.5"/>
      </g>
      <g>
        <path d="M600.974,110.983 C602.857,110.983 604.383,112.456 604.383,114.273 L604.383,143.693 C604.383,145.51 602.857,146.983 600.974,146.983 L592.792,146.983 C590.909,146.983 589.383,145.51 589.383,143.693 L589.383,114.273 C589.383,112.456 590.91,110.983 592.792,110.983 L600.974,110.983 z" fill="url(#Gradient_22)"/>
        <path d="M600.974,110.983 C602.857,110.983 604.383,112.456 604.383,114.273 L604.383,143.693 C604.383,145.51 602.857,146.983 600.974,146.983 L592.792,146.983 C590.909,146.983 589.383,145.51 589.383,143.693 L589.383,114.273 C589.383,112.456 590.91,110.983 592.792,110.983 L600.974,110.983 z" fill-opacity="0" stroke="#000000" stroke-width="0.5"/>
      </g>
      <g>
        <path d="M620.383,113.983 C629.772,113.983 637.383,120.699 637.383,128.983 C637.383,137.267 629.772,143.983 620.383,143.983 C610.994,143.983 603.383,137.267 603.383,128.983 C603.383,120.699 610.994,113.983 620.383,113.983 z" fill="url(#Gradient_23)"/>
        <path d="M620.383,113.983 C629.772,113.983 637.383,120.699 637.383,128.983 C637.383,137.267 629.772,143.983 620.383,143.983 C610.994,143.983 603.383,137.267 603.383,128.983 C603.383,120.699 610.994,113.983 620.383,113.983 z" fill-opacity="0" stroke="#000000" stroke-width="0.5"/>
      </g>
      <g>
        <path d="M606.717,118.483 C607.637,118.483 608.383,119.247 608.383,120.191 L608.383,136.775 C608.383,137.719 607.637,138.483 606.717,138.483 L605.05,138.483 C604.13,138.483 603.383,137.718 603.383,136.775 L603.383,120.191 C603.383,119.247 604.13,118.483 605.05,118.483 L606.717,118.483 z" fill="url(#Gradient_24)"/>
        <path d="M606.717,118.483 C607.637,118.483 608.383,119.247 608.383,120.191 L608.383,136.775 C608.383,137.719 607.637,138.483 606.717,138.483 L605.05,138.483 C604.13,138.483 603.383,137.718 603.383,136.775 L603.383,120.191 C603.383,119.247 604.13,118.483 605.05,118.483 L606.717,118.483 z" fill-opacity="0" stroke="#000000" stroke-width="0.5"/>
      </g>
      <g>
        <path d="M605.133,141.983 C605.547,141.983 605.883,142.311 605.883,142.715 L605.883,144.251 C605.883,144.655 605.547,144.983 605.133,144.983 L605.133,144.983 C604.719,144.983 604.383,144.655 604.383,144.251 L604.383,142.715 C604.383,142.311 604.719,141.983 605.133,141.983 L605.133,141.983 z" fill="#000000"/>
        <path d="M605.133,141.983 C605.547,141.983 605.883,142.311 605.883,142.715 L605.883,144.251 C605.883,144.655 605.547,144.983 605.133,144.983 L605.133,144.983 C604.719,144.983 604.383,144.655 604.383,144.251 L604.383,142.715 C604.383,142.311 604.719,141.983 605.133,141.983 L605.133,141.983 z" fill-opacity="0" stroke="#000000" stroke-width="0.5"/>
      </g>
    </g>
    <g>
      <g>
        <path d="M573.808,142.983 L573.808,113.983 L544.808,113.983 L544.808,142.983 z" fill="url(#Gradient_25)"/>
        <path d="M573.808,142.983 L573.808,113.983 L544.808,113.983 L544.808,142.983 z" fill-opacity="0" stroke="#000000" stroke-width="0.5"/>
      </g>
      <g>
        <path d="M563.218,110.983 C561.334,110.983 559.808,112.456 559.808,114.273 L559.808,143.693 C559.808,145.51 561.335,146.983 563.218,146.983 L571.4,146.983 C573.282,146.983 574.808,145.51 574.808,143.693 L574.808,114.273 C574.808,112.456 573.282,110.983 571.4,110.983 L563.218,110.983 z" fill="url(#Gradient_26)"/>
        <path d="M563.218,110.983 C561.334,110.983 559.808,112.456 559.808,114.273 L559.808,143.693 C559.808,145.51 561.335,146.983 563.218,146.983 L571.4,146.983 C573.282,146.983 574.808,145.51 574.808,143.693 L574.808,114.273 C574.808,112.456 573.282,110.983 571.4,110.983 L563.218,110.983 z" fill-opacity="0" stroke="#000000" stroke-width="0.5"/>
      </g>
      <g>
        <path d="M543.808,113.983 C534.42,113.983 526.808,120.699 526.808,128.983 C526.808,137.267 534.42,143.983 543.808,143.983 C553.197,143.983 560.808,137.267 560.808,128.983 C560.808,120.699 553.197,113.983 543.808,113.983 z" fill="url(#Gradient_27)"/>
        <path d="M543.808,113.983 C534.42,113.983 526.808,120.699 526.808,128.983 C526.808,137.267 534.42,143.983 543.808,143.983 C553.197,143.983 560.808,137.267 560.808,128.983 C560.808,120.699 553.197,113.983 543.808,113.983 z" fill-opacity="0" stroke="#000000" stroke-width="0.5"/>
      </g>
      <g>
        <path d="M557.475,118.483 C556.555,118.483 555.808,119.247 555.808,120.191 L555.808,136.775 C555.808,137.719 556.555,138.483 557.475,138.483 L559.142,138.483 C560.062,138.483 560.808,137.718 560.808,136.775 L560.808,120.191 C560.808,119.247 560.062,118.483 559.142,118.483 L557.475,118.483 z" fill="url(#Gradient_28)"/>
        <path d="M557.475,118.483 C556.555,118.483 555.808,119.247 555.808,120.191 L555.808,136.775 C555.808,137.719 556.555,138.483 557.475,138.483 L559.142,138.483 C560.062,138.483 560.808,137.718 560.808,136.775 L560.808,120.191 C560.808,119.247 560.062,118.483 559.142,118.483 L557.475,118.483 z" fill-opacity="0" stroke="#000000" stroke-width="0.5"/>
      </g>
      <g>
        <path d="M559.058,141.983 C558.644,141.983 558.308,142.311 558.308,142.715 L558.308,144.251 C558.308,144.655 558.644,144.983 559.058,144.983 L559.058,144.983 C559.472,144.983 559.808,144.655 559.808,144.251 L559.808,142.715 C559.809,142.311 559.472,141.983 559.058,141.983 L559.058,141.983 z" fill="#000000"/>
        <path d="M559.058,141.983 C558.644,141.983 558.308,142.311 558.308,142.715 L558.308,144.251 C558.308,144.655 558.644,144.983 559.058,144.983 L559.058,144.983 C559.472,144.983 559.808,144.655 559.808,144.251 L559.808,142.715 C559.809,142.311 559.472,141.983 559.058,141.983 L559.058,141.983 z" fill-opacity="0" stroke="#000000" stroke-width="0.5"/>
      </g>
    </g>
    <g>
      <g>
        <path d="M550.517,239.217 C543.593,239.217 537.98,231.43 537.98,221.825 L537.98,184.609 C537.98,175.004 543.593,167.217 550.517,167.217 L570.032,167.217 C576.956,167.217 576.98,175.004 576.98,184.609 L576.98,221.825 C576.98,231.43 576.956,239.217 570.032,239.217 L550.517,239.217 z" fill="#FFFFFF"/>
        <path d="M550.517,239.217 C543.593,239.217 537.98,231.43 537.98,221.825 L537.98,184.609 C537.98,175.004 543.593,167.217 550.517,167.217 L570.032,167.217 C576.956,167.217 576.98,175.004 576.98,184.609 L576.98,221.825 C576.98,231.43 576.956,239.217 570.032,239.217 L550.517,239.217 z" fill-opacity="0" stroke="#000000" stroke-width="0.5"/>
      </g>
      <g>
        <path d="M549.802,234.169 C544.476,234.169 540.158,227.517 540.158,219.313 L540.158,187.525 C540.158,179.32 544.476,172.669 549.802,172.669 L560.515,172.669 C565.841,172.669 570.158,179.32 570.158,187.525 L570.158,219.313 C570.158,227.517 565.841,234.168 560.515,234.168 L549.802,234.168 z" fill="#FFFFFF"/>
        <path d="M549.802,234.169 C544.476,234.169 540.158,227.517 540.158,219.313 L540.158,187.525 C540.158,179.32 544.476,172.669 549.802,172.669 L560.515,172.669 C565.841,172.669 570.158,179.32 570.158,187.525 L570.158,219.313 C570.158,227.517 565.841,234.168 560.515,234.168 L549.802,234.168 z" fill-opacity="0" stroke="#000000" stroke-width="0.5"/>
      </g>
      <g>
        <path d="M555.98,206.217 C554.876,206.217 553.98,204.874 553.98,203.217 C553.98,201.56 554.876,200.217 555.98,200.217 C557.085,200.217 557.98,201.56 557.98,203.217 C557.98,204.874 557.085,206.217 555.98,206.217 z" fill="#FFFFFF"/>
        <path d="M555.98,206.217 C554.876,206.217 553.98,204.874 553.98,203.217 C553.98,201.56 554.876,200.217 555.98,200.217 C557.085,200.217 557.98,201.56 557.98,203.217 C557.98,204.874 557.085,206.217 555.98,206.217 z" fill-opacity="0" stroke="#000000" stroke-width="0.5"/>
      </g>
      <path d="M574.48,201.217 L574.48,205.717 L559.48,205.717 L559.48,201.217 z" fill="#000000"/>
      <path d="M572.48,213.217 C571.376,213.217 570.48,211.874 570.48,210.217 C570.48,208.56 571.376,207.217 572.48,207.217 C573.585,207.217 574.48,208.56 574.48,210.217 C574.48,211.874 573.585,213.217 572.48,213.217 z" fill="#000000"/>
      <path d="M572.48,199.717 C571.376,199.717 570.48,198.374 570.48,196.717 C570.48,195.06 571.376,193.717 572.48,193.717 C573.585,193.717 574.48,195.06 574.48,196.717 C574.48,198.374 573.585,199.717 572.48,199.717 z" fill="#000000"/>
    </g>
    <g>
      <g>
        <path d="M613.347,240.217 C620.27,240.217 625.883,232.43 625.883,222.825 L625.883,185.609 C625.883,176.004 620.27,168.217 613.347,168.217 L593.831,168.217 C586.908,168.217 586.883,176.004 586.883,185.609 L586.883,222.825 C586.883,232.43 586.907,240.217 593.831,240.217 L613.347,240.217 z" fill="#FFFFFF"/>
        <path d="M613.347,240.217 C620.27,240.217 625.883,232.43 625.883,222.825 L625.883,185.609 C625.883,176.004 620.27,168.217 613.347,168.217 L593.831,168.217 C586.908,168.217 586.883,176.004 586.883,185.609 L586.883,222.825 C586.883,232.43 586.907,240.217 593.831,240.217 L613.347,240.217 z" fill-opacity="0" stroke="#000000" stroke-width="0.5"/>
      </g>
      <g>
        <path d="M614.062,235.169 C619.388,235.169 623.705,228.517 623.705,220.313 L623.705,188.525 C623.705,180.32 619.388,173.669 614.062,173.669 L603.349,173.669 C598.023,173.669 593.705,180.32 593.705,188.525 L593.705,220.313 C593.705,228.517 598.023,235.168 603.349,235.168 L614.062,235.168 z" fill="#FFFFFF"/>
        <path d="M614.062,235.169 C619.388,235.169 623.705,228.517 623.705,220.313 L623.705,188.525 C623.705,180.32 619.388,173.669 614.062,173.669 L603.349,173.669 C598.023,173.669 593.705,180.32 593.705,188.525 L593.705,220.313 C593.705,228.517 598.023,235.168 603.349,235.168 L614.062,235.168 z" fill-opacity="0" stroke="#000000" stroke-width="0.5"/>
      </g>
      <g>
        <path d="M607.883,207.217 C608.988,207.217 609.883,205.874 609.883,204.217 C609.883,202.56 608.988,201.217 607.883,201.217 C606.779,201.217 605.883,202.56 605.883,204.217 C605.883,205.874 606.779,207.217 607.883,207.217 z" fill="#FFFFFF"/>
        <path d="M607.883,207.217 C608.988,207.217 609.883,205.874 609.883,204.217 C609.883,202.56 608.988,201.217 607.883,201.217 C606.779,201.217 605.883,202.56 605.883,204.217 C605.883,205.874 606.779,207.217 607.883,207.217 z" fill-opacity="0" stroke="#000000" stroke-width="0.5"/>
      </g>
      <path d="M588.383,202.217 L588.383,206.717 L603.383,206.717 L603.383,202.217 z" fill="#000000"/>
      <path d="M590.383,214.217 C591.488,214.217 592.383,212.874 592.383,211.217 C592.383,209.56 591.488,208.217 590.383,208.217 C589.279,208.217 588.383,209.56 588.383,211.217 C588.383,212.874 589.279,214.217 590.383,214.217 z" fill="#000000"/>
      <path d="M590.383,200.717 C591.488,200.717 592.383,199.374 592.383,197.717 C592.383,196.06 591.488,194.717 590.383,194.717 C589.279,194.717 588.383,196.06 588.383,197.717 C588.383,199.374 589.279,200.717 590.383,200.717 z" fill="#000000"/>
    </g>
    <g>
      <g>
        <path d="M228.401,33.245 L340.068,33.245 L340.068,63.277 L228.401,63.277 z" fill="url(#Gradient_29)"/>
        <path d="M228.401,33.245 L340.068,33.245 L340.068,63.277 L228.401,63.277 z" fill-opacity="0" stroke="#000000" stroke-width="0.5"/>
      </g>
      <g>
        <path d="M230.855,63.277 L284.848,63.277 L284.848,64.858 L230.855,64.858 z" fill="url(#Gradient_30)"/>
        <path d="M230.855,63.277 L284.848,63.277 L284.848,64.858 L230.855,64.858 z" fill-opacity="0" stroke="#000000" stroke-width="0.5"/>
      </g>
      <g>
        <path d="M284.848,63.277 L338.841,63.277 L338.841,64.858 L284.848,64.858 z" fill="#F2F2F2"/>
        <path d="M284.848,63.277 L338.841,63.277 L338.841,64.858 L284.848,64.858 z" fill-opacity="0" stroke="#000000" stroke-width="0.5"/>
      </g>
      <path d="M271.35,65.912 L279.94,65.912 L279.94,63.277" fill-opacity="0" stroke="#000000" stroke-width="0.5"/>
      <path d="M299.573,65.912 L290.984,65.912 L290.984,63.277" fill-opacity="0" stroke="#000000" stroke-width="0.5"/>
    </g>
    <g>
      <g>
        <path d="M233.734,248.883 L413.401,248.883 L413.401,218.851 L233.734,218.851 z" fill="url(#Gradient_31)"/>
        <path d="M233.734,248.883 L413.401,248.883 L413.401,218.851 L233.734,218.851 z" fill-opacity="0" stroke="#000000" stroke-width="0.5"/>
      </g>
      <g>
        <path d="M237.683,218.851 L324.555,218.851 L324.555,217.271 L237.683,217.271 z" fill="url(#Gradient_32)"/>
        <path d="M237.683,218.851 L324.555,218.851 L324.555,217.271 L237.683,217.271 z" fill-opacity="0" stroke="#000000" stroke-width="0.5"/>
      </g>
      <g>
        <path d="M324.555,218.851 L411.427,218.851 L411.427,217.271 L324.555,217.271 z" fill="#F2F2F2"/>
        <path d="M324.555,218.851 L411.427,218.851 L411.427,217.271 L324.555,217.271 z" fill-opacity="0" stroke="#000000" stroke-width="0.5"/>
      </g>
      <path d="M302.837,216.217 L316.658,216.217 L316.658,218.851" fill-opacity="0" stroke="#000000" stroke-width="0.5"/>
      <path d="M348.247,216.217 L334.427,216.217 L334.427,218.851" fill-opacity="0" stroke="#000000" stroke-width="0.5"/>
    </g>
    <g>
      <g>
        <path d="M357.79,570.833 C357.132,571.463 356.172,571.53 355.646,570.981 L355.646,570.981 C355.12,570.432 355.226,569.476 355.884,568.845 L396.459,529.95 C397.116,529.319 398.076,529.253 398.603,529.802 L398.603,529.802 C399.129,530.351 399.022,531.307 398.364,531.938 z M357.79,570.833" fill="#808080"/>
        <path d="M360.117,573.403 C359.403,574.087 358.724,574.536 358.6,574.407 L352.348,567.885 C352.223,567.755 352.701,567.095 353.414,566.411 L353.414,566.411 C354.128,565.728 354.807,565.278 354.931,565.408 L361.183,571.93 C361.308,572.06 360.83,572.719 360.117,573.403 z M360.117,573.403" fill="#808080"/>
        <path d="M401.087,534.457 C400.374,535.141 399.69,535.585 399.559,535.449 L393.001,528.608 C392.87,528.471 393.343,527.807 394.056,527.123 L394.056,527.123 C394.77,526.439 395.454,525.995 395.584,526.131 L402.143,532.973 C402.273,533.109 401.801,533.773 401.087,534.457 z M401.087,534.457" fill="#808080"/>
      </g>
      <path d="M364.509,589.887 C355.547,597.31 344.907,599.094 337.694,595.052 C335.977,594.09 334.638,592.84 333.306,591.449 C327.273,584.005 328.171,571.847 336.259,562.808 C390.59,510.693 390.229,511.021 390.832,510.443 C398.711,503.968 409.291,502.486 416.489,506.518 C418.206,507.48 419.545,508.731 420.878,510.121 C426.894,517.547 426.028,529.706 417.951,538.733 z" fill="url(#Gradient_33)"/>
      <path d="M419.227,538.866 C401.376,555.953 383.521,573.085 365.67,590.172 C341.978,608.84 320.419,590.363 331.448,568.351 C334.134,562.99 337.836,559.938 342.437,555.525 C363.765,535.066 377.352,522.057 390.855,509.113 C395.768,505.107 401.286,502.984 406.474,502.559 C424.274,501.101 434.712,520.904 419.338,538.751 M417.846,537.56 C420.985,534.549 422.912,529.834 423.692,526.356 C427.562,509.102 409.905,496.932 392.044,510.613 C391.99,510.642 341.268,559.288 341.247,559.267 C337.187,563.304 335.665,564.988 334.457,567.014 C326.037,581.14 333.721,594.975 346.335,595.532 C352.047,595.784 357.132,593.809 362.959,590.032" fill="#2B2B2B"/>
    </g>
    <g>
      <g>
        <path d="M598.41,578.501 C600.553,579.917 601.365,582.464 600.225,584.19 L584.806,607.525 C583.666,609.251 581.004,609.503 578.862,608.087 L563.315,597.814 C561.172,596.398 560.359,593.851 561.5,592.125 L576.918,568.79 C578.059,567.064 580.72,566.813 582.863,568.229 L598.41,578.501 z" fill="#2D2D2D"/>
        <path d="M598.41,578.501 C600.553,579.917 601.365,582.464 600.225,584.19 L584.806,607.525 C583.666,609.251 581.004,609.503 578.862,608.087 L563.315,597.814 C561.172,596.398 560.359,593.851 561.5,592.125 L576.918,568.79 C578.059,567.064 580.72,566.813 582.863,568.229 L598.41,578.501 z" fill-opacity="0" stroke="#000000" stroke-width="0.5"/>
      </g>
      <g>
        <path d="M581.383,609.753 C582.133,610.249 582.427,611.126 582.04,611.712 L581.9,611.924 C581.512,612.511 580.59,612.584 579.84,612.089 L556.994,596.993 C556.244,596.498 555.95,595.621 556.338,595.034 L556.478,594.822 C556.865,594.236 557.787,594.162 558.537,594.658 L581.383,609.753 z" fill="url(#Gradient_34)"/>
        <path d="M581.383,609.753 C582.133,610.249 582.427,611.126 582.04,611.712 L581.9,611.924 C581.512,612.511 580.59,612.584 579.84,612.089 L556.994,596.993 C556.244,596.498 555.95,595.621 556.338,595.034 L556.478,594.822 C556.865,594.236 557.787,594.162 558.537,594.658 L581.383,609.753 z" fill-opacity="0" stroke="#000000" stroke-width="0.5"/>
      </g>
      <g>
        <path d="M602.475,577.832 C603.225,578.327 603.519,579.204 603.132,579.791 L602.992,580.003 C602.604,580.589 601.682,580.663 600.932,580.167 L578.086,565.072 C577.336,564.576 577.042,563.699 577.43,563.113 L577.57,562.901 C577.957,562.314 578.879,562.241 579.629,562.736 L602.475,577.832 z" fill="url(#Gradient_35)"/>
        <path d="M602.475,577.832 C603.225,578.327 603.519,579.204 603.132,579.791 L602.992,580.003 C602.604,580.589 601.682,580.663 600.932,580.167 L578.086,565.072 C577.336,564.576 577.042,563.699 577.43,563.113 L577.57,562.901 C577.957,562.314 578.879,562.241 579.629,562.736 L602.475,577.832 z" fill-opacity="0" stroke="#000000" stroke-width="0.5"/>
      </g>
      <g>
        <path d="M555.544,592.68 L561.81,588.387 L573.834,570.19 L575.092,563.094 L571.834,560.941 L564.734,564.346 L552.943,582.191 L552.227,590.488 z" fill="url(#Gradient_36)"/>
        <path d="M555.544,592.68 L561.81,588.387 L573.834,570.19 L575.092,563.094 L571.834,560.941 L564.734,564.346 L552.943,582.191 L552.227,590.488 z" fill-opacity="0" stroke="#000000" stroke-width="0.5"/>
      </g>
      <g>
        <path d="M557.047,593.673 L563.313,589.38 L575.337,571.183 L576.596,564.087 L573.337,561.934 L566.238,565.339 L554.447,583.185 L553.73,591.481 z" fill="#2D2D2D"/>
        <path d="M557.047,593.673 L563.313,589.38 L575.337,571.183 L576.596,564.087 L573.337,561.934 L566.238,565.339 L554.447,583.185 L553.73,591.481 z" fill-opacity="0" stroke="#000000" stroke-width="0.5"/>
      </g>
    </g>
    <g>
      <g>
        <path d="M485.279,382.178 C485.279,382.771 484.757,383.251 484.114,383.251 L436.111,383.251 C435.467,383.251 434.945,382.771 434.945,382.178 L434.945,337.99 C434.945,337.398 435.467,336.917 436.111,336.917 L484.114,336.917 C484.757,336.917 485.279,337.397 485.279,337.99 L485.279,382.178 z" fill="url(#Gradient_37)"/>
        <path d="M485.279,382.178 C485.279,382.771 484.757,383.251 484.114,383.251 L436.111,383.251 C435.467,383.251 434.945,382.771 434.945,382.178 L434.945,337.99 C434.945,337.398 435.467,336.917 436.111,336.917 L484.114,336.917 C484.757,336.917 485.279,337.397 485.279,337.99 L485.279,382.178 z" fill-opacity="0" stroke="#000000" stroke-width="0.5"/>
      </g>
      <path d="M484.114,336.917 L436.111,336.917 C435.467,336.917 434.945,337.397 434.945,337.99 L434.945,382.178 C434.945,382.771 435.467,383.251 436.111,383.251 L437.858,383.251 L437.858,340.564 C437.858,339.972 438.38,339.491 439.023,339.491 L481.434,339.491 C482.077,339.491 482.599,339.971 482.599,340.564 L482.599,383.251 L484.114,383.251 C484.757,383.251 485.279,382.771 485.279,382.178 L485.279,337.99 C485.279,337.397 484.757,336.917 484.114,336.917 z" fill-opacity="0" stroke="#000000" stroke-width="0.5"/>
      <path d="M438.393,340.091 L482.521,382.616" fill-opacity="0" stroke="#000000" stroke-width="0.5"/>
      <path d="M438.393,382.616 L482.521,340.091" fill-opacity="0" stroke="#000000" stroke-width="0.5"/>
      <g>
        <path d="M462.049,361.667 C462.049,362.543 461.277,363.254 460.325,363.254 C459.373,363.254 458.601,362.543 458.601,361.667 C458.601,360.791 459.373,360.08 460.325,360.08 C461.277,360.08 462.049,360.791 462.049,361.667 z" fill="#F2F2F2"/>
        <path d="M462.049,361.667 C462.049,362.543 461.277,363.254 460.325,363.254 C459.373,363.254 458.601,362.543 458.601,361.667 C458.601,360.791 459.373,360.08 460.325,360.08 C461.277,360.08 462.049,360.791 462.049,361.667 z" fill-opacity="0" stroke="#000000" stroke-width="0.5"/>
      </g>
    </g>
    <g>
      <path d="M611.193,558.201 L640.813,558.201 L640.813,610.417 L640.813,629.924 L636.449,640.397 L623.482,647.298 L535.068,647.298 L535.068,618.147 L611.232,617.647 L611.193,558.201 z" fill="url(#Gradient_38)"/>
      <path d="M611.193,558.201 L640.813,558.201 L640.813,610.417 L640.813,629.924 L636.449,640.397 L623.482,647.298 L535.068,647.298 L535.068,618.147 L611.232,617.647 L611.193,558.201 z" fill-opacity="0" stroke="#4D4D4D" stroke-width="1"/>
    </g>
    <g>
      <g>
        <path d="M885.833,612.417 L967.167,612.417 L967.167,580.739 L885.833,580.739 z" fill="url(#Gradient_39)"/>
        <path d="M885.833,612.417 L967.167,612.417 L967.167,580.739 L885.833,580.739 z" fill-opacity="0" stroke="#000000" stroke-width="0.5"/>
      </g>
      <g>
        <path d="M888.544,580.739 L964.456,580.739 L964.456,579.101 L888.544,579.101 z" fill="url(#Gradient_40)"/>
        <path d="M888.544,580.739 L964.456,580.739 L964.456,579.101 L888.544,579.101 z" fill-opacity="0" stroke="#000000" stroke-width="0.5"/>
      </g>
      <path d="M954.967,577.918 L966.188,577.918 L966.188,580.739" fill-opacity="0" stroke="#000000" stroke-width="0.5"/>
    </g>
    <g>
      <g>
        <path d="M811.833,381.334 L885.833,381.334 L885.833,342.31 L811.833,342.31 z" fill="url(#Gradient_41)"/>
        <path d="M811.833,381.334 L885.833,381.334 L885.833,342.31 L811.833,342.31 z" fill-opacity="0" stroke="#000000" stroke-width="0.5"/>
      </g>
      <g>
        <path d="M814.3,342.31 L883.367,342.31 L883.367,340.292 L814.3,340.292 z" fill="url(#Gradient_42)"/>
        <path d="M814.3,342.31 L883.367,342.31 L883.367,340.292 L814.3,340.292 z" fill-opacity="0" stroke="#000000" stroke-width="0.5"/>
      </g>
      <path d="M874.733,338.834 L884.943,338.834 L884.943,342.31" fill-opacity="0" stroke="#000000" stroke-width="0.5"/>
    </g>
    <g>
      <g>
        <path d="M725.713,254.894 L725.713,308.894 L757.391,308.894 L757.391,254.894 z" fill="url(#Gradient_43)"/>
        <path d="M725.713,254.894 L725.713,308.894 L757.391,308.894 L757.391,254.894 z" fill-opacity="0" stroke="#000000" stroke-width="0.5"/>
      </g>
      <g>
        <path d="M757.391,256.694 L757.391,307.094 L759.029,307.094 L759.029,256.694 z" fill="url(#Gradient_44)"/>
        <path d="M757.391,256.694 L757.391,307.094 L759.029,307.094 L759.029,256.694 z" fill-opacity="0" stroke="#000000" stroke-width="0.5"/>
      </g>
      <path d="M760.212,300.794 L760.212,308.244 L757.391,308.244" fill-opacity="0" stroke="#000000" stroke-width="0.5"/>
    </g>
    <g>
      <g>
        <path d="M444.383,647.298 L529.05,647.298 L529.05,621.742 L444.383,621.742 z" fill="url(#Gradient_45)"/>
        <path d="M444.383,647.298 L529.05,647.298 L529.05,621.742 L444.383,621.742 z" fill-opacity="0" stroke="#000000" stroke-width="0.5"/>
      </g>
      <g>
        <path d="M447.205,621.742 L526.227,621.742 L526.227,620.42 L447.205,620.42 z" fill="url(#Gradient_46)"/>
        <path d="M447.205,621.742 L526.227,621.742 L526.227,620.42 L447.205,620.42 z" fill-opacity="0" stroke="#000000" stroke-width="0.5"/>
      </g>
      <path d="M516.35,619.465 L528.031,619.465 L528.031,621.741" fill-opacity="0" stroke="#000000" stroke-width="0.5"/>
    </g>
    <g>
      <g>
        <path d="M438.862,453.107 L438.862,493.774 L477.886,493.774 L477.886,453.107 z" fill="url(#Gradient_47)"/>
        <path d="M438.862,453.107 L438.862,493.774 L477.886,493.774 L477.886,453.107 z" fill-opacity="0" stroke="#000000" stroke-width="0.5"/>
      </g>
      <g>
        <path d="M477.886,454.463 L477.886,492.419 L479.904,492.419 L479.904,454.463 z" fill="url(#Gradient_48)"/>
        <path d="M477.886,454.463 L477.886,492.419 L479.904,492.419 L479.904,454.463 z" fill-opacity="0" stroke="#000000" stroke-width="0.5"/>
      </g>
      <path d="M481.362,487.674 L481.362,493.285 L477.886,493.285" fill-opacity="0" stroke="#000000" stroke-width="0.5"/>
    </g>
  </g>
</svg>
