<?xml version="1.0" encoding="UTF-8"?>
<!DOCTYPE svg PUBLIC "-//W3C//DTD SVG 1.1//EN" "http://www.w3.org/Graphics/SVG/1.1/DTD/svg11.dtd">
<svg version="1.1" xmlns="http://www.w3.org/2000/svg" xmlns:xlink="http://www.w3.org/1999/xlink" x="0" y="0" width="1150" height="768" viewBox="0, 0, 1150, 768">
  <g id="workspaces" transform="translate(0, 0)">
    <path d="M432.341,436.727 L564.008,437.061 L564.008,386.584 L644.901,386.584 L644.901,655.917 L431.341,655.917 L432.341,436.727 z" fill="#D20000" id="1"/>
    <path d="M696.273,483.935 L644.901,483.691 L644.901,386.584 L979.549,386.584 L979.549,616.717 L698.813,616.717 L696.273,483.935 z" fill="#D20000" id="2"/>
    <path d="M722.808,185.217 L828.216,185.217 L828.216,31.251 L1085.549,31.251 L1085.549,386.584 L721.88,386.584 L722.808,185.217 z" fill="#D20000" id="3"/>
    <path d="M140.901,388.518 L139.901,332.584 L432.341,332.584 L432.341,539.994 L363.684,607.917 L139.901,607.708 L140.901,388.518 z" fill="#D20000" id="4"/>
  </g>
</svg>
