<?xml version="1.0" encoding="UTF-8"?>
<!DOCTYPE svg PUBLIC "-//W3C//DTD SVG 1.1//EN" "http://www.w3.org/Graphics/SVG/1.1/DTD/svg11.dtd">
<svg version="1.1" xmlns="http://www.w3.org/2000/svg" xmlns:xlink="http://www.w3.org/1999/xlink" x="0" y="0" width="1150" height="768" viewBox="0, 0, 1150, 768">
  <g id="zones" transform="translate(0, 0)">
    <path d="M723.901,388.154 L723.901,31.251 L1087.216,31.251 L1084.549,386.584 L978.549,386.584 L978.549,616.717 L643.901,616.717 L646.492,658.425 L431.341,658.425 L431.341,386.584 L723.901,388.154 z" fill="#D7E4D2" id="Personal_Areas"/>
    <path d="M463.55,32.251 L724.216,32.251 L724.216,250.917 L463.55,250.917 L463.55,32.251 z" fill="#BFC0E0" id="Restrooms"/>
    <path d="M139.901,238.717 L56.883,234.717 L56.883,31.251 L234.401,32.745 L234.401,250.917 L412.901,250.917 L412.901,211.196 L463.55,210.584 L463.55,250.917 L724.216,250.917 L724.216,387.584 L644.901,387.584 L564.008,387.584 L564.008,333.584 L430.306,334.251 L431.926,655.919 L486.883,655.917 L486.883,741.255 L432.341,741.255 L137.23,741.255 L139.901,238.717 z" fill="#E5D3D3" id="Open_Areas"/>
    <path d="M234.401,32.745 L463.55,32.745 L463.55,210.584 L412.901,210.584 L412.901,250.917 L234.401,250.917 L234.401,32.745 z" fill="#F1E9B4" id="Restricted_Area"/>
    <path d="M432.341,332.584 L564.008,332.584 L564.008,386.584 L432.341,386.584 L432.341,332.584 z" fill="#E67777" id="Danger_Area"/>
  </g>
</svg>
